<svg xmlns="http://www.w3.org/2000/svg" width="97.537" height="41.667" viewBox="0 0 97.537 41.667">
  <g id="Group_1380" data-name="Group 1380" opacity="1">
    <path id="Path_783" data-name="Path 783" d="M151.5,135.85H135.855c.529,3.34,3.165,5.01,6.33,5.01a10.748,10.748,0,0,0,6.418-2.154l2.2,3.033c-1.187,1.231-4.4,3.428-9.583,3.428-6.418,0-11.165-3.912-11.165-10.769,0-6.813,4.967-11.385,11.033-11.385,6.55,0,10.505,4.308,10.505,9.978,0,1.1-.088,2.858-.088,2.858M135.767,132.2h10.2c-.088-2.331-.967-5.012-4.924-5.012a5.02,5.02,0,0,0-5.274,5.012" transform="translate(-90.126 -103.5)" fill="#231f20"/>
    <path id="Path_784" data-name="Path 784" d="M163.036,123.556h5.846l5.759,15.341,5.758-15.341h5.627l-8.747,21.275h-5.495Z" transform="translate(-99.047 -103.647)" fill="#231f20"/>
    <rect id="Rectangle_291" data-name="Rectangle 291" width="5.626" height="21.275" transform="translate(91.603 19.91)" fill="#231f20"/>
    <path id="Path_785" data-name="Path 785" d="M200.466,113.482a3.121,3.121,0,1,1,3.121,3.121,3.013,3.013,0,0,1-3.121-3.121" transform="translate(-109.171 -100.078)" fill="#231f20"/>
    <path id="Path_786" data-name="Path 786" d="M101.012,111.174a10.769,10.769,0,0,1-1.127,4.753h.233c6.378,0,10.249,4,10.249,10.38,0,6.334-3.915,10.337-10.249,10.337H95.9v-16.32a10.771,10.771,0,0,1-5.718,1.644h0v19.514H99.9c9.369,0,16.362-5.41,16.362-15.219,0-9.324-6.563-14.668-15.249-15.089" transform="translate(-79.341 -100.297)" fill="#231f20"/>
    <path id="Path_787" data-name="Path 787" d="M90.179,125.959v.008h0v-.008" transform="translate(-79.341 -104.297)" fill="#231f20"/>
    <path id="Path_788" data-name="Path 788" d="M90.179,96.265" transform="translate(-79.341 -96.265)" fill="#231f20"/>
    <path id="Path_789" data-name="Path 789" d="M97,107.156c-.159,0-.312.016-.472.022a10.832,10.832,0,0,0-10.364,10.809,10.837,10.837,0,0,0-10.836-10.831A10.842,10.842,0,0,0,86.159,96.32,10.839,10.839,0,0,0,97,107.156" transform="translate(-75.323 -96.28)" fill="#231f20"/>
  </g>
</svg>
