<svg xmlns="http://www.w3.org/2000/svg" width="169.354" height="30.141" viewBox="0 0 169.354 30.141">
  <g id="Group_1388" data-name="Group 1388" opacity="1">
    <g id="Group_1383" data-name="Group 1383">
      <path id="Path_813" data-name="Path 813" d="M569.495,140.915h-17.7V111.576h9.239v21.158h8.463Zm-15.5-2.2h13.3v-3.782h-8.463V113.776h-4.84Z" transform="translate(-551.793 -111.576)" fill="#231f20"/>
    </g>
    <g id="Group_1384" data-name="Group 1384" transform="translate(20.357)">
      <path id="Path_814" data-name="Path 814" d="M588.937,140.915H579.7V111.576h9.239Zm-7.039-2.2h4.84v-24.94H581.9Z" transform="translate(-579.698 -111.576)" fill="#231f20"/>
    </g>
    <g id="Group_1385" data-name="Group 1385" transform="translate(31.518)">
      <path id="Path_815" data-name="Path 815" d="M614.264,140.915h-6.951L595,111.576h10.093l5.768,14.637,5.84-14.637h10.059Zm-5.489-2.2h4.035l10.619-24.94h-5.241l-7.343,18.4-7.252-18.4H598.3Z" transform="translate(-594.996 -111.576)" fill="#231f20"/>
    </g>
    <g id="Group_1386" data-name="Group 1386" transform="translate(56.195 11.426)">
      <path id="Path_816" data-name="Path 816" d="M636.472,127.238l-7.65,17.969h15.192Z" transform="translate(-628.822 -127.238)" fill="#231f20"/>
    </g>
    <g id="Group_1387" data-name="Group 1387" transform="translate(75.195 10.412)">
      <path id="Path_817" data-name="Path 817" d="M664.18,129.134h-7.322v5.329h7.106v1.884h-7.106v6.971h7.322V145.2h-9.313V127.25h9.313Z" transform="translate(-654.867 -126.227)" fill="#231f20"/>
      <path id="Path_818" data-name="Path 818" d="M670.146,144.824l2.987-18.949,6.89,15.154,7.025-15.181,2.8,18.976H687.8l-1.7-12.489L680,145.577l-6.029-13.242-1.776,12.489Z" transform="translate(-659 -125.848)" fill="#231f20"/>
      <path id="Path_819" data-name="Path 819" d="M708.593,129.134h-7.321v5.329h7.106v1.884h-7.106v6.971h7.321V145.2h-9.312V127.25h9.312Z" transform="translate(-666.88 -126.227)" fill="#231f20"/>
      <path id="Path_820" data-name="Path 820" d="M717.7,127.25a7.875,7.875,0,0,1,4.36,1,4.99,4.99,0,0,1-2.557,8.936l5.706,8.021h-2.422l-5.464-7.859h-.511V145.2h-1.992V127.25Zm-.888,8.317h1.265c2.477,0,3.957-1.185,3.957-3.284a2.792,2.792,0,0,0-1.427-2.638,5.121,5.121,0,0,0-2.584-.511h-1.211Z" transform="translate(-671.083 -126.227)" fill="#231f20"/>
      <path id="Path_821" data-name="Path 821" d="M741.558,139.824h-7.644l-2.153,5.06h-2.208l8.263-18.814,8.047,18.814h-2.207Zm-.781-1.884-3.014-7.187-3.068,7.187Z" transform="translate(-675.068 -125.908)" fill="#231f20"/>
      <path id="Path_822" data-name="Path 822" d="M755.33,127.25v16.069h5.477V145.2h-7.468V127.25Z" transform="translate(-681.501 -126.227)" fill="#231f20"/>
      <path id="Path_823" data-name="Path 823" d="M765.635,127.25H769.3a9.765,9.765,0,0,1,6.621,2.1,8.752,8.752,0,0,1,3.068,6.89,8.546,8.546,0,0,1-3.149,6.89c-1.642,1.4-3.365,2.073-6.568,2.073h-3.634Zm1.992,16.069h1.749a7.671,7.671,0,0,0,5.141-1.614,6.872,6.872,0,0,0,2.422-5.464c0-4.306-3.014-7.106-7.563-7.106h-1.749Z" transform="translate(-684.827 -126.227)" fill="#231f20"/>
    </g>
  </g>
</svg>
