<svg xmlns="http://www.w3.org/2000/svg" width="58.875" height="59.972" viewBox="0 0 58.875 59.972">
  <g id="Group_3167" data-name="Group 3167" transform="translate(-5962.069 -3498.807)">
    <path id="Path_18114" data-name="Path 18114" d="M6013.826,3508.031a.667.667,0,0,0-.905-.656,1.576,1.576,0,0,0-1.6-.65c-1.075.159-1.827,1.058-2.617,1.729a12.45,12.45,0,0,0-2.02,1.922c-.356.477.14,1.037.618,1.077a6.741,6.741,0,0,0,2.967-.635c.234-.1.475-.191.713-.294a16.028,16.028,0,0,0-2.535,4.479,1.173,1.173,0,0,0,.172.992,2.037,2.037,0,0,0-.406.415c-.834,1.14-.481,2.547-1.19,3.783a30.625,30.625,0,0,1-3.021,3.935c-.744.911-1.849,2.641-3.065,2.942-1.393.344-2.488-.694-3.878.335a2.044,2.044,0,0,0-.5.529c-.557-1.463-1.894-2.083-3.064-3.015-.958-.761-1.965-1.952-3.167-2.292a.941.941,0,0,0-1.173.893c-.142,1.357.946,2.82,1.721,3.843.99,1.308,2.191,2.795,3.942,2.872a1.658,1.658,0,0,0,1.033-.336,2.107,2.107,0,0,1-.341.544c-1.1,1.253-3.279.488-4.485-.095-2.088-1.009-4.4-3.335-6.877-2.949a.743.743,0,0,0-.547.718c.013.149.026.3.038.446a.134.134,0,0,0,.094.122c1.895.684,3.417,2.815,4.971,4.057a9.747,9.747,0,0,0,4.825,2.315,6.231,6.231,0,0,0,4.342-1.11,5.443,5.443,0,0,0,1.527-1.6,4.092,4.092,0,0,0,.4-1.135,4.282,4.282,0,0,0,1.119.166,5.693,5.693,0,0,0,2.224-.662,13.227,13.227,0,0,0,3.869-3.579c2.314-2.825,5.464-5.885,4.68-9.849a1.767,1.767,0,0,0-.65-1.011,4.752,4.752,0,0,0,2.438-2.913C6014.088,3511.515,6013.75,3509.9,6013.826,3508.031Z" transform="translate(-7.868 -2.886)" fill="#e0dfe6"/>
    <path id="Path_18115" data-name="Path 18115" d="M6026.237,3552.875a13.62,13.62,0,0,1-2.684-2.133c-1-.817-1.992-1.647-2.974-2.491-1.15-.99-2.312-2.119-3.564-3.071,1.871-2.217,3.643-5.2,2.929-8.045a1.263,1.263,0,0,0-2.28-.3,44.9,44.9,0,0,1-2.525,4,11.137,11.137,0,0,0,2.1-5.429.844.844,0,0,0,.428-.752,4.588,4.588,0,0,0-1.078-2.585,5.845,5.845,0,0,0-.5-.809c-1-1.817-3.674-.216-2.761,1.614,1.635,3.277-3.616,7.529-5.832,9.352a42.933,42.933,0,0,1-9.73,5.786c-3.461,1.557-7.112,2.623-10.6,4.1a7.035,7.035,0,0,0-3.665,3.031c-.1-.087-.194-.178-.3-.261a.481.481,0,0,0-.8.465,14.7,14.7,0,0,0,.786,2.665,1.138,1.138,0,0,0,.381.52,1.568,1.568,0,0,0-2.088,1.45,4.944,4.944,0,0,0,.7,2.085,2.394,2.394,0,0,1,.133.562c0,.025.015.023.027.012-.014.026-.033.06-.058.109a10.976,10.976,0,0,0-1.151,2.251,1.271,1.271,0,0,0,.326,1.236,1.688,1.688,0,0,0,.241.188,1.284,1.284,0,0,0,1.3.01,4.764,4.764,0,0,0,.673-.442,4.2,4.2,0,0,0-1.187,2.806.526.526,0,0,0,.887.367c1.82-1.689,4.519-3.027,5.729-5.266a5.086,5.086,0,0,0,.538-3.6c2.787-1.388,5.554-2.755,8.457-3.927,3.268-1.32,6.538-2.635,9.675-4.25a33.038,33.038,0,0,0,7.159-4.8,24.034,24.034,0,0,0,3.47,4.747c-1.468.766-2.556,2.25-3.851,3.274-1.626,1.286-3.336,2.471-4.929,3.8-2.254,1.88-5.527,5.136-2.976,8.033a.509.509,0,0,0,.845-.491c-1.216-3.442,5.292-6.27,7.507-7.692,1.767-1.135,4.42-2.776,5.173-4.95,1.773,1.97,4.032,4.191,6.6,2.962C6028.751,3556.068,6027.829,3553.543,6026.237,3552.875Zm-40.415,5.351a1.84,1.84,0,0,0,.371,2.876c1.313.621-.1,2.342-1.173,3.465a5.678,5.678,0,0,0,.355-.575,4.358,4.358,0,0,0-1.334-5.218,1.01,1.01,0,0,0,1.393-.762c.245-1.414,2.385-1.875,3.808-2.234A28.783,28.783,0,0,0,5985.822,3558.227Z" transform="translate(-6.955 -11.568)" fill="#e0dfe6"/>
    <path id="Path_18116" data-name="Path 18116" d="M5980.5,3536.246a1.5,1.5,0,0,0-1.8-.232,3.271,3.271,0,0,0-.779.813c-.03.043-.14.186-.118.161-.087.109-.176.215-.261.325-.179.232-.163.222-.32.409a1.066,1.066,0,0,0-.212.1c-.05.024-.089.041-.13.058a.911.911,0,0,0-.4.559c-.2.743.548,1.352,1.224,1.387a2.772,2.772,0,0,0,1.257-.3c.352.411,1.072.129,1.25-.344a10.141,10.141,0,0,1,.518-1.137A1.52,1.52,0,0,0,5980.5,3536.246Z" transform="translate(-5.255 -13.52)" fill="#e0dfe6"/>
    <path id="Path_18117" data-name="Path 18117" d="M6030.293,3562.581a24.75,24.75,0,0,0-5.278,3.9,35.251,35.251,0,0,0-5.181,4.882.465.465,0,0,0,.562.727,35.033,35.033,0,0,0,5.68-3.99,25.377,25.377,0,0,0,5.12-4.622C6031.624,3562.888,6030.822,3562.343,6030.293,3562.581Z" transform="translate(-21.068 -23.285)" fill="#e0dfe6"/>
    <path id="Path_18118" data-name="Path 18118" d="M6012.048,3517.179c-1.433-1.418-3.335-2.405-4.885-3.718a56.181,56.181,0,0,0-4.208-3.744c-.323-.223-.65.144-.6.459a12.215,12.215,0,0,0,3,5.489,13.743,13.743,0,0,0,5.126,4.209C6012.035,3520.488,6013.122,3518.242,6012.048,3517.179Z" transform="translate(-14.722 -3.962)" fill="#e0dfe6"/>
    <path id="Path_18119" data-name="Path 18119" d="M6005.914,3526.247c-1.413-.662-2.98-.738-4.375-1.5-.609-.334-3.223-1.657-2.773-2.647a.156.156,0,0,0-.21-.211c-1.666.931-.655,2.649.334,3.8,1.386,1.613,4.094,3.447,6.308,3.2a1.477,1.477,0,0,0,1.368-1.041,1.318,1.318,0,0,0,.051-.377A1.408,1.408,0,0,0,6005.914,3526.247Z" transform="translate(-13.01 -8.426)" fill="#e0dfe6"/>
    <g id="Group_3166" data-name="Group 3166" transform="translate(5962.069 3498.807)">
      <g id="Group_3151" data-name="Group 3151" transform="translate(5.283)">
        <path id="Path_18120" data-name="Path 18120" d="M5973.217,3530.519a.674.674,0,0,1-.612-.391,19.821,19.821,0,0,1-2.211-8.038,6.85,6.85,0,0,1,4.217-6.677c-.022-.258-.034-.509-.034-.76a6.055,6.055,0,0,1,4.677-6.008c.248-3.461,3.68-5.074,5.132-5.253,2.106-3.134,6.107-3.916,9.342-4.547a2.059,2.059,0,0,1,.393-.039c1.734,0,2.73,2.188,2.993,2.859a28.591,28.591,0,0,0,6.374,9.85,3.59,3.59,0,0,1,1.11,2.529c0,2.081-1.461,2.31-2.428,2.463-.15.023-.3.047-.451.077a.673.673,0,0,1-.265-1.32c.168-.034.337-.06.506-.087,1.022-.161,1.29-.24,1.29-1.132a2.259,2.259,0,0,0-.715-1.577,29.912,29.912,0,0,1-6.675-10.309c-.392-1-1.082-2.005-1.74-2.005a.706.706,0,0,0-.134.013c-3.781.739-7.041,1.568-8.646,4.233a.688.688,0,0,1-.611.326c-.032,0-.063,0-.094,0-.687,0-4.05,1.178-4.05,4.324v.089a.673.673,0,0,1-.483.659c-2.89.852-4.18,2.35-4.18,4.859a7.611,7.611,0,0,0,.078,1.067.672.672,0,0,1-.386.706c-2.013.92-3.875,2.244-3.875,5.663a18.563,18.563,0,0,0,2.086,7.472.673.673,0,0,1-.61.956Z" transform="translate(-5970.394 -3498.807)" fill="#707070"/>
      </g>
      <g id="Group_3152" data-name="Group 3152" transform="translate(19.644 5.078)">
        <path id="Path_18121" data-name="Path 18121" d="M6007.057,3524.907a6.312,6.312,0,0,1-2.886-.661.674.674,0,0,1,.6-1.205,4.922,4.922,0,0,0,2.284.519c1.892,0,2.249-.3,2.249-1.919,0-.619-.126-2.111-1.295-2.606a17.464,17.464,0,0,1-8.753-8.01c-1.148-1.886-1.806-2.87-3.058-2.87a2.152,2.152,0,0,0-1.838,1.825.673.673,0,1,1-1.325-.241,3.461,3.461,0,0,1,3.163-2.93c2.068,0,3.06,1.629,4.208,3.516a16.1,16.1,0,0,0,8.129,7.469,3.872,3.872,0,0,1,2.117,3.846C6010.653,3524.36,6009.278,3524.907,6007.057,3524.907Z" transform="translate(-5993.026 -3506.81)" fill="#707070"/>
      </g>
      <g id="Group_3153" data-name="Group 3153" transform="translate(13.307 12.559)">
        <path id="Path_18122" data-name="Path 18122" d="M5998.519,3532.409c-3.346,0-5.721-2.132-7.818-4.011-1.633-1.465-3.044-2.73-4.553-2.73a7.846,7.846,0,0,0-2.241.395.673.673,0,1,1-.387-1.29,9.125,9.125,0,0,1,2.628-.452c2.023,0,3.689,1.494,5.452,3.075,2.01,1.8,4.089,3.667,6.919,3.667.884,0,2.287-.42,2.287-1.55a3.12,3.12,0,0,0-1.97-2.516,24.449,24.449,0,0,1-7.378-4.8c-1.449-1.255-2.593-2.246-3.6-2.246a1.585,1.585,0,0,0-1.738,1.289.673.673,0,1,1-1.333-.19,2.877,2.877,0,0,1,3.07-2.446c1.507,0,2.819,1.136,4.479,2.574a23.3,23.3,0,0,0,6.984,4.566,4.454,4.454,0,0,1,2.829,3.772C6002.153,3531.393,6000.28,3532.409,5998.519,3532.409Z" transform="translate(-5983.04 -3518.599)" fill="#707070"/>
      </g>
      <g id="Group_3154" data-name="Group 3154" transform="translate(8.238 23.14)">
        <path id="Path_18123" data-name="Path 18123" d="M5989.962,3542.584c-1.812,0-3.278-1.2-4.829-2.477-1.719-1.41-3.5-2.868-5.91-2.868h-.388c-1.264,0-2.91-.142-3.587-.817a.674.674,0,0,1,.953-.952,5.4,5.4,0,0,0,2.634.423h.388c2.9,0,4.951,1.686,6.765,3.174,1.419,1.165,2.644,2.17,3.975,2.17,1.724,0,2.214-1.249,2.637-2.757l.055-.195a.673.673,0,0,1,1.295.37l-.054.188C5993.529,3540.151,5992.848,3542.584,5989.962,3542.584Z" transform="translate(-5975.051 -3535.273)" fill="#707070"/>
      </g>
      <g id="Group_3155" data-name="Group 3155" transform="translate(0 24.335)">
        <path id="Path_18124" data-name="Path 18124" d="M5962.742,3553.625a.666.666,0,0,1-.411-.14.673.673,0,0,1-.123-.944c9.253-11.992,12.547-14.458,14.729-15.334a.673.673,0,1,1,.5,1.25c-1.909.767-5.084,3.138-14.163,14.907A.673.673,0,0,1,5962.742,3553.625Z" transform="translate(-5962.068 -3537.157)" fill="#707070"/>
      </g>
      <g id="Group_3156" data-name="Group 3156" transform="translate(3.306 35.259)">
        <path id="Path_18125" data-name="Path 18125" d="M5977.908,3576.621a.674.674,0,0,1-.515-1.107,42.712,42.712,0,0,1,3.286-3.37c.355-.339.711-.677,1.06-1.017-3-3.042-5.478-5.837-8.089-8.787-1.938-2.189-3.942-4.454-6.187-6.832a.674.674,0,0,1,.979-.925c2.261,2.395,4.271,4.667,6.217,6.864,2.734,3.089,5.317,6.007,8.51,9.208a.673.673,0,0,1,0,.952c-.508.508-1.034,1.009-1.561,1.511a41.669,41.669,0,0,0-3.183,3.261A.673.673,0,0,1,5977.908,3576.621Z" transform="translate(-5967.279 -3554.373)" fill="#707070"/>
      </g>
      <g id="Group_3157" data-name="Group 3157" transform="translate(15.544 10.783)">
        <path id="Path_18126" data-name="Path 18126" d="M5987.24,3554.642a.674.674,0,0,1-.488-1.139c4.224-4.415,5.852-4.674,8.313-5.065,3.155-.5,7.92-1.261,22.8-12.229a6.254,6.254,0,0,0,2.315-3.929,2.938,2.938,0,0,0-1.983-2.454.674.674,0,0,1-.419-.8,6.505,6.505,0,0,0,.234-1.606c0-1.817-1.661-2.685-3.056-3.093a.674.674,0,0,1-.481-.705c.027-.316.041-.6.041-.863,0-3.922-3.839-5.047-5.285-5.47a2.944,2.944,0,0,1-.659-.237.673.673,0,0,1,.693-1.155c.036.012.169.049.345.1,1.546.453,6.252,1.832,6.252,6.762,0,.143,0,.29-.01.443,2.268.808,3.509,2.292,3.509,4.218a7.091,7.091,0,0,1-.149,1.388,4.232,4.232,0,0,1,2.317,3.474,7.517,7.517,0,0,1-2.863,5.014c-15.148,11.162-20.11,11.952-23.393,12.474-2.348.374-3.641.58-7.551,4.666A.671.671,0,0,1,5987.24,3554.642Z" transform="translate(-5986.565 -3515.8)" fill="#707070"/>
      </g>
      <g id="Group_3158" data-name="Group 3158" transform="translate(32.793 2.418)">
        <path id="Path_18127" data-name="Path 18127" d="M6019.292,3511.9a2.877,2.877,0,0,1-.566-.055.673.673,0,1,1,.262-1.32,1.606,1.606,0,0,0,.3.029,4.679,4.679,0,0,0,4.08-4.344c0-2.242-.877-2.242-1.518-2.242-.91.017-6.322.933-6.773,3.077a.673.673,0,1,1-1.318-.277c.739-3.511,8.019-4.147,8.091-4.147,1.927,0,2.864,1.174,2.864,3.589A5.974,5.974,0,0,1,6019.292,3511.9Z" transform="translate(-6013.748 -3502.617)" fill="#707070"/>
      </g>
      <g id="Group_3159" data-name="Group 3159" transform="translate(27.09 42.784)">
        <path id="Path_18128" data-name="Path 18128" d="M6014.483,3576.215a.67.67,0,0,1-.494-.215,98.286,98.286,0,0,0-8.981-8.575.674.674,0,0,1,.853-1.043,99.469,99.469,0,0,1,9.115,8.7.673.673,0,0,1-.493,1.132Z" transform="translate(-6004.761 -3566.231)" fill="#707070"/>
      </g>
      <g id="Group_3160" data-name="Group 3160" transform="translate(42.931 34.387)">
        <path id="Path_18129" data-name="Path 18129" d="M6042.573,3566.655a.669.669,0,0,1-.434-.158c-1.665-1.409-3.019-2.5-4.213-3.458-3.838-3.085-5.59-4.494-8.116-9.04a.674.674,0,0,1,1.177-.655c2.4,4.316,3.975,5.584,7.782,8.645,1.2.965,2.562,2.059,4.239,3.478a.673.673,0,0,1-.435,1.187Z" transform="translate(-6029.726 -3552.999)" fill="#707070"/>
      </g>
      <g id="Group_3161" data-name="Group 3161" transform="translate(33.989 41.378)">
        <path id="Path_18130" data-name="Path 18130" d="M6021.764,3582.609a.671.671,0,0,1-.491-.212c-1.812-1.925-3.632-3.687-5.41-5.237a.673.673,0,0,1-.019-1c2.353-2.212,5.015-4.292,7.833-6.5,2.183-1.707,4.441-3.471,6.813-5.489a.673.673,0,1,1,.872,1.026c-2.394,2.036-4.663,3.809-6.856,5.524-2.577,2.015-5.022,3.927-7.2,5.915,1.631,1.455,3.292,3.078,4.944,4.833a.674.674,0,0,1-.49,1.135Z" transform="translate(-6015.633 -3564.015)" fill="#707070"/>
      </g>
      <g id="Group_3162" data-name="Group 3162" transform="translate(33.743 39.298)">
        <path id="Path_18131" data-name="Path 18131" d="M6015.92,3571.115a.673.673,0,0,1-.359-1.243,60.74,60.74,0,0,0,6.175-4.667,65.231,65.231,0,0,1,5.7-4.358.674.674,0,0,1,.737,1.127,64.164,64.164,0,0,0-5.576,4.27,61.935,61.935,0,0,1-6.314,4.767A.671.671,0,0,1,6015.92,3571.115Z" transform="translate(-6015.246 -3560.738)" fill="#707070"/>
      </g>
      <g id="Group_3163" data-name="Group 3163" transform="translate(36.911 46.427)">
        <path id="Path_18132" data-name="Path 18132" d="M6022.338,3575.219a.67.67,0,0,1-.538-.269l-1.426-1.9a.673.673,0,1,1,1.077-.808l1.426,1.9a.674.674,0,0,1-.539,1.077Z" transform="translate(-6020.239 -3571.972)" fill="#707070"/>
      </g>
      <g id="Group_3164" data-name="Group 3164" transform="translate(40.555 43.417)">
        <path id="Path_18133" data-name="Path 18133" d="M6028.08,3570.477a.673.673,0,0,1-.539-.269l-1.426-1.9a.673.673,0,0,1,1.077-.808l1.426,1.9a.673.673,0,0,1-.539,1.078Z" transform="translate(-6025.98 -3567.229)" fill="#707070"/>
      </g>
      <g id="Group_3165" data-name="Group 3165" transform="translate(43.406 41.358)">
        <path id="Path_18134" data-name="Path 18134" d="M6033.364,3567.39a.675.675,0,0,1-.419-.147,7.44,7.44,0,0,1-.935-.944,4.079,4.079,0,0,0-1.163-1.039.673.673,0,1,1,.6-1.2,5.242,5.242,0,0,1,1.575,1.356,6.2,6.2,0,0,0,.763.78.673.673,0,0,1-.422,1.2Z" transform="translate(-6030.473 -3563.984)" fill="#707070"/>
      </g>
    </g>
  </g>
</svg>
