<svg xmlns="http://www.w3.org/2000/svg" width="54.985" height="37.165" viewBox="0 0 54.985 37.165">
  <g id="Group_3314" data-name="Group 3314" transform="translate(-3636.396 -4042.119)" opacity="0.25">
    <g id="Group_3310" data-name="Group 3310" transform="translate(3636.789 4047.388)">
      <g id="Group_3302" data-name="Group 3302" transform="translate(29.65 5.63)">
        <path id="Path_25416" data-name="Path 25416" d="M3766.934,4084.906c.016,1.21.019,2.42,0,3.629-.016,1.188,0,1.845-.928,2.632a7.276,7.276,0,0,1-4.73,1.648c-3.894-.022-7.018-3.471-7.874-7.089-.39-1.646-2.927-.949-2.537.7,1.156,4.884,5.581,9.2,10.773,9.015a9.986,9.986,0,0,0,6.228-2.413c2.337-2.047,1.732-5.3,1.7-8.121a1.316,1.316,0,0,0-2.63,0Z" transform="translate(-3750.828 -4083.635)" fill="#e0dfe6"/>
      </g>
      <g id="Group_3303" data-name="Group 3303" transform="translate(33.808)">
        <path id="Path_25417" data-name="Path 25417" d="M3782.76,4064.118c1.828,2.753,1.727,6.2,2,9.382.309,3.549-.849,6.374-2.863,9.247a14.44,14.44,0,0,1-2.938,3.5,15.9,15.9,0,0,1-3.281,1.609,35.613,35.613,0,0,1-8.066,2.105c-1.667.274-.959,2.81.7,2.536a39.319,39.319,0,0,0,9.032-2.515,13.514,13.514,0,0,0,3.752-2.092,21.472,21.472,0,0,0,3.325-4.178,15.28,15.28,0,0,0,2.97-10.211c-.315-3.659-.26-7.542-2.363-10.709-.933-1.4-3.212-.088-2.271,1.328Z" transform="translate(-3766.665 -4062.19)" fill="#e0dfe6"/>
      </g>
      <g id="Group_3304" data-name="Group 3304" transform="translate(33.424 19.014)">
        <path id="Path_25418" data-name="Path 25418" d="M3767.143,4146.035c2.156-1.363,4.81-1.713,7-3.089a17.151,17.151,0,0,0,3.415-2.817,17.936,17.936,0,0,0,1.258-1.524c.245-.329.479-.665.7-1.012l.215-.35q.389-.61.066-.184h-1.327l.2.091-.6-.786c.251.613-1.021,1.72-1.4,2.1-.781.771-1.585,1.517-2.378,2.274-1.226,1.171.635,3.03,1.86,1.86,1.642-1.569,4.143-3.329,4.554-5.731a1.819,1.819,0,0,0-1.214-2.208c-1.255-.287-1.792.926-2.35,1.781a14.452,14.452,0,0,1-5.565,4.945c-1.847.938-3.988,1.269-5.75,2.382-1.427.9-.109,3.179,1.328,2.271Z" transform="translate(-3765.201 -4134.612)" fill="#e0dfe6"/>
      </g>
      <g id="Group_3305" data-name="Group 3305" transform="translate(41.253 13.944)">
        <path id="Path_25419" data-name="Path 25419" d="M3796.021,4116.574c0,.482.113,1.5-.352,1.84a1.354,1.354,0,0,0-.472,1.8,1.325,1.325,0,0,0,1.8.472c1.379-1.011,1.659-2.483,1.654-4.111a1.316,1.316,0,0,0-2.63,0Z" transform="translate(-3795.022 -4115.304)" fill="#e0dfe6"/>
      </g>
      <g id="Group_3306" data-name="Group 3306" transform="translate(14.016 4.646)">
        <path id="Path_25420" data-name="Path 25420" d="M3694.353,4081.9a11.375,11.375,0,0,1,.718,4.729,2.8,2.8,0,0,1-.584,1.934,4.927,4.927,0,0,1-2.269.86l.7,2.537c1.167-.309,2.771-.605,3.691-1.45.992-.911.7-2.218.1-3.248a1.339,1.339,0,0,0-2.066-.266l-1.77,1.4c-1.328,1.048.545,2.9,1.86,1.86l1.77-1.4-2.066-.266q.7-.062-.027.147-.322.123-.649.231c-.508.172-1.022.319-1.541.456a1.316,1.316,0,0,0,.7,2.537c2.362-.489,4.212-1.555,4.646-4.051a13.594,13.594,0,0,0-.939-7.336c-.686-1.544-2.953-.208-2.271,1.328Z" transform="translate(-3691.277 -4079.886)" fill="#e0dfe6"/>
      </g>
      <g id="Group_3307" data-name="Group 3307" transform="translate(4.092 3.682)">
        <path id="Path_25421" data-name="Path 25421" d="M3672.415,4077.829a14.628,14.628,0,0,1,.259,8.663c-.824,2.843-2.64,4.712-4.675,6.759-1.947,1.958-3.792,4.09-6.3,5.347-2.487,1.25-5.218,1.9-7.606,3.368a1.321,1.321,0,0,0,1.013,2.4,31.167,31.167,0,0,0,4.715-1.246,46.167,46.167,0,0,0,6.941-3.959,11.167,11.167,0,0,0,4.12-5.1,43.018,43.018,0,0,1,3.44-7.419c.914-1.431-1.361-2.751-2.271-1.328a32.253,32.253,0,0,0-3.167,6.593,9.574,9.574,0,0,1-3.789,5.216,55.841,55.841,0,0,1-6.16,3.5c-1.406.708-3.026.763-4.529,1.2l1.013,2.4c2.63-1.614,5.709-2.239,8.374-3.78,2.73-1.579,4.883-4.145,7.073-6.367a15.9,15.9,0,0,0,4.456-7.33,17.225,17.225,0,0,0-.377-9.631c-.512-1.607-3.053-.92-2.536.7Z" transform="translate(-3653.48 -4076.215)" fill="#e0dfe6"/>
      </g>
      <g id="Group_3308" data-name="Group 3308" transform="translate(0.781 6.894)">
        <path id="Path_25422" data-name="Path 25422" d="M3641.046,4089.4a5.027,5.027,0,0,0,.443,3.9c.9,1.261,2.788,1.7,4.2,2.105,2.586.735,6.581,1.787,8.729-.422,1.18-1.215-.677-3.076-1.86-1.86-1.137,1.169-3.9.31-5.251-.014a22.678,22.678,0,0,1-2.72-.832c-1.187-.449-1.206-.983-1-2.176.283-1.656-2.251-2.367-2.536-.7Z" transform="translate(-3640.866 -4088.451)" fill="#e0dfe6"/>
      </g>
      <g id="Group_3309" data-name="Group 3309" transform="translate(0 5.304)">
        <path id="Path_25423" data-name="Path 25423" d="M3638.126,4084.306a22.034,22.034,0,0,0,3.577,4.585c1.338,1.126,2.32,2.67,3.919,3.461,1.512.748,2.847-1.521,1.328-2.271-1.363-.674-2.236-2.082-3.386-3.05a19.37,19.37,0,0,1-3.166-4.052c-.957-1.383-3.238-.069-2.271,1.328Z" transform="translate(-3637.893 -4082.391)" fill="#e0dfe6"/>
      </g>
    </g>
    <g id="Group_3311" data-name="Group 3311" transform="translate(3636.396 4042.119)">
      <path id="Path_25424" data-name="Path 25424" d="M3659.284,4048.015a7.708,7.708,0,0,0-1.427-1.44c-.177-.15-.345-.291-.507-.438a4.841,4.841,0,0,0-2.332-.958l-.232-.051c-.29-.065-.592-.14-.884-.212a12.215,12.215,0,0,0-2.895-.48h-.031c-.422,0-.856,0-1.275,0a26.392,26.392,0,0,0-5.313.323l-.374.074a15.573,15.573,0,0,0-4.712,1.464,4.174,4.174,0,0,0-1.631,1.438,14.848,14.848,0,0,0-.937,1.75,5.912,5.912,0,0,0-.327,2.627q.005.185.009.365c.02,1.1.093,2.206.217,3.3a9.676,9.676,0,0,0,1.866,5.354,10.161,10.161,0,0,0,4.91,2.819,14.014,14.014,0,0,0,5.868.349c.41-.062.833-.136,1.254-.235a8.822,8.822,0,0,1,.417,1.859,11.37,11.37,0,0,1-.1,2.358,5.808,5.808,0,0,1-.668,2.238,9,9,0,0,1-1.5,1.781,82.544,82.544,0,0,1-7.477,6.614l-.147.034.032.055-.044.035a.543.543,0,0,0-.162.691.713.713,0,0,0,.625.409.564.564,0,0,0,.131-.015l.089-.021.005.009.019-.014a25.351,25.351,0,0,0,10.3-5.126,39.5,39.5,0,0,0,3.7-3.664q.367-.4.737-.793l.285-.3a17.738,17.738,0,0,0,3.114-4.027,12.532,12.532,0,0,0,.707-1.871q.055-.174.111-.349l.146-.45c.194-.594.394-1.208.567-1.821a18.885,18.885,0,0,0,.532-5.086,14.04,14.04,0,0,0-.852-4.433A16.253,16.253,0,0,0,3659.284,4048.015Zm-5.595,14.4a8.484,8.484,0,0,0,2.074-4.457,7.231,7.231,0,0,0-.146-2.788.59.59,0,0,0-.412-.439.691.691,0,0,0-.657.169.609.609,0,0,0-.163.6,6.555,6.555,0,0,1-.728,4.76,6.294,6.294,0,0,1-1.173,1.563,4.224,4.224,0,0,1-1.76.838,12.071,12.071,0,0,1-10.221-1.443,6.3,6.3,0,0,1-2.454-4.454,26.966,26.966,0,0,1-.344-5.911,4.02,4.02,0,0,1,.6-1.654l.067-.126a3.393,3.393,0,0,1,1.042-1.354,12.2,12.2,0,0,1,4.491-1.571,17.845,17.845,0,0,1,2.885-.388c.749-.026,1.513-.03,2.252-.034l.888-.006.243,0a7.64,7.64,0,0,1,2.211.186c.34.1.689.166,1.028.235l.353.073c.558.118,1.134.24,1.69.391a3.278,3.278,0,0,1,.863.319,17.631,17.631,0,0,1,1.692,1.525,4.186,4.186,0,0,1,.665,1.054l.031.062a18.38,18.38,0,0,1,.846,2.008l.037.1a16.393,16.393,0,0,1,1.034,3.7,15.193,15.193,0,0,1,.02,2.531c-.008.142-.015.284-.023.427a18.759,18.759,0,0,1-.168,1.952,16.845,16.845,0,0,1-.765,2.742c-.132.388-.269.789-.39,1.184a10.879,10.879,0,0,1-2.534,4.142c-1.26,1.4-2.5,2.76-3.778,4.039a24.406,24.406,0,0,1-8.563,5.564,67.52,67.52,0,0,0,5.66-5.254,7.478,7.478,0,0,0,1.445-2.007,7.858,7.858,0,0,0,.6-2.369,11.573,11.573,0,0,0,.079-2.62,10.588,10.588,0,0,0-.453-2.012A4.985,4.985,0,0,0,3653.689,4062.416Z" transform="translate(-3636.396 -4043.822)" fill="#707070"/>
      <path id="Path_25425" data-name="Path 25425" d="M3769.2,4055.646a21.137,21.137,0,0,0-.609-5.648,11.693,11.693,0,0,0-2.366-4.052,18.193,18.193,0,0,0-1.578-1.593,5.734,5.734,0,0,0-1.635-1.22,15.952,15.952,0,0,0-1.761-.523,9.144,9.144,0,0,0-2.147-.465c-1.975-.072-3.969.01-5.941.134a11.792,11.792,0,0,0-5.085,1.155,10.882,10.882,0,0,0-2.957,2.647,6.021,6.021,0,0,0-.857,1.565,7.022,7.022,0,0,0-.575,2,18.479,18.479,0,0,0-.031,2.574c.036.918.013,1.845.088,2.76a5.8,5.8,0,0,0,.778,2.615,9.833,9.833,0,0,0,1.64,1.9,14.685,14.685,0,0,0,4.163,2.994,12.522,12.522,0,0,0,5.566.783q.4-.017.786-.062a9.708,9.708,0,0,1-1.53,7.412,18.519,18.519,0,0,1-6.178,5.474c-.643.387-.226,1.532.53,1.256q2.836-1.034,5.625-2.188,1.367-.567,2.723-1.16a11.041,11.041,0,0,0,2.341-1.217,8.728,8.728,0,0,0,1.628-1.835,7.168,7.168,0,0,1,1.705-1.662,9.131,9.131,0,0,0,1.8-1.445c.523-.609.774-1.417,1.4-1.937a5.189,5.189,0,0,0,1.684-1.845,7.88,7.88,0,0,0,.549-2.4A46.013,46.013,0,0,0,3769.2,4055.646Zm-1.461,4.123a22.944,22.944,0,0,1-.255,2.57,3.3,3.3,0,0,1-.844,1.889,8.289,8.289,0,0,0-1.661,1.625,5.481,5.481,0,0,1-1.256,1.616c-.564.448-1.191.812-1.748,1.271a8.943,8.943,0,0,0-1.438,1.646,5.531,5.531,0,0,1-1.515,1.541,18.875,18.875,0,0,1-2.306,1.082q-1.417.615-2.848,1.195a15.3,15.3,0,0,0,2.554-3.022,11.04,11.04,0,0,0,1.609-8.233,5.6,5.6,0,0,0,2.429-1.382,7.562,7.562,0,0,0,2.078-4.512,10.966,10.966,0,0,0-.034-2.8.711.711,0,0,0-.687-.687.691.691,0,0,0-.687.688c.388,2.942-.4,6.7-3.742,7.461a10.9,10.9,0,0,1-2.371.2,12.544,12.544,0,0,1-2.653-.213,9.5,9.5,0,0,1-4.174-2.224c-1.1-.936-2.462-2.033-2.885-3.47a9.755,9.755,0,0,1-.231-2.57c-.018-.788-.07-1.574-.073-2.362a6.634,6.634,0,0,1,.209-2.058,10.529,10.529,0,0,1,.622-1.559,5.414,5.414,0,0,1,1.031-1.258,12.155,12.155,0,0,1,1.279-1.169,7.823,7.823,0,0,1,4.107-1.313c1.807-.162,3.631-.209,5.444-.213a7.357,7.357,0,0,1,2.508.2c.492.178,1,.3,1.5.441a3.172,3.172,0,0,1,1.288.564c.535.466,1.065.941,1.564,1.446a12.494,12.494,0,0,1,2.329,3.261,12.28,12.28,0,0,1,.892,4.879A47.017,47.017,0,0,1,3767.741,4059.769Z" transform="translate(-3715.476 -4042.119)" fill="#707070"/>
    </g>
  </g>
</svg>
