<svg id="Group_3176" data-name="Group 3176" xmlns="http://www.w3.org/2000/svg" width="70.115" height="70.115" viewBox="0 0 70.115 70.115">
  <path id="Path_972" data-name="Path 972" d="M47.113,130.874a2.307,2.307,0,1,0-2.317-2.317A2.3,2.3,0,0,0,47.113,130.874Z" transform="translate(-30.98 -87.319)" fill="#0611ea"/>
  <path id="Path_973" data-name="Path 973" d="M81.142,125.638a2.059,2.059,0,0,0-2.183,1.685h4.27A1.9,1.9,0,0,0,81.142,125.638Z" transform="translate(-54.607 -86.889)" fill="#0611ea"/>
  <path id="Path_974" data-name="Path 974" d="M91.281,84.3a2.307,2.307,0,1,0-2.317-2.317A2.3,2.3,0,0,0,91.281,84.3Z" transform="translate(-61.526 -55.109)" fill="#0611ea"/>
  <path id="Path_975" data-name="Path 975" d="M75.047,158.371a2.328,2.328,0,1,0,2.259,2.336A2.235,2.235,0,0,0,75.047,158.371Z" transform="translate(-50.338 -109.527)" fill="#0611ea"/>
  <path id="Path_976" data-name="Path 976" d="M35.058,0h0A35.057,35.057,0,0,0,0,35.058H0A35.057,35.057,0,0,0,35.058,70.115h0A35.057,35.057,0,0,0,70.115,35.058h0A35.057,35.057,0,0,0,35.058,0ZM51.505,22.432l2.106,5.151,2.049-5.151h2.7L52.845,35.74H50.164l2.106-5.228-3.524-8.081Zm-5.733-4.768H48.28V31.355H45.772Zm-9.866,0h2.509V23.83A2.924,2.924,0,0,1,41.1,22.2c2.336,0,3.562,1.57,3.542,4.251v4.9H42.129V26.721c0-1.417-.842-2.049-1.7-2.049a1.9,1.9,0,0,0-2.011,2.107v4.576H35.906Zm-6.63,4.557a3.686,3.686,0,0,1,2.873,1.264V22.432h2.509v7.7c0,3.906-1.973,5.725-5.132,5.725a4.744,4.744,0,0,1-4.347-2.719l2.087-.9a2.553,2.553,0,0,0,2.259,1.378c1.608,0,2.623-.881,2.623-3.217v-.134a3.713,3.713,0,0,1-2.873,1.264,4.415,4.415,0,0,1-4.385-4.653A4.415,4.415,0,0,1,29.276,22.221ZM26.669,43.67a3.1,3.1,0,0,0,2.336-1l1.475,1.475A4.992,4.992,0,0,1,26.5,45.891a4.505,4.505,0,0,1-4.749-4.634A4.57,4.57,0,0,1,26.5,36.566,4.452,4.452,0,0,1,31.131,41.1c0,.249-.019.555-.038.957h-6.74A2.171,2.171,0,0,0,26.669,43.67ZM21.487,31.355V22.432H24v8.923Zm1.245-13.519a1.531,1.531,0,0,1,1.589,1.493,1.592,1.592,0,1,1-1.589-1.493Zm-10.926-.172h2.508V23.83A2.924,2.924,0,0,1,16.995,22.2c2.336,0,3.561,1.57,3.542,4.251v4.9H18.029V26.721c0-1.417-.842-2.049-1.7-2.049a1.9,1.9,0,0,0-2.011,2.107v4.576H11.805Zm3.849,18.921a3.532,3.532,0,0,1,2.873,1.283V32.028h2.508V45.719H18.527v-1.11a3.643,3.643,0,0,1-2.873,1.283,4.415,4.415,0,0,1-4.385-4.653A4.415,4.415,0,0,1,15.654,36.585Zm.5,19.249a4.669,4.669,0,1,1,0-9.325,4.578,4.578,0,0,1,3.773,1.915l-1.876,1.321a2.371,2.371,0,0,0-1.877-.9,2.327,2.327,0,1,0,0,4.653,2.371,2.371,0,0,0,1.877-.9l1.876,1.321A4.529,4.529,0,0,1,16.152,55.834Zm8.557,0a4.665,4.665,0,1,1,0-9.325,4.665,4.665,0,1,1,0,9.325Zm7-.184a1.542,1.542,0,1,1,0-3.083,1.544,1.544,0,1,1,0,3.083Zm3.607-9.758c-1.877,0-3.7-1.072-3.715-3.044h2.356a1.171,1.171,0,0,0,1.321,1.072c.728,0,1.283-.306,1.283-.823,0-.383-.306-.574-.976-.747L34.4,42.062c-2.3-.613-2.6-1.9-2.6-2.834,0-1.379,1.437-2.662,3.5-2.662,1.628,0,3.542.8,3.523,2.911H36.425a.968.968,0,0,0-1.091-.919c-.575,0-1.034.287-1.034.747,0,.421.383.632.881.766l1.475.383c2.145.575,2.413,1.915,2.413,2.643C39.067,44.973,37.152,45.891,35.314,45.891Zm7.158-.172H39.964V36.8h2.509ZM41.209,35.206a1.558,1.558,0,0,1-1.589-1.513,1.591,1.591,0,1,1,1.589,1.513Zm11.926,9.287c0,3.906-1.973,5.725-5.132,5.725A4.744,4.744,0,0,1,43.656,47.5l2.087-.9A2.553,2.553,0,0,0,48,47.979c1.608,0,2.623-.881,2.623-3.217v-.134a3.713,3.713,0,0,1-2.872,1.264,4.415,4.415,0,0,1-4.385-4.653,4.415,4.415,0,0,1,4.385-4.653,3.685,3.685,0,0,1,2.872,1.264V36.8h2.509Zm9.981,1.225H60.607V41.085c0-1.417-.843-2.049-1.7-2.049a1.9,1.9,0,0,0-2.011,2.106v4.576H54.383V36.8h2.509v1.494a2.871,2.871,0,0,1,2.681-1.723c2.336,0,3.562,1.57,3.543,4.251Z" fill="#0611ea"/>
  <path id="Path_977" data-name="Path 977" d="M151.19,126.259a2.284,2.284,0,0,0-2.317,2.3,2.317,2.317,0,1,0,2.317-2.3Z" transform="translate(-102.958 -87.319)" fill="#0611ea"/>
</svg>
