<svg xmlns="http://www.w3.org/2000/svg" width="251" height="52.785" viewBox="0 0 251 52.785">
  <g id="Group_3425" data-name="Group 3425" transform="translate(-123 -50)">
    <g id="Group_1156" data-name="Group 1156" transform="translate(20.582 -60.867)">
      <g id="Group_1156-2" data-name="Group 1156" transform="translate(102.549 131.27)">
        <path id="Path_315" data-name="Path 315" d="M109.1,132.077v8h-1.823V136.92h-2.637v3.159h-1.824v-8h1.824v3.206h2.637v-3.206Z" transform="translate(-102.814 -131.81)" fill="#fff"/>
        <path id="Path_316" data-name="Path 316" d="M125.088,132.373a1.03,1.03,0,0,1,1.068-1,1.01,1.01,0,0,1,1.045,1,1.024,1.024,0,0,1-1.045,1A1.045,1.045,0,0,1,125.088,132.373Zm.209,1.824h1.719v5.412H125.3Z" transform="translate(-117.727 -131.34)" fill="#fff"/>
        <path id="Path_317" data-name="Path 317" d="M139.614,139.656v4.7c0,2.3-1.208,3.449-3.171,3.449a2.9,2.9,0,0,1-2.706-1.731l1.417-.569a1.45,1.45,0,0,0,1.289.8c.894,0,1.464-.5,1.464-1.742v-.1a2.242,2.242,0,0,1-1.684.708,2.83,2.83,0,0,1,0-5.645,2.242,2.242,0,0,1,1.684.709v-.581Zm-1.777,2.694a1.249,1.249,0,1,0-1.243,1.219A1.24,1.24,0,0,0,137.837,142.35Z" transform="translate(-123.425 -136.799)" fill="#fff"/>
        <path id="Path_318" data-name="Path 318" d="M160.823,136.624v2.915H159.1v-2.718c0-.836-.511-1.15-.941-1.15a1.007,1.007,0,0,0-1.045,1.15v2.718H155.4V131.27h1.719v3.716a1.669,1.669,0,0,1,1.557-1C160.115,133.987,160.823,134.963,160.823,136.624Z" transform="translate(-138.021 -131.27)" fill="#fff"/>
        <path id="Path_319" data-name="Path 319" d="M175.2,131.27h1.719v8.269H175.2Z" transform="translate(-151.276 -131.27)" fill="#fff"/>
        <path id="Path_320" data-name="Path 320" d="M187.824,139.915,184.48,148h-1.835l1.335-3.31-2.137-4.773h1.9l1.127,2.8,1.1-2.8Z" transform="translate(-155.726 -137.058)" fill="#fff"/>
      </g>
      <g id="Group_1157" data-name="Group 1157" transform="translate(102.549 140.828)">
        <path id="Path_321" data-name="Path 321" d="M108.807,163.646a2.516,2.516,0,0,1-2.695,2.636h-1.475V169h-1.824v-8h3.3A2.53,2.53,0,0,1,108.807,163.646Zm-1.835,0a.94.94,0,0,0-.929-1.057h-1.405v2.1h1.394A.933.933,0,0,0,106.972,163.646Z" transform="translate(-102.814 -160.731)" fill="#fff"/>
        <path id="Path_322" data-name="Path 322" d="M127.274,168.578v5.412h-1.708v-.615a2.195,2.195,0,0,1-1.684.72,2.83,2.83,0,0,1,0-5.644,2.193,2.193,0,0,1,1.684.72v-.593Zm-1.777,2.694a1.249,1.249,0,1,0-1.243,1.219A1.239,1.239,0,0,0,125.5,171.272Z" transform="translate(-115.162 -165.721)" fill="#fff"/>
        <path id="Path_323" data-name="Path 323" d="M141.377,171.237a2.848,2.848,0,0,1,2.985-2.823,2.79,2.79,0,0,1,2.369,1.278l-1.324.836a1.315,1.315,0,0,0-1.034-.523,1.237,1.237,0,1,0,0,2.474,1.316,1.316,0,0,0,1.034-.522l1.324.836a2.79,2.79,0,0,1-2.369,1.278A2.857,2.857,0,0,1,141.377,171.237Z" transform="translate(-128.633 -165.697)" fill="#fff"/>
        <path id="Path_324" data-name="Path 324" d="M162.566,168.46l-1.673-2.207v2.207h-1.719v-8.269h1.719v4.379l1.162-1.522h2.16l-2.044,2.393,2.485,3.02Z" transform="translate(-140.549 -160.191)" fill="#fff"/>
        <path id="Path_325" data-name="Path 325" d="M180.91,168.578v5.412H179.2v-.615a2.2,2.2,0,0,1-1.684.72,2.83,2.83,0,0,1,0-5.644,2.194,2.194,0,0,1,1.684.72v-.593Zm-1.777,2.694a1.249,1.249,0,1,0-1.243,1.219A1.239,1.239,0,0,0,179.133,171.272Z" transform="translate(-151.074 -165.721)" fill="#fff"/>
        <path id="Path_326" data-name="Path 326" d="M201.211,168.578v4.7c0,2.3-1.208,3.449-3.171,3.449A2.9,2.9,0,0,1,195.334,175l1.417-.569a1.45,1.45,0,0,0,1.289.8c.895,0,1.464-.5,1.464-1.742v-.1a2.241,2.241,0,0,1-1.684.709,2.83,2.83,0,0,1,0-5.644,2.241,2.241,0,0,1,1.684.708v-.581Zm-1.777,2.694a1.249,1.249,0,1,0-1.243,1.219A1.239,1.239,0,0,0,199.434,171.272Z" transform="translate(-164.666 -165.721)" fill="#fff"/>
        <path id="Path_327" data-name="Path 327" d="M215.631,161.294a1.03,1.03,0,0,1,1.068-1,1.01,1.01,0,0,1,1.045,1,1.025,1.025,0,0,1-1.045,1A1.045,1.045,0,0,1,215.631,161.294Zm.209,1.823h1.719v5.412H215.84Z" transform="translate(-178.348 -160.261)" fill="#fff"/>
        <path id="Path_328" data-name="Path 328" d="M230.478,171.051v2.915h-1.719v-2.718c0-.836-.511-1.149-.941-1.149a1.007,1.007,0,0,0-1.045,1.149v2.718h-1.719v-5.412h1.719v.964a1.638,1.638,0,0,1,1.556-1.1C229.77,168.414,230.478,169.39,230.478,171.051Z" transform="translate(-184.657 -165.697)" fill="#fff"/>
        <path id="Path_329" data-name="Path 329" d="M249.954,168.578v4.7c0,2.3-1.208,3.449-3.171,3.449A2.9,2.9,0,0,1,244.076,175l1.417-.569a1.449,1.449,0,0,0,1.289.8c.894,0,1.463-.5,1.463-1.742v-.1a2.241,2.241,0,0,1-1.684.709,2.83,2.83,0,0,1,0-5.644,2.241,2.241,0,0,1,1.684.708v-.581Zm-1.777,2.694a1.249,1.249,0,1,0-1.243,1.219A1.239,1.239,0,0,0,248.176,171.272Z" transform="translate(-197.3 -165.721)" fill="#fff"/>
      </g>
      <g id="Group_1158" data-name="Group 1158" transform="translate(102.418 150.058)">
        <g id="Group_43" data-name="Group 43" transform="translate(15.45 2.555)">
          <path id="Path_34" data-name="Path 34" d="M149.581,197.247v-1.159h-.413v-.235h1.106v.235h-.412v1.159Z" transform="translate(-149.169 -195.853)" fill="#fff"/>
          <path id="Path_35" data-name="Path 35" d="M153.116,197.254v-1.392h.421l.251.95.251-.949h.421v1.392h-.26v-1.1l-.278,1.1h-.27l-.275-1.1v1.1Z" transform="translate(-151.812 -195.859)" fill="#fff"/>
        </g>
        <path id="Path_330" data-name="Path 330" d="M102.418,192.211a4.071,4.071,0,0,1,7.433-2.311l-1.417.987a2.141,2.141,0,0,0-1.87-1.034,2.376,2.376,0,0,0-.012,4.751,2.132,2.132,0,0,0,1.881-1.045l1.417,1a4.076,4.076,0,0,1-7.433-2.346Z" transform="translate(-102.418 -188.123)" fill="#fff"/>
        <path id="Path_331" data-name="Path 331" d="M126.014,198.689a2.947,2.947,0,1,1,2.938,2.823A2.838,2.838,0,0,1,126.014,198.689Zm4.135,0a1.2,1.2,0,1,0-1.2,1.231A1.185,1.185,0,0,0,130.149,198.689Z" transform="translate(-118.216 -193.3)" fill="#fff"/>
        <path id="Path_332" data-name="Path 332" d="M145.042,207.8a1.019,1.019,0,0,1,1.045-1.011,1.022,1.022,0,1,1-1.045,1.011Z" transform="translate(-130.956 -200.618)" fill="#fff"/>
      </g>
    </g>
    <text id="Branding_websites_and_package_design_to_help_your_business_grow." data-name="Branding, websites, and package design
to help your business grow." transform="translate(192 73)" fill="#231f20" font-size="10" font-family="SegoeUI, Segoe UI" letter-spacing="0.016em"><tspan x="0" y="0">Branding, websites, and package design</tspan><tspan x="0" y="13">to help your business grow.</tspan></text>
    <g id="Group_1775" data-name="Group 1775" transform="translate(123 50)">
      <path id="Path_972" data-name="Path 972" d="M46.54,129.733a1.737,1.737,0,1,0-1.744-1.744A1.732,1.732,0,0,0,46.54,129.733Z" transform="translate(-34.395 -96.943)" fill="#0611ea"/>
      <path id="Path_973" data-name="Path 973" d="M80.6,125.638a1.55,1.55,0,0,0-1.643,1.269h3.215A1.427,1.427,0,0,0,80.6,125.638Z" transform="translate(-60.626 -96.466)" fill="#0611ea"/>
      <path id="Path_974" data-name="Path 974" d="M90.708,83.16a1.737,1.737,0,1,0-1.744-1.744A1.732,1.732,0,0,0,90.708,83.16Z" transform="translate(-68.308 -61.184)" fill="#0611ea"/>
      <path id="Path_975" data-name="Path 975" d="M74.488,158.371a1.752,1.752,0,1,0,1.7,1.759A1.683,1.683,0,0,0,74.488,158.371Z" transform="translate(-55.887 -121.599)" fill="#0611ea"/>
      <path id="Path_976" data-name="Path 976" d="M26.393,0h0A26.393,26.393,0,0,0,0,26.393H0A26.393,26.393,0,0,0,26.393,52.785h0A26.392,26.392,0,0,0,52.785,26.393h0A26.484,26.484,0,0,0,42.015,5.118,26.071,26.071,0,0,0,26.393,0ZM38.775,16.888l1.586,3.878L41.9,16.888h2.033L39.784,26.907H37.766l1.586-3.936L36.7,16.888ZM34.459,13.3h1.889V23.605H34.459Zm-7.427,0H28.92V17.94a2.2,2.2,0,0,1,2.018-1.225c1.759,0,2.681,1.182,2.667,3.2v3.69H31.717V20.117c0-1.066-.634-1.543-1.283-1.543A1.434,1.434,0,0,0,28.92,20.16v3.445H27.031ZM22.04,16.729a2.775,2.775,0,0,1,2.163.952v-.793h1.889v5.8c0,2.941-1.485,4.31-3.864,4.31a3.571,3.571,0,0,1-3.272-2.047l1.571-.678a1.922,1.922,0,0,0,1.7,1.038c1.211,0,1.975-.663,1.975-2.422v-.1a2.8,2.8,0,0,1-2.163.952,3.323,3.323,0,0,1-3.3-3.5A3.324,3.324,0,0,1,22.04,16.729ZM20.078,32.877a2.336,2.336,0,0,0,1.759-.75l1.11,1.11a3.758,3.758,0,0,1-3,1.312,3.392,3.392,0,0,1-3.575-3.488,3.441,3.441,0,0,1,3.575-3.532,3.352,3.352,0,0,1,3.489,3.417c0,.187-.014.418-.029.721H18.333A1.635,1.635,0,0,0,20.078,32.877Zm-3.9-9.271V16.888h1.889v6.718Zm.937-10.178a1.152,1.152,0,0,1,1.2,1.124,1.2,1.2,0,1,1-1.2-1.124ZM8.887,13.3h1.888V17.94a2.2,2.2,0,0,1,2.018-1.225c1.759,0,2.681,1.182,2.667,3.2v3.69H13.573V20.117c0-1.066-.634-1.543-1.283-1.543a1.434,1.434,0,0,0-1.514,1.586v3.445H8.887Zm2.9,14.245a2.659,2.659,0,0,1,2.163.966v-4.4h1.888V34.419H13.948v-.836a2.742,2.742,0,0,1-2.163.966,3.324,3.324,0,0,1-3.3-3.5A3.324,3.324,0,0,1,11.785,27.542Zm.375,14.491a3.515,3.515,0,1,1,0-7.02A3.446,3.446,0,0,1,15,36.455l-1.413.995a1.785,1.785,0,0,0-1.413-.678,1.752,1.752,0,1,0,0,3.5,1.785,1.785,0,0,0,1.413-.678L15,40.592A3.41,3.41,0,0,1,12.16,42.034Zm6.442,0a3.512,3.512,0,1,1,0-7.02,3.512,3.512,0,1,1,0,7.02ZM23.87,41.9a1.161,1.161,0,1,1,0-2.321,1.162,1.162,0,1,1,0,2.321Zm2.716-7.346c-1.413,0-2.782-.807-2.8-2.292h1.773a.882.882,0,0,0,.994.807c.548,0,.966-.231.966-.62,0-.289-.231-.432-.735-.562l-.894-.216c-1.73-.461-1.961-1.427-1.961-2.134,0-1.038,1.082-2,2.638-2,1.225,0,2.667.605,2.652,2.191h-1.8a.729.729,0,0,0-.822-.692c-.433,0-.779.216-.779.562,0,.317.288.476.663.577l1.11.288c1.615.433,1.816,1.442,1.816,1.99C29.411,33.857,27.97,34.549,26.586,34.549Zm5.389-.13H30.086V27.7h1.889ZM31.023,26.5a1.173,1.173,0,0,1-1.2-1.139,1.2,1.2,0,1,1,1.2,1.139ZM40,33.5c0,2.941-1.485,4.31-3.864,4.31a3.571,3.571,0,0,1-3.272-2.047l1.571-.678a1.922,1.922,0,0,0,1.7,1.038c1.211,0,1.975-.663,1.975-2.422v-.1a2.8,2.8,0,0,1-2.162.952,3.324,3.324,0,0,1-3.3-3.5,3.324,3.324,0,0,1,3.3-3.5,2.774,2.774,0,0,1,2.162.952V27.7H40Zm7.514.922H45.627V30.93c0-1.066-.634-1.542-1.283-1.542a1.433,1.433,0,0,0-1.514,1.586v3.445H40.942V27.7H42.83v1.124a2.161,2.161,0,0,1,2.018-1.3c1.759,0,2.681,1.182,2.667,3.2Z" fill="#0611ea"/>
      <path id="Path_977" data-name="Path 977" d="M150.617,126.259a1.72,1.72,0,0,0-1.744,1.73,1.744,1.744,0,1,0,1.744-1.73Z" transform="translate(-114.306 -96.943)" fill="#0611ea"/>
    </g>
  </g>
</svg>
