<svg xmlns="http://www.w3.org/2000/svg" width="40.095" height="37.965" viewBox="0 0 40.095 37.965">
  <g id="Group_3516" data-name="Group 3516" transform="translate(0 0)">
    <g id="Group_3507" data-name="Group 3507">
      <path id="Path_25525" data-name="Path 25525" d="M6158.386,1097.97a.436.436,0,0,1-.436-.415q-.014-.292-.014-.586a12.934,12.934,0,0,1,.879-4.966c2.827-6.8,9.163-7.424,14.753-7.974a31.358,31.358,0,0,0,6.351-1.043c4.084-1.316,8.773-3.894,8.773-12.222,0-.271,0-.541-.006-.811s-.006-.541-.006-.811v-.224a.437.437,0,0,1,.406-.434c1.089-.075,2.162-.163,3.259-.268l-4.639-7.024-5.416,6.906,3.335.07a.435.435,0,0,1,.425.47c-.024.328-.039.658-.054.99a10.613,10.613,0,0,1-.514,3.335c-1.6,4.315-5.763,5.979-9.208,6.947a24.742,24.742,0,0,1-3.16.517c-4.181.528-10.5,1.324-15.215,5.715-2.408,2.243-3.579,5.387-3.579,9.611a13.36,13.36,0,0,0,.07,1.365.436.436,0,1,1-.867.09,14.133,14.133,0,0,1-.075-1.454c0-4.48,1.262-7.833,3.857-10.25,4.922-4.583,11.407-5.4,15.7-5.942a24.474,24.474,0,0,0,3.034-.492c4.887-1.373,7.467-3.29,8.626-6.411a9.786,9.786,0,0,0,.46-3.07c.009-.187.017-.374.027-.559l-3.753-.079a.437.437,0,0,1-.334-.705l6.329-8.069a.448.448,0,0,1,.36-.167.437.437,0,0,1,.347.2l5.371,8.131a.436.436,0,0,1-.32.674c-1.222.124-2.4.227-3.6.313,0,.205,0,.412.005.618,0,.273.006.546.006.82,0,8.892-5.011,11.646-9.377,13.052a31.952,31.952,0,0,1-6.533,1.08c-5.607.553-11.406,1.124-14.033,7.441a12.085,12.085,0,0,0-.812,4.631q0,.273.013.544a.436.436,0,0,1-.414.457Z" transform="translate(-6153.449 -1060.012)" fill="#707070"/>
    </g>
    <g id="Group_3508" data-name="Group 3508" transform="translate(6.279 1.418)">
      <path id="Path_25526" data-name="Path 25526" d="M6174.959,1076.06l-.159,0a6.3,6.3,0,0,1,0-12.594,5.623,5.623,0,0,1,.959.055,6.539,6.539,0,0,1,5.43,4.095,6.212,6.212,0,0,1,.3,2v.121a6.238,6.238,0,0,1-1.938,4.42A6.63,6.63,0,0,1,6174.959,1076.06Zm-.011-11.726-.124,0a5.429,5.429,0,0,0,0,10.85,5.745,5.745,0,0,0,4.119-1.66,5.363,5.363,0,0,0,1.675-3.791v-.117a5.447,5.447,0,0,0-.25-1.715,5.674,5.674,0,0,0-4.728-3.52A4.952,4.952,0,0,0,6174.949,1064.335Z" transform="translate(-6168.727 -1063.462)" fill="#707070"/>
    </g>
    <g id="Group_3509" data-name="Group 3509" transform="translate(8.841 3.945)">
      <path id="Path_25527" data-name="Path 25527" d="M6178.7,1077.156l-.095,0a3.773,3.773,0,0,1,0-7.542,3.51,3.51,0,0,1,.577.033,3.908,3.908,0,0,1,3.24,2.454,3.68,3.68,0,0,1,.18,1.195v.073a3.736,3.736,0,0,1-1.159,2.647A3.962,3.962,0,0,1,6178.7,1077.156Zm0-6.672h-.066a2.9,2.9,0,0,0,0,5.8,3.087,3.087,0,0,0,2.208-.891,2.863,2.863,0,0,0,.9-2.022v-.064a2.887,2.887,0,0,0-.131-.918,3.044,3.044,0,0,0-2.539-1.879A2.66,2.66,0,0,0,6178.691,1070.484Z" transform="translate(-6174.963 -1069.611)" fill="#707070"/>
    </g>
    <g id="Group_3510" data-name="Group 3510" transform="translate(2.368 6.755)">
      <path id="Path_25528" data-name="Path 25528" d="M6165.809,1086.513a.433.433,0,0,1-.052,0c-4.3-.512-6.545-4.823-6.545-8.817,0-.283.012-.567.034-.843a.436.436,0,0,1,.87.07c-.021.253-.031.513-.031.773,0,3.609,1.984,7.5,5.776,7.95a.436.436,0,0,1-.051.869Z" transform="translate(-6159.212 -1076.449)" fill="#707070"/>
    </g>
    <g id="Group_3511" data-name="Group 3511" transform="translate(1.015 6.242)">
      <path id="Path_25529" data-name="Path 25529" d="M6156.356,1077.775a.436.436,0,0,1-.331-.72c.442-.516.912-1.044,1.523-1.712a.438.438,0,0,1,.311-.142.457.457,0,0,1,.317.126c.091.09.183.185.275.281a2.955,2.955,0,0,0,.942.768.436.436,0,0,1-.25.835,3.206,3.206,0,0,1-1.263-.938c-.458.505-.835.932-1.194,1.35A.436.436,0,0,1,6156.356,1077.775Z" transform="translate(-6155.92 -1075.201)" fill="#707070"/>
    </g>
    <g id="Group_3512" data-name="Group 3512" transform="translate(26.753 25.69)">
      <path id="Path_25530" data-name="Path 25530" d="M6221.76,1134.8a.436.436,0,0,1-.3-.117l-2.776-2.582a.436.436,0,0,1-.009-.63l2.95-2.9-2.757-2.862a.436.436,0,0,1-.014-.591c.435-.5.834-.917,1.22-1.325.363-.384.707-.747,1.028-1.118a.438.438,0,0,1,.307-.15.442.442,0,0,1,.321.117l3.041,2.834,2.678-2.634a.418.418,0,0,1,.313-.125.436.436,0,0,1,.309.137l2.579,2.732a.437.437,0,0,1-.011.609l-2.472,2.445,2.29,2.133a.436.436,0,0,1,.139.322.43.43,0,0,1-.143.32c-.3.274-.606.543-.914.812-.664.582-1.35,1.184-1.982,1.847a.435.435,0,0,1-.629,0l-2.077-2.156-2.786,2.755A.435.435,0,0,1,6221.76,1134.8Zm-2.146-3.027,2.136,1.986,2.8-2.772a.436.436,0,0,1,.307-.126.441.441,0,0,1,.314.134l2.072,2.151c.563-.562,1.15-1.076,1.72-1.576q.276-.242.549-.484l-2.273-2.118a.437.437,0,0,1-.009-.63l2.493-2.465-1.981-2.1-2.657,2.614a.436.436,0,0,1-.6.008l-3.02-2.813c-.243.268-.494.533-.755.809-.3.317-.607.642-.931,1l2.776,2.881a.437.437,0,0,1-.008.614Z" transform="translate(-6218.547 -1122.522)" fill="#707070"/>
    </g>
    <g id="Group_3513" data-name="Group 3513" transform="translate(11.186 29.441)">
      <path id="Path_25531" data-name="Path 25531" d="M6183.134,1136.588h-.054a2.432,2.432,0,0,1-2.413-2.509,2.466,2.466,0,0,1,2.328-2.427,2.39,2.39,0,0,1,.346.012,2.538,2.538,0,0,1,2.305,1.958,1.9,1.9,0,0,1,.036.3,2.593,2.593,0,0,1-2.548,2.671Zm-.045-4.067h-.057a1.6,1.6,0,0,0-1.492,1.563,1.56,1.56,0,0,0,1.561,1.63,1.718,1.718,0,0,0,1.71-1.759.971.971,0,0,0-.018-.158,1.68,1.68,0,0,0-1.546-1.267A1.347,1.347,0,0,0,6183.088,1132.521Z" transform="translate(-6180.667 -1131.649)" fill="#707070"/>
    </g>
    <g id="Group_3514" data-name="Group 3514" transform="translate(15.803 25.79)">
      <path id="Path_25532" data-name="Path 25532" d="M6192.338,1128.734a.436.436,0,0,1-.1-.861,9.6,9.6,0,0,0,1.067-.314.436.436,0,0,1,.294.821,10.538,10.538,0,0,1-1.164.343A.433.433,0,0,1,6192.338,1128.734Zm3.442-1.513a.436.436,0,0,1-.245-.8,10.671,10.671,0,0,0,.89-.674.436.436,0,1,1,.563.666,11.481,11.481,0,0,1-.963.731A.433.433,0,0,1,6195.78,1127.221Zm2.705-2.612a.436.436,0,0,1-.352-.694,10.907,10.907,0,0,0,.613-.934.436.436,0,0,1,.753.441,11.763,11.763,0,0,1-.663,1.009A.435.435,0,0,1,6198.485,1124.609Z" transform="translate(-6191.902 -1122.765)" fill="#707070"/>
    </g>
    <g id="Group_3515" data-name="Group 3515" transform="translate(19.317 11.343)">
      <path id="Path_25533" data-name="Path 25533" d="M6205.471,1095.68a.436.436,0,0,1-.429-.36,10.063,10.063,0,0,0-.256-1.083.436.436,0,0,1,.836-.248,10.718,10.718,0,0,1,.279,1.178.435.435,0,0,1-.43.512Zm-1.315-3.52a.436.436,0,0,1-.376-.214c-.187-.315-.395-.629-.617-.933a.436.436,0,1,1,.7-.517c.24.328.464.666.666,1.006a.436.436,0,0,1-.375.658Zm-2.388-2.915a.434.434,0,0,1-.3-.117c-.271-.251-.558-.5-.856-.741a.436.436,0,0,1,.547-.679c.314.254.618.516.9.781a.436.436,0,0,1-.3.755Z" transform="translate(-6200.452 -1087.612)" fill="#707070"/>
    </g>
  </g>
</svg>
