<svg id="Group_3544" data-name="Group 3544" xmlns="http://www.w3.org/2000/svg" width="42.201" height="35.701" viewBox="0 0 42.201 35.701">
  <g id="Group_3487" data-name="Group 3487" transform="translate(8.042 8.184)">
    <path id="Path_25498" data-name="Path 25498" d="M5968.518,972.722a.955.955,0,0,0-1.52.018,7.706,7.706,0,0,0-1.321-1.66.272.272,0,0,0-.452.263c.79,2.859,1.734,5.88-.853,8.1a.986.986,0,0,0-.162,1.315,5.564,5.564,0,0,1-1.809.752c-1.858.425-4.871.344-6.193-1.24-.237-.284-.716.021-.611.356.566,1.814,2.285,2.684,4.115,2.972-.243.049-.484.1-.721.142-.3.058-.194.47.068.5,3.555.4,7.194.266,9.743-2.63C5971.157,978.928,5970.773,975.3,5968.518,972.722Z" transform="translate(-5946.788 -969.327)" fill="#e0dfe6"/>
    <path id="Path_25499" data-name="Path 25499" d="M5967.128,978.437c-.4-3.718-.666-8-2.169-11.451a.136.136,0,0,0-.247.032,30.531,30.531,0,0,0-.333,8.972,37.982,37.982,0,0,0-.884,5.485c-.081.863-.157,1.756-.2,2.656l-.429.048a1.1,1.1,0,0,0-1.053-.8c-4.37-.131-8.737-.332-13.106-.441-4.216-.105-8.455-.319-12.611.5a.24.24,0,0,0,0,.46c4.143.887,8.391.839,12.611,1.017q2.651.112,5.3.249c-1.476.147-2.953.28-4.431.384-2.253.159-4.495.173-6.752.136-2.239-.036-4.715-.4-6.9.189a.354.354,0,0,0-.083.639c1.933.938,4.3,1.062,6.415,1.271.676.067,1.355.118,2.034.155-.805-.006-1.611-.012-2.417-.014a27.646,27.646,0,0,0-7.338.5.5.5,0,0,0,0,.951,25.431,25.431,0,0,0,7.05.892c1.125.052,2.249.094,3.374.134a22.63,22.63,0,0,0-5.958,2.682.249.249,0,0,0,.125.459c3.638-.05,7.394-1.239,10.959-1.908a1.08,1.08,0,0,0,.923-1.04c4.548.129,9.1.163,13.649.189a1.608,1.608,0,0,0,.2-.013,1.3,1.3,0,0,0,1.8-.89A32.491,32.491,0,0,0,5967.128,978.437Zm-17.758,9.521h-.21l.14-.006c4.67-.219,9.34-.695,14-1.052.025.364.057.726.105,1.082C5958.729,987.991,5954.049,987.951,5949.37,987.957Z" transform="translate(-5934.182 -966.919)" fill="#e0dfe6"/>
  </g>
  <g id="Group_3503" data-name="Group 3503" transform="translate(0 0)">
    <g id="Group_3488" data-name="Group 3488" transform="translate(4.293 4.232)">
      <path id="Path_25500" data-name="Path 25500" d="M5958.239,978.733h-.027c-4.245-.264-15.926-.9-32.666-1.084a.436.436,0,0,1-.431-.424c-.038-1.408-.057-2.857-.057-4.306,0-4.708.2-9.683.609-15.211a.436.436,0,0,1,.468-.4c2.806.216,5.674.249,8.447.28,3.188.036,6.483.074,9.765.386,2.438.232,4.9.486,7.28.731,2.278.235,4.632.477,6.952.7a.436.436,0,0,1,.395.448l-.062,1.975c-.133,4.238-.27,8.62-.27,12.927,0,1.222.011,2.412.033,3.538a.436.436,0,0,1-.436.445Zm-32.263-1.952c15.954.184,27.256.774,31.818,1.051-.017-.99-.025-2.024-.025-3.082,0-4.32.138-8.71.271-12.954l.048-1.566c-2.19-.212-4.405-.44-6.551-.66-2.379-.245-4.839-.5-7.273-.73-3.245-.309-6.522-.346-9.692-.382-2.645-.03-5.374-.061-8.067-.25-.387,5.332-.575,10.149-.575,14.711C5925.93,974.216,5925.946,975.514,5925.977,976.782Z" transform="translate(-5925.058 -957.304)" fill="#707070"/>
    </g>
    <g id="Group_3489" data-name="Group 3489" transform="translate(5.054 25.998)">
      <path id="Path_25501" data-name="Path 25501" d="M5959.2,1011.988q-2-.02-3.987-.036c-9.141-.08-18.593-.163-27.9-.814a.436.436,0,1,1,.061-.87c9.277.649,18.715.732,27.843.812l3.983.037a.436.436,0,0,1,0,.872Z" transform="translate(-5926.911 -1010.267)" fill="#707070"/>
    </g>
    <g id="Group_3490" data-name="Group 3490" transform="translate(6.116 28.469)">
      <path id="Path_25502" data-name="Path 25502" d="M5945.535,1017.721c-5.272,0-10.533-.193-15.636-.573a.436.436,0,1,1,.064-.87c5.081.379,10.32.57,15.571.57,4.738,0,9.588-.156,14.415-.464a.436.436,0,0,1,.056.871C5955.16,1017.564,5950.291,1017.721,5945.535,1017.721Z" transform="translate(-5929.495 -1016.278)" fill="#707070"/>
    </g>
    <g id="Group_3491" data-name="Group 3491" transform="translate(0 11.921)">
      <path id="Path_25503" data-name="Path 25503" d="M5917.343,984.09a.437.437,0,0,1-.4-.271c-.625-1.528-1.35-3.1-2.278-4.93a.435.435,0,0,1,.183-.582c.948-.505,1.923-.987,2.866-1.452.533-.263,1.065-.526,1.594-.794a.436.436,0,0,1,.394.778c-.532.269-1.066.533-1.6.8-.812.4-1.646.813-2.464,1.241.849,1.693,1.524,3.167,2.115,4.611a.437.437,0,0,1-.4.6Z" transform="translate(-5914.613 -976.013)" fill="#707070"/>
    </g>
    <g id="Group_3492" data-name="Group 3492" transform="translate(8.027 30.273)">
      <path id="Path_25504" data-name="Path 25504" d="M5936.99,1026.1a.429.429,0,0,1-.112-.015.438.438,0,0,1-.266-.2l-.221-.383a37.481,37.481,0,0,1-2.211-4.222.436.436,0,1,1,.8-.339,36.387,36.387,0,0,0,2.162,4.123c1.3-.715,2.667-1.311,3.99-1.89a41.217,41.217,0,0,0,4.374-2.122.436.436,0,1,1,.441.752,41.9,41.9,0,0,1-4.465,2.169,41.1,41.1,0,0,0-4.275,2.069A.436.436,0,0,1,5936.99,1026.1Z" transform="translate(-5934.146 -1020.668)" fill="#707070"/>
    </g>
    <g id="Group_3493" data-name="Group 3493" transform="translate(37.145 12.588)">
      <path id="Path_25505" data-name="Path 25505" d="M6006.575,987.805a.436.436,0,0,1-.2-.822c.719-.379,1.439-.792,2.135-1.193l.506-.291a79.037,79.037,0,0,1-3.975-7.244.436.436,0,0,1,.791-.369,81.47,81.47,0,0,0,4.162,7.545.436.436,0,0,1-.158.6c-.3.168-.593.338-.891.509-.7.4-1.429.822-2.164,1.208A.435.435,0,0,1,6006.575,987.805Z" transform="translate(-6004.997 -977.635)" fill="#707070"/>
    </g>
    <g id="Group_3494" data-name="Group 3494" transform="translate(20.868)">
      <path id="Path_25506" data-name="Path 25506" d="M5965.828,952.6a.436.436,0,0,1-.184-.832c2.769-1.284,5.725-2.739,9.583-4.717a.436.436,0,0,1,.563.148c.51.775.964,1.6,1.4,2.4.3.546.586,1.062.888,1.565a.436.436,0,1,1-.748.449c-.31-.517-.612-1.064-.9-1.592-.369-.669-.748-1.357-1.158-2.009-3.7,1.892-6.567,3.3-9.263,4.552A.43.43,0,0,1,5965.828,952.6Z" transform="translate(-5965.392 -947.005)" fill="#707070"/>
    </g>
    <g id="Group_3495" data-name="Group 3495" transform="translate(14.231 7.499)">
      <path id="Path_25507" data-name="Path 25507" d="M5957.437,980.839c-4.825,0-8.195-3.28-8.195-7.975a7.371,7.371,0,0,1,5.625-7.5,5.73,5.73,0,0,1,1.177-.11c5.654,0,8.705,3.928,8.705,7.624C5964.75,977.193,5961.4,980.839,5957.437,980.839Zm-1.392-14.715a4.9,4.9,0,0,0-1,.091,6.508,6.508,0,0,0-4.931,6.649c0,4.249,2.942,7.1,7.322,7.1,3.852,0,6.441-3.667,6.441-7.091C5963.878,969.6,5961.132,966.124,5956.045,966.124Z" transform="translate(-5949.242 -965.252)" fill="#707070"/>
    </g>
    <g id="Group_3496" data-name="Group 3496" transform="translate(7.709 16.577)">
      <path id="Path_25508" data-name="Path 25508" d="M5936.257,992.1c-.46,0-.932-.034-1.387-.066-.355-.025-.722-.051-1.075-.061a.436.436,0,0,1-.424-.436v-3.758a.436.436,0,1,1,.872,0v3.339c.231.013.463.029.689.045.461.033.9.064,1.325.064.19,0,.363-.006.526-.019a.436.436,0,1,1,.067.87C5936.664,992.092,5936.47,992.1,5936.257,992.1Z" transform="translate(-5933.371 -987.342)" fill="#707070"/>
    </g>
    <g id="Group_3497" data-name="Group 3497" transform="translate(7.602 7.269)">
      <path id="Path_25509" data-name="Path 25509" d="M5933.548,969.033a.436.436,0,0,1-.437-.436v-3.469a.437.437,0,0,1,.459-.435q.3.015.591.034c.579.034,1.126.067,1.69.067.3,0,.581-.009.85-.029a.436.436,0,0,1,.063.87c-.291.021-.589.031-.913.031-.59,0-1.176-.034-1.742-.068l-.126-.007V968.6A.436.436,0,0,1,5933.548,969.033Z" transform="translate(-5933.111 -964.693)" fill="#707070"/>
    </g>
    <g id="Group_3498" data-name="Group 3498" transform="translate(30.961 8.508)">
      <path id="Path_25510" data-name="Path 25510" d="M5993.783,971.87h-.034a.436.436,0,0,1-.4-.468c.021-.27.03-.553.03-.891,0-.269-.006-.535-.012-.8s-.013-.542-.013-.813v-.109a20.987,20.987,0,0,1-3.035-.214.436.436,0,1,1,.132-.862,21.751,21.751,0,0,0,3.35.206.436.436,0,0,1,.434.454c-.007.176-.01.35-.01.524,0,.265.006.529.012.793s.013.545.013.821c0,.361-.011.665-.034.958A.435.435,0,0,1,5993.783,971.87Z" transform="translate(-5989.949 -967.707)" fill="#707070"/>
    </g>
    <g id="Group_3499" data-name="Group 3499" transform="translate(30.642 18.807)">
      <path id="Path_25511" data-name="Path 25511" d="M5989.609,996.718a.436.436,0,0,1-.065-.867,7.148,7.148,0,0,1,1.1-.074c.3,0,.6.012.9.024.375.015.77.03,1.112.02.014-.365.037-.732.06-1.089.034-.533.066-1.036.066-1.528a.436.436,0,0,1,.873,0c0,.521-.035,1.061-.068,1.584-.031.48-.062.976-.067,1.451a.436.436,0,0,1-.4.43,13.78,13.78,0,0,1-1.611,0c-.289-.012-.577-.023-.865-.023a6.341,6.341,0,0,0-.969.064A.413.413,0,0,1,5989.609,996.718Z" transform="translate(-5989.174 -992.767)" fill="#707070"/>
    </g>
    <g id="Group_3500" data-name="Group 3500" transform="translate(18.4 11.744)">
      <path id="Path_25512" data-name="Path 25512" d="M5962.831,983.7a6.952,6.952,0,0,1-3.221-.862.436.436,0,1,1,.424-.762,6.043,6.043,0,0,0,2.8.752c1.625,0,2.353-.935,2.353-1.862,0-.645-.585-.781-1.92-.938-1.28-.15-3.033-.356-3.033-2.2,0-.9.742-2.249,2.784-2.249a6.035,6.035,0,0,1,2.093.4.436.436,0,0,1-.313.814,5.166,5.166,0,0,0-1.779-.345c-1.512,0-1.911.9-1.911,1.377,0,.959.725,1.149,2.262,1.329,1.2.141,2.691.316,2.691,1.8C5966.056,982.281,5965.047,983.7,5962.831,983.7Z" transform="translate(-5959.385 -975.582)" fill="#707070"/>
    </g>
    <g id="Group_3501" data-name="Group 3501" transform="translate(21.617 9.676)">
      <path id="Path_25513" data-name="Path 25513" d="M5967.65,973.49a.436.436,0,0,1-.436-.436v-2.068a.436.436,0,0,1,.872,0v2.068A.436.436,0,0,1,5967.65,973.49Z" transform="translate(-5967.214 -970.549)" fill="#707070"/>
    </g>
    <g id="Group_3502" data-name="Group 3502" transform="translate(21.299 18.987)">
      <path id="Path_25514" data-name="Path 25514" d="M5966.875,995.7a.436.436,0,0,1-.436-.436v-1.624a.436.436,0,1,1,.873,0v1.624A.436.436,0,0,1,5966.875,995.7Z" transform="translate(-5966.439 -993.206)" fill="#707070"/>
    </g>
  </g>
</svg>
