<svg id="Group_3261" data-name="Group 3261" xmlns="http://www.w3.org/2000/svg" width="88.013" height="88.014" viewBox="0 0 88.013 88.014">
  <g id="Group_3201" data-name="Group 3201" transform="translate(0)">
    <circle id="Ellipse_252" data-name="Ellipse 252" cx="44.007" cy="44.007" r="44.007" fill="#fff"/>
    <g id="Group_3194" data-name="Group 3194" transform="translate(8.274 8.893)">
      <g id="Group_2855" data-name="Group 2855" transform="translate(10.915 5.361)">
        <g id="Group_2849" data-name="Group 2849" transform="translate(0 3.462)">
          <path id="Path_12603" data-name="Path 12603" d="M3356.223,4488.6a22.079,22.079,0,0,0-6-9.506c-2.837-2.459-7.149-4.812-11-4.58a.971.971,0,0,0-.678,1.639c2.96,2.6,7.137,3.082,10,5.908,2.7,2.663,3.746,6.753,4.774,10.331,4.953,17.245-3.411,26.4-11.254,29.52-14.414,5.744-27.207,3.589-36.479-9a.052.052,0,0,0-.095.041c3.541,15.336,24.361,18.311,36.818,13.035C3357.031,4519.758,3361.307,4502.785,3356.223,4488.6Z" transform="translate(-3305.491 -4474.5)" fill="#e0dfe6"/>
        </g>
        <g id="Group_2850" data-name="Group 2850" transform="translate(29.532 2.708)">
          <path id="Path_12604" data-name="Path 12604" d="M3368.056,4492.371a31.483,31.483,0,0,0-5.535-9.7c-3.9-4.492-10.9-10.559-17.418-8.89a.5.5,0,0,0-.117.9c2.357,1.362,4.918,2.24,7.2,3.8a19.563,19.563,0,0,1,6.2,6.807,66.74,66.74,0,0,1,6.565,16.08,1.621,1.621,0,0,0,2.688.71C3370.175,4499.265,3369.264,4495.6,3368.056,4492.371Z" transform="translate(-3344.749 -4473.498)" fill="#e0dfe6"/>
        </g>
        <g id="Group_2851" data-name="Group 2851" transform="translate(6.613 0)">
          <path id="Path_12605" data-name="Path 12605" d="M3366.244,4483.193a24.144,24.144,0,0,0-18.139-13.286c-1.021-.137-1.194,1.322-.484,1.789,6.5,4.272,13.552,8.864,15.665,16.871,1.161,4.4.726,9.178.294,13.653a43.305,43.305,0,0,1-3.208,12.436,26.308,26.308,0,0,1-17.019,15.669c-9.562,3.08-18.634.36-28.217-.817-.9-.111-1.15,1.237-.445,1.644,13.386,7.731,34.444,8.226,45.607-3.7,5.545-5.923,8.5-10.948,11.352-20.356C3373.9,4499.674,3369.642,4490.421,3366.244,4483.193Z" transform="translate(-3314.282 -4469.898)" fill="#e0dfe6"/>
        </g>
        <g id="Group_2852" data-name="Group 2852" transform="translate(10.944 50.875)">
          <path id="Path_12606" data-name="Path 12606" d="M3359.765,4537.725c-2.7,1.927-4.846,4.455-7.4,6.551a31.349,31.349,0,0,1-20.694,6.987c-3.8-.178-7.359-1.354-11-2.3a.5.5,0,0,0-.48.824c5.809,5.381,15.889,5.975,23.188,3.865,7.009-2.024,15.87-7.16,18.256-14.491A1.284,1.284,0,0,0,3359.765,4537.725Z" transform="translate(-3320.04 -4537.528)" fill="#e0dfe6"/>
        </g>
        <g id="Group_2853" data-name="Group 2853" transform="translate(11.793 13.539)">
          <path id="Path_12607" data-name="Path 12607" d="M3343.549,4513.153c-1.837-.233-3.675-.4-5.513-.535q.08-10.448.966-20.859c.249-2.891-3.479-4.855-5.813-3.334a110.6,110.6,0,0,1-10.072,5.832c-4.428,2.263-.524,8.931,3.9,6.67,1.273-.65,2.513-1.347,3.754-2.043q-.4,6.714-.455,13.444-2.323,0-4.652.106c-4.951.227-4.979,7.953,0,7.725a103.781,103.781,0,0,1,17.886.72C3348.468,4521.5,3348.422,4513.772,3343.549,4513.153Z" transform="translate(-3321.169 -4487.896)" fill="#e0dfe6"/>
        </g>
      </g>
      <g id="Group_3183" data-name="Group 3183">
        <path id="Path_12608" data-name="Path 12608" d="M3329.068,4529.8c-19.1,0-30.927-15.941-30.927-30.709a29.061,29.061,0,0,1,28.97-29.087,29.875,29.875,0,0,1,18.868,6.4c7.769,6.32,11.387,13.7,11.387,23.234C3357.367,4515.987,3344.408,4529.8,3329.068,4529.8Zm-1.957-58.2a27.467,27.467,0,0,0-27.377,27.495c0,14,11.215,29.117,29.334,29.117,14.476,0,26.706-13.083,26.706-28.568,0-9.014-3.432-16-10.8-22A28.276,28.276,0,0,0,3327.112,4471.6Z" transform="translate(-3292.756 -4464.563)"/>
        <path id="Path_12609" data-name="Path 12609" d="M3327.54,4533.447a36.058,36.058,0,0,1-26.309-11.22,36.742,36.742,0,0,1-10.25-25.081,34.344,34.344,0,0,1,34.236-34.374,35.309,35.309,0,0,1,22.3,7.567c9.183,7.47,13.461,16.2,13.461,27.461C3360.979,4517.122,3345.666,4533.447,3327.54,4533.447Zm-2.322-69.083a32.749,32.749,0,0,0-32.642,32.782c0,16.693,13.367,34.708,34.965,34.708,17.263,0,31.846-15.6,31.846-34.055,0-10.748-4.091-19.082-12.873-26.226A33.722,33.722,0,0,0,3325.218,4464.364Z" transform="translate(-3290.982 -4462.772)"/>
        <path id="Path_12610" data-name="Path 12610" d="M3339.545,4512.915c-.511.008-3.686-.079-4.216-.067-.009-1.465-.017-2.933-.031-4.392-.065-7.038-.128-13.686.33-20.461a1.946,1.946,0,0,0-3.039-1.739c-2.6,1.771-5.08,3.765-7.48,5.691-1.809,1.452-3.678,2.954-5.6,4.366a1.947,1.947,0,0,0,2.3,3.139c1.993-1.462,3.9-2.99,5.736-4.468,1.351-1.086,2.661-2.138,3.979-3.146-.224,5.583-.171,11.193-.119,16.654.014,1.468.022,2.942.03,4.416a50.113,50.113,0,0,1-5.641-.214,1.946,1.946,0,1,0-.423,3.869,64.92,64.92,0,0,0,8,.217c.554-.011,1.062-.02,1.546-.031.694-.015,4.022.069,4.686.058a1.946,1.946,0,0,0-.061-3.892Z" transform="translate(-3297.852 -4468.506)"/>
      </g>
    </g>
  </g>
</svg>
