<svg xmlns="http://www.w3.org/2000/svg" width="69.599" height="64.545" viewBox="0 0 69.599 64.545">
  <g id="Group_3428" data-name="Group 3428" transform="translate(-96.038 -3332.229)">
    <g id="Group_1847" data-name="Group 1847" transform="translate(105.426 3363.496)">
      <path id="Path_1066" data-name="Path 1066" d="M156.552,3405.148a67.079,67.079,0,0,0-6.249-5.208,7.277,7.277,0,0,0-2.09-1.111,2.3,2.3,0,0,0-1.829-3.462c-5.414-.192-10.82-.489-16.231-.744-.927-.044-1.857-.073-2.786-.105a1.986,1.986,0,0,0-1.339-.054c-.963-.042-1.925-.092-2.883-.179a5.083,5.083,0,0,1-3.1-1.013,4.507,4.507,0,0,1-.985-1.706,8.275,8.275,0,0,0,3.287-1.625,14.484,14.484,0,0,0,1.7-1.925,2.465,2.465,0,0,0,.695,2.111c1.489,1.532,4.6,1.291,6.514,1.378,6.326.288,12.639.172,18.965.04,2.174-.046,2.113-3.543,0-3.34-.078.008-.157.013-.235.02a1.1,1.1,0,0,0,.442-.992l-.111-2.05a1.27,1.27,0,0,0-1.249-1.25c-3.363.081-7.638-.39-10.81.831a.432.432,0,0,0,0,.826c.029.011.059.021.089.031-.222.793-.439,1.587-.665,2.379a1.343,1.343,0,0,0-.033.582c-1.985-.02-3.967-.086-5.952-.144-1.108-.032-6.455.573-6.258-1.478a.337.337,0,0,0-.022-.152,1.833,1.833,0,0,1,.241-.1c1.273-.406,2.393-.171,3.56-1.021a3.141,3.141,0,0,0,1.374-2.71c-.023-1.824-2.988-2.383-3.309-.448-.162.977-1.764.734-2.525.919a4.354,4.354,0,0,0-2.375,1.481c-1.383,1.656-2.531,3.433-3.978,5.05a.591.591,0,0,0-.964.248,5.948,5.948,0,0,0,1.319,6.046,6.572,6.572,0,0,0,3.054,1.6c-1.373,1.178-2.751,2.349-4.149,3.5-2.238,1.843-5.282,3.665-6.8,6.178a.69.69,0,0,0,.591,1.031c3.062-.278,6.063-2.505,8.528-4.2a63.7,63.7,0,0,0,7.352-5.9c5.977.41,11.957.754,17.931,1.2,3.378,2.232,6.126,5.493,9.417,7.887C156.115,3408.61,157.791,3406.345,156.552,3405.148Zm-9.319-17.28a.821.821,0,0,0,1.1.355,1.387,1.387,0,0,0,.2.122c-.724.052-1.448.091-2.174.125A1.979,1.979,0,0,0,147.233,3387.868Zm-4.709-.119a2,2,0,0,0,.7.59,1.723,1.723,0,0,0,1.622-.084,1.634,1.634,0,0,0,.556.257c-1.026.038-2.053.061-3.08.073A1.5,1.5,0,0,0,142.524,3387.75Zm-.406-1.393a1.556,1.556,0,0,0,0,.5c-.022-.021-.041-.033-.059-.047-.049-.155-.1-.31-.146-.465C141.984,3386.351,142.051,3386.352,142.117,3386.356Z" transform="translate(-110.778 -3381.322)" fill="#e0dfe6"/>
    </g>
    <g id="Group_1848" data-name="Group 1848" transform="translate(141.317 3336.184)">
      <path id="Path_1067" data-name="Path 1067" d="M176.1,3349.864a1.7,1.7,0,0,0-.171.008,7.791,7.791,0,0,0,.747-2.006,1.347,1.347,0,0,0-.118-.945,12.232,12.232,0,0,0-.395-8.119c-.318-.709-1.276-.266-1.33.36a20.73,20.73,0,0,1-1.862,7.884c-1.265,2.5-3.134,3.941-5.078,5.842a1.524,1.524,0,0,0-.436,1.187.381.381,0,0,0-.308.482c.357,1.354.97,3.5,2.457,4.016,1.518.526,3.543-.543,4.809-1.286,1.5-.877,3.339-2.395,3.934-4.084A2.43,2.43,0,0,0,176.1,3349.864Zm-4.156,5.422c-.346.247-1.494,1.183-1.907,1.165a1.406,1.406,0,0,1-.838-.419.606.606,0,0,0,.532-.076,22.8,22.8,0,0,0,4.587-3.805,1.7,1.7,0,0,0,.252.679A11.006,11.006,0,0,1,171.94,3355.286Z" transform="translate(-167.131 -3338.439)" fill="#e0dfe6"/>
    </g>
    <g id="Group_1849" data-name="Group 1849" transform="translate(142.04 3338.455)">
      <path id="Path_1068" data-name="Path 1068" d="M171.173,3342.373a1.28,1.28,0,0,0-1.8,0,4.549,4.549,0,0,0-1.005,3.927,1,1,0,0,0,1.963-.266,2.115,2.115,0,0,1,.838-1.864A1.278,1.278,0,0,0,171.173,3342.373Z" transform="translate(-168.266 -3342.004)" fill="#e0dfe6"/>
    </g>
    <g id="Group_1850" data-name="Group 1850" transform="translate(152.667 3340.892)">
      <path id="Path_1069" data-name="Path 1069" d="M197.843,3385.869a42.733,42.733,0,0,0-1.763-9.631c.008-.05.019-.1.022-.151.3-5.087.047-10.269-.062-15.363-.1-4.81-.031-9.869-1.127-14.577a.446.446,0,0,0-.853,0c-.974,4.725-.782,9.774-.764,14.577.018,5.1-.109,10.283.322,15.363a1.242,1.242,0,0,0,1,1.168,12.557,12.557,0,0,0,.027,2.183.816.816,0,0,0-.649.583c-.666,2.469-1.028,5.128-1.445,7.654a1.662,1.662,0,0,0,.171,1.077,3.436,3.436,0,0,1-1.447,2.773c-1.724,1.015-4,1-5.876,1.525a.634.634,0,0,0,0,1.212c2.316.686,6.059.851,8.245-.372.095-.053.185-.113.276-.172a1.216,1.216,0,0,0,2.228.848A13.976,13.976,0,0,0,197.843,3385.869Z" transform="translate(-184.95 -3345.831)" fill="#e0dfe6"/>
    </g>
    <g id="Group_1851" data-name="Group 1851" transform="translate(118.133 3340.419)">
      <path id="Path_1070" data-name="Path 1070" d="M148.206,3345.112a58.52,58.52,0,0,1-8.846.792c-1.978-.026-4.324-.687-6.209.167-1.5.681-1.953,2.023-2.109,3.559-.293,2.871-.3,5.791-.313,8.674,0,.405.657.521.729.1.376-2.2.792-4.385,1.233-6.569a15.772,15.772,0,0,1,.471-2.211c.534-1.458,1.679-1.576,3.048-1.465a104.942,104.942,0,0,0,12.443.263C151.056,3348.33,150.67,3344.768,148.206,3345.112Z" transform="translate(-130.729 -3345.088)" fill="#e0dfe6"/>
    </g>
    <g id="Group_1852" data-name="Group 1852" transform="translate(128.337 3356.409)">
      <path id="Path_1071" data-name="Path 1071" d="M155.7,3374.946c-.226-1.175-.164-2.442-.481-3.585a1.608,1.608,0,0,0-1.952-1.108c-1.269.37-2.557.1-3.811.4a1.255,1.255,0,0,0-.9.9,12.918,12.918,0,0,0-.558,3.957c-.075.006-.148.014-.222.019-1.1.068-1.5,1.846-.277,2.047a14.8,14.8,0,0,0,6.143-.072,1.528,1.528,0,0,0,.6-.314,1.547,1.547,0,0,0,.2-.031A1.835,1.835,0,0,0,155.7,3374.946Z" transform="translate(-146.751 -3370.194)" fill="#e0dfe6"/>
    </g>
    <g id="Group_1853" data-name="Group 1853" transform="translate(149.515 3342.289)">
      <path id="Path_1072" data-name="Path 1072" d="M188.571,3352.739a1.9,1.9,0,0,0-.064-.464,3.869,3.869,0,0,0-1.2-3.366,3.306,3.306,0,0,0-4.648.141.52.52,0,0,0,.363.877,2.691,2.691,0,0,1,2.145,1.122,2.023,2.023,0,0,1,.217.417,1.466,1.466,0,0,0-.443,1.274,67.656,67.656,0,0,0,1.569,9.5c-.055-.011-.105-.027-.163-.033a14.285,14.285,0,0,0-5.558.6,1.112,1.112,0,0,0,.1,2.154,7.782,7.782,0,0,1-.247,1.6,1.222,1.222,0,0,0,.838,1.475,10.491,10.491,0,0,0,4.423.176,1.49,1.49,0,0,0,1.442-1.442,1.61,1.61,0,0,0-.651-1.219,1.307,1.307,0,0,0,.02-.289,1.386,1.386,0,0,0,1.09-1.7.467.467,0,0,0,.1-.217A64.208,64.208,0,0,0,188.571,3352.739Z" transform="translate(-180.002 -3348.023)" fill="#e0dfe6"/>
    </g>
    <g id="Group_1892" data-name="Group 1892" transform="translate(96.038 3332.229)">
      <g id="Group_1855" data-name="Group 1855" transform="translate(16.646 39.251)">
        <g id="Group_1854" data-name="Group 1854">
          <path id="Path_1073" data-name="Path 1073" d="M152.818,3400.486h-.036c-8.166-.436-18.605-1.04-27.243-1.578a3.537,3.537,0,0,1-3.32-3.375l-.044-.969a.676.676,0,1,1,1.35-.061l.043.967a2.189,2.189,0,0,0,2.053,2.088c8.635.538,19.069,1.142,27.231,1.577a.676.676,0,0,1-.036,1.351Z" transform="translate(-122.175 -3393.857)" fill="#707070"/>
        </g>
      </g>
      <g id="Group_1857" data-name="Group 1857" transform="translate(54.585 5.126)">
        <g id="Group_1856" data-name="Group 1856">
          <path id="Path_1074" data-name="Path 1074" d="M192.19,3375.329a.676.676,0,0,1-.676-.666c-.089-5.8-.133-11.029-.133-15.982,0-5.1.046-9.817.139-14.432a2.186,2.186,0,0,0-2.064-2.238c-2.037-.115-4.44-.246-7.073-.382a.677.677,0,0,1-.64-.71.661.661,0,0,1,.71-.64c2.636.136,5.041.267,7.08.382a3.534,3.534,0,0,1,3.34,3.615c-.094,4.606-.139,9.318-.139,14.4,0,4.947.043,10.168.133,15.961A.679.679,0,0,1,192.19,3375.329Z" transform="translate(-181.742 -3340.277)" fill="#707070"/>
        </g>
      </g>
      <g id="Group_1859" data-name="Group 1859" transform="translate(16.093 3.793)">
        <g id="Group_1858" data-name="Group 1858">
          <path id="Path_1075" data-name="Path 1075" d="M122.117,3363.648a.676.676,0,0,1-.675-.658c-.092-3.454-.136-6.61-.136-9.649,0-3.291.257-6.579.506-9.759.054-.7.11-1.4.161-2.107a3.57,3.57,0,0,1,3.574-3.29c4.963.051,12.126.279,21.29.679a.676.676,0,0,1,.646.705.669.669,0,0,1-.705.645c-9.149-.4-16.3-.627-21.245-.677a2.208,2.208,0,0,0-2.212,2.039c-.052.7-.108,1.407-.162,2.111-.246,3.154-.5,6.416-.5,9.654,0,3.027.045,6.171.135,9.614A.679.679,0,0,1,122.117,3363.648Z" transform="translate(-121.306 -3338.185)" fill="#707070"/>
        </g>
      </g>
      <g id="Group_1861" data-name="Group 1861" transform="translate(0 27.703)">
        <g id="Group_1860" data-name="Group 1860">
          <path id="Path_1076" data-name="Path 1076" d="M96.714,3395.292a.676.676,0,0,1-.381-1.234c10.26-7,11.192-11.437,11.75-14.092.662-3.151,1.317-4.24,9.694-4.24,1.01,0,2.027.05,3.011.1.8.04,1.622.081,2.426.094a.23.23,0,0,1,.045-.014,1.375,1.375,0,0,1,.362-.054,2.582,2.582,0,0,1,2.448,2.49c0,1.6-1.576,3.991-5.917,3.991-.884,0-1.788-.076-2.663-.148-.829-.069-1.611-.135-2.334-.135a.676.676,0,0,1,0-1.352c.78,0,1.589.068,2.447.14s1.722.144,2.55.144c3.349,0,4.565-1.578,4.565-2.639,0-.887-.984-1.138-1.1-1.138.009,0-.01.007-.029.012a1.487,1.487,0,0,1-.38.055c-.846-.013-1.683-.055-2.491-.095-.967-.048-1.967-.1-2.943-.1-7.706,0-7.859.734-8.371,3.167-.6,2.854-1.6,7.629-12.312,14.93A.673.673,0,0,1,96.714,3395.292Z" transform="translate(-96.038 -3375.726)" fill="#707070"/>
        </g>
      </g>
      <g id="Group_1863" data-name="Group 1863" transform="translate(21.584 34.535)">
        <g id="Group_1862" data-name="Group 1862">
          <path id="Path_1077" data-name="Path 1077" d="M157.632,3394.29h-.041c-.686-.041-1.372-.09-2.058-.139-1.767-.126-3.594-.255-5.4-.255-1.143,0-2.19.065-3.3.133-1.153.071-2.344.145-3.694.145-9.02,0-11.414-.643-12.5-1.755a3.3,3.3,0,0,1-.706-2.632c0-.165.008-.336.008-.513,0-.358.01-.716.02-1.076s.02-.707.02-1.067a.676.676,0,1,1,1.352,0c0,.373-.01.74-.02,1.1-.01.347-.019.693-.019,1.039,0,.188,0,.369-.008.545-.021.851-.015,1.31.321,1.656.923.945,4.372,1.348,11.532,1.348,1.308,0,2.478-.073,3.611-.143s2.2-.135,3.381-.135c1.855,0,3.706.131,5.5.259.682.048,1.364.1,2.044.138a.676.676,0,0,1-.04,1.35Z" transform="translate(-129.927 -3386.452)" fill="#707070"/>
        </g>
      </g>
      <g id="Group_1865" data-name="Group 1865" transform="translate(8.3 43.133)">
        <g id="Group_1864" data-name="Group 1864">
          <path id="Path_1078" data-name="Path 1078" d="M109.745,3413.6a.676.676,0,0,1-.464-1.167,45.055,45.055,0,0,1,8.362-6.076c3.074-1.843,5.3-3.175,6.077-5.913a.676.676,0,1,1,1.3.372c-.929,3.251-3.468,4.773-6.682,6.7a43.3,43.3,0,0,0-8.129,5.9A.673.673,0,0,1,109.745,3413.6Z" transform="translate(-109.07 -3399.952)" fill="#707070"/>
        </g>
      </g>
      <g id="Group_1867" data-name="Group 1867" transform="translate(7.777 39.457)">
        <g id="Group_1866" data-name="Group 1866">
          <path id="Path_1079" data-name="Path 1079" d="M117.964,3405.352a.673.673,0,0,1-.351-.1,22.309,22.309,0,0,1-9.307-10.124.676.676,0,0,1,1.238-.545,20.719,20.719,0,0,0,8.773,9.515.675.675,0,0,1-.352,1.253Z" transform="translate(-108.249 -3394.181)" fill="#707070"/>
        </g>
      </g>
      <g id="Group_1869" data-name="Group 1869" transform="translate(15.7 33.168)">
        <g id="Group_1868" data-name="Group 1868">
          <path id="Path_1080" data-name="Path 1080" d="M121.37,3391.11a.673.673,0,0,1-.559-.289.664.664,0,0,1,.148-.921,4.647,4.647,0,0,1,.659-.349c1.244-.6,4.548-2.194,4.548-4.348a.476.476,0,0,0-.008-.09.676.676,0,1,1,1.326-.262,1.846,1.846,0,0,1,.034.352c0,3-3.723,4.8-5.312,5.565-.19.092-.4.2-.46.231A.7.7,0,0,1,121.37,3391.11Z" transform="translate(-120.689 -3384.306)" fill="#707070"/>
        </g>
      </g>
      <g id="Group_1871" data-name="Group 1871" transform="translate(40.345)">
        <g id="Group_1870" data-name="Group 1870">
          <path id="Path_1081" data-name="Path 1081" d="M167.251,3355.258a.675.675,0,0,1-.481-.2c-4.072-4.137-7.385-11.065-7.385-15.444,0-4,4.906-7.384,7.987-7.384,4.011,0,8.306,3.78,8.306,9.406,0,3.373-2.6,7.759-7.934,13.411A.677.677,0,0,1,167.251,3355.258Zm.12-21.677c-2.5,0-6.635,2.921-6.635,6.032,0,3.832,2.935,10.077,6.512,13.985,4.7-5.068,7.077-9.09,7.077-11.962C174.325,3337.826,171.469,3333.581,167.371,3333.581Z" transform="translate(-159.384 -3332.229)" fill="#707070"/>
        </g>
      </g>
      <g id="Group_1873" data-name="Group 1873" transform="translate(44.852 4.978)">
        <g id="Group_1872" data-name="Group 1872">
          <path id="Path_1082" data-name="Path 1082" d="M170.078,3347.27a3.465,3.465,0,0,1-3.616-3.437,3.609,3.609,0,0,1,3.2-3.775c.061-.005.12-.009.18-.01a3.712,3.712,0,0,1,2.651,1.052,3.492,3.492,0,0,1,1.122,2.475,3.736,3.736,0,0,1-3.452,3.694Zm-.125-5.873h-.062l-.11.006a2.267,2.267,0,0,0-1.968,2.392,2.134,2.134,0,0,0,2.267,2.121h.061a2.4,2.4,0,0,0,2.128-2.325,2.152,2.152,0,0,0-.7-1.515A2.37,2.37,0,0,0,169.953,3341.4Z" transform="translate(-166.461 -3340.045)" fill="#707070"/>
        </g>
      </g>
      <g id="Group_1875" data-name="Group 1875" transform="translate(20.829 7.634)">
        <g id="Group_1874" data-name="Group 1874">
          <path id="Path_1083" data-name="Path 1083" d="M129.563,3365.636a.675.675,0,0,1-.673-.629c-.1-1.453-.148-2.961-.148-4.61,0-3.31.2-6.669.393-9.917.06-1.008.12-2.015.174-3.021a3.259,3.259,0,0,1,3.26-3.078h.294c3.156,0,6.355-.044,9.447-.087,2.218-.031,4.439-.062,6.669-.077a.676.676,0,1,1,.01,1.352c-2.227.016-4.445.046-6.659.077-3.1.043-6.3.087-9.466.087h-.293a1.907,1.907,0,0,0-1.91,1.8q-.082,1.513-.175,3.029c-.192,3.229-.391,6.568-.391,9.837,0,1.618.047,3.1.145,4.518a.675.675,0,0,1-.628.72Z" transform="translate(-128.742 -3344.215)" fill="#707070"/>
        </g>
      </g>
      <g id="Group_1877" data-name="Group 1877" transform="translate(55.273 9.126)">
        <g id="Group_1876" data-name="Group 1876">
          <path id="Path_1084" data-name="Path 1084" d="M188.73,3375.389a.679.679,0,0,1-.676-.693c.173-6.593.352-13.408.352-20.111,0-1.636-.01-3.23-.031-4.74a1.677,1.677,0,0,0-1.558-1.65c-.943-.074-1.882-.156-2.825-.239l-.554-.049a.676.676,0,1,1,.118-1.346l.554.048c.938.082,1.874.165,2.811.238a3.022,3.022,0,0,1,2.8,2.979c.021,1.515.032,3.116.032,4.759,0,6.72-.18,13.546-.353,20.147A.675.675,0,0,1,188.73,3375.389Z" transform="translate(-182.822 -3346.558)" fill="#707070"/>
        </g>
      </g>
      <g id="Group_1879" data-name="Group 1879" transform="translate(46.004 27.927)">
        <g id="Group_1878" data-name="Group 1878">
          <path id="Path_1085" data-name="Path 1085" d="M175.956,3412.7a.676.676,0,0,1-.676-.676,28.929,28.929,0,0,1,.236-3.226,27.261,27.261,0,0,0,.225-3.031c0-2.477-1.624-3.574-3.506-4.844-1.86-1.256-3.967-2.678-3.967-5.677a3.73,3.73,0,0,1,1.58-3.117c.47-.4.74-.654.825-1.07a45.526,45.526,0,0,0,.557-5.214c.362-5.02.705-9.762,3.4-9.762,2.409,0,2.476,6.819,2.476,6.888,0,1.058-.066,2.131-.13,3.17-.062,1.008-.127,2.051-.127,3.048,0,.394.01.757.03,1.109a.676.676,0,1,1-1.35.076c-.021-.378-.032-.765-.032-1.186,0-1.039.066-2.1.129-3.132s.128-2.071.128-3.087c0-2.277-.631-5.282-1.164-5.544-1.4.007-1.768,5.127-2.013,8.515a46.219,46.219,0,0,1-.58,5.388,3.215,3.215,0,0,1-1.269,1.825,2.4,2.4,0,0,0-1.11,2.092c0,2.281,1.563,3.335,3.372,4.557,1.922,1.3,4.1,2.769,4.1,5.965a28.592,28.592,0,0,1-.234,3.18,28.155,28.155,0,0,0-.228,3.076A.676.676,0,0,1,175.956,3412.7Z" transform="translate(-168.269 -3376.077)" fill="#707070"/>
        </g>
      </g>
      <g id="Group_1881" data-name="Group 1881" transform="translate(53.514 37.45)">
        <g id="Group_1880" data-name="Group 1880">
          <path id="Path_1086" data-name="Path 1086" d="M192.046,3412.035a.676.676,0,0,1-.552-1.067c1.515-2.139,1.513-4.378,1.511-6.75v-.248c0-5.8-.441-9.18-1.311-10.048-.248-.248-.515-.255-1.015-.257h-.09a1.879,1.879,0,0,0-1.917,1.3.7.7,0,0,1-.808.513c-.559-.109-.558-.659-.557-.925v-.129c0-.094.008-.188.016-.283,0-.055.01-.111.01-.167a1.47,1.47,0,0,0-1.245-.99c-.538,0-.878.478-1.18.967-.155.251-.443.719-.98.566-.57-.161-.57-.686-.57-1.556,0-.577-.154-.577-.2-.577-1.026,0-1.741,1.17-1.741,2.22a.676.676,0,1,1-1.351,0c0-1.725,1.243-3.573,3.093-3.573a1.462,1.462,0,0,1,1.462,1.15,2.244,2.244,0,0,1,1.471-.55,2.832,2.832,0,0,1,2.316,1.416,3.345,3.345,0,0,1,2.185-.732h.086a2.505,2.505,0,0,1,1.974.652c.845.843,1.709,2.809,1.709,11v.247c0,2.478,0,5.042-1.759,7.532A.677.677,0,0,1,192.046,3412.035Z" transform="translate(-180.061 -3391.03)" fill="#707070"/>
        </g>
      </g>
      <g id="Group_1883" data-name="Group 1883" transform="translate(53.475 56.928)">
        <g id="Group_1882" data-name="Group 1882">
          <path id="Path_1087" data-name="Path 1087" d="M194.2,3428.479a.675.675,0,0,1-.673-.629c-.011-.155-.015-.318-.015-.487,0-.33.017-.685.034-1.047s.035-.72.035-1.074c0-2.15,0-2.279-7.165-2.279-1.92,0-3.829.083-5.677.25a.676.676,0,0,1-.121-1.347c1.888-.169,3.838-.255,5.8-.255,6.882,0,8.517,0,8.517,3.631,0,.376-.018.762-.036,1.14-.017.34-.032.672-.032.982,0,.136,0,.268.011.394a.676.676,0,0,1-.627.721Z" transform="translate(-179.999 -3421.611)" fill="#707070"/>
        </g>
      </g>
      <g id="Group_1885" data-name="Group 1885" transform="translate(25.446 14.285)">
        <g id="Group_1884" data-name="Group 1884">
          <path id="Path_1088" data-name="Path 1088" d="M141.008,3356.121c-.736,0-1.479-.029-2.2-.056s-1.434-.054-2.144-.054a.676.676,0,0,1,0-1.353c.736,0,1.478.028,2.2.056,1.207.045,2.5.08,3.528.012a.676.676,0,0,1,.09,1.349C142.026,3356.1,141.543,3356.121,141.008,3356.121Z" transform="translate(-135.991 -3354.658)" fill="#707070"/>
        </g>
      </g>
      <g id="Group_1887" data-name="Group 1887" transform="translate(25.446 17.975)">
        <g id="Group_1886" data-name="Group 1886">
          <path id="Path_1089" data-name="Path 1089" d="M141.468,3361.984c-.692,0-1.372-.047-2.029-.092a19.839,19.839,0,0,0-2.728-.064.676.676,0,1,1-.09-1.348,21.2,21.2,0,0,1,2.911.063,19.8,19.8,0,0,0,2.728.064.676.676,0,0,1,.09,1.349C142.054,3361.977,141.76,3361.984,141.468,3361.984Z" transform="translate(-135.991 -3360.452)" fill="#707070"/>
        </g>
      </g>
      <g id="Group_1889" data-name="Group 1889" transform="translate(25.318 21.5)">
        <g id="Group_1888" data-name="Group 1888">
          <path id="Path_1090" data-name="Path 1090" d="M142.13,3367.6a.676.676,0,0,1-.134-.013,13.168,13.168,0,0,0-2.618-.25,21.109,21.109,0,0,0-2.823.212.676.676,0,0,1-.178-1.34,22.365,22.365,0,0,1,3-.224,14.488,14.488,0,0,1,2.883.277.676.676,0,0,1-.131,1.339Z" transform="translate(-135.789 -3365.986)" fill="#707070"/>
        </g>
      </g>
      <g id="Group_1891" data-name="Group 1891" transform="translate(30.7 23.779)">
        <g id="Group_1890" data-name="Group 1890">
          <path id="Path_1091" data-name="Path 1091" d="M150.747,3377.73a.676.676,0,0,1-.028-1.351c.6-.025,1.18-.076,1.73-.15a.676.676,0,0,1,.182,1.339c-.592.08-1.216.134-1.855.161Zm-4.046-.164a.638.638,0,0,1-.078,0c-.587-.067-1.2-.154-1.82-.257a.676.676,0,0,1,.223-1.333c.6.1,1.187.183,1.75.247a.676.676,0,0,1-.076,1.348Zm9.726-1.071a.676.676,0,0,1-.284-1.29,9.2,9.2,0,0,0,1.453-.834.676.676,0,1,1,.78,1.1,10.566,10.566,0,0,1-1.665.957A.677.677,0,0,1,156.428,3376.494Zm4.212-3.909a.676.676,0,0,1-.6-.99,9.529,9.529,0,0,0,.639-1.563.676.676,0,0,1,1.286.418,10.994,10.994,0,0,1-.728,1.774A.675.675,0,0,1,160.64,3372.585Z" transform="translate(-144.24 -3369.564)" fill="#707070"/>
        </g>
      </g>
    </g>
  </g>
</svg>
