<svg xmlns="http://www.w3.org/2000/svg" width="62.294" height="60.184" viewBox="0 0 62.294 60.184">
  <g id="Group_1790" data-name="Group 1790" transform="translate(0 0)">
    <g id="Group_1778" data-name="Group 1778" transform="translate(4.927 10.991)">
      <path id="Path_978" data-name="Path 978" d="M1793.907,2142.754a1.98,1.98,0,0,0-2.939-1.687c-2.127.958-4.423,1.788-6.454,2.934a4.317,4.317,0,0,0-1.216.964,1.862,1.862,0,0,0-.981.038,49.528,49.528,0,0,0-9.755,4.166,1.219,1.219,0,0,0-2.1.871c0,.124,0,.246,0,.37-.087.055-.176.105-.262.16a2.184,2.184,0,0,0,.3,3.726c.052,7.965-.139,15.914-.823,23.86a1.757,1.757,0,0,0,2.627,1.508,31.014,31.014,0,0,1,6.04-3.127c1.5-.561,3.18-.8,4.625-1.478,3.228-1.525,2.766-6.067,3.031-9.082.082-.93.149-1.862.213-2.792a55.712,55.712,0,0,0,5.86-2.132c1.541-.754,1.915-1.831,1.946-3.5C1794.125,2152.628,1793.925,2147.681,1793.907,2142.754Z" transform="translate(-1751.194 -2138.534)" fill="#e0dfe6"/>
      <path id="Path_979" data-name="Path 979" d="M1822.11,2196.524c-.424-1.746-2.533-1.641-3.449-.451l-.017.023a1.865,1.865,0,0,0-.18.087,3.087,3.087,0,0,0-1.111,1.454,1.267,1.267,0,0,0-1.032.716c-.708,1.68-.653,3.877-.73,5.678a1.681,1.681,0,0,0,1.23,1.615c2.034.308,4.065-1.671,5.33-3.141C1823.672,2200.738,1822.593,2198.515,1822.11,2196.524Z" transform="translate(-1769.456 -2159.973)" fill="#e0dfe6"/>
      <path id="Path_980" data-name="Path 980" d="M1788.253,2185.2c-.938-.384-1.862-.847-2.815-1.2a2.01,2.01,0,0,0-2.607-.555h-.023a.826.826,0,0,0-.753,1.179,2.314,2.314,0,0,0-.006,1.491q.133,2.353.272,4.706a9.394,9.394,0,0,0-2.354.582,62.845,62.845,0,0,0-7.315,3.13c-1.236.621-2.415,1.316-3.6,2.018s-1.737.239-2.977-.289a24.2,24.2,0,0,0-7.161-2.189c-.375-.033-.526.468-.294.709a25.4,25.4,0,0,0,6.681,4.453c2.037,1.069,3.431,1.577,5.628.527,2.593-1.238,5.1-2.569,7.792-3.594,1-.382,2.877-1.47,3.943-1.375s1.306.806,2.545.334a1.861,1.861,0,0,0,.615-3.214c.026-.054.055-.1.077-.162.223-.589,0-1.475.26-1.97.152-.289.994-.612,1.256-.773a13.885,13.885,0,0,0,1.229-.817A1.661,1.661,0,0,0,1788.253,2185.2Z" transform="translate(-1746.935 -2155.225)" fill="#e0dfe6"/>
      <path id="Path_981" data-name="Path 981" d="M1820.877,2200.879a1.583,1.583,0,0,0-1.976,1.5,8.5,8.5,0,0,0,.274,1.406c.088.495.24.573.311.576a1.892,1.892,0,0,0-.449.36c-.994.964-3.289,1.4-4.572,1.968a9.269,9.269,0,0,1-2.253,1.041c-.945.09-1.206-.253-2.05-.774-.965-.594-1.635-1.165-2.75-.751a.452.452,0,0,0-.316.315c-.265,1.74,1.862,3.677,3.266,4.493,2.15,1.248,5.461-.91,7.447-1.728,1.92-.792,4.739-1.383,5.475-3.606C1823.895,2203.846,1822.92,2201.234,1820.877,2200.879Z" transform="translate(-1766.098 -2162.204)" fill="#e0dfe6"/>
      <path id="Path_982" data-name="Path 982" d="M1761.568,2182.471l-.06-.111a1.78,1.78,0,0,0-1.581-.906l-.116.014c-.054.007-.11.019-.166.029-.01-.236-.277-.433-.807-.591q-.739-.393-1.486-.772l-.047-.023c.334-3.895.466-7.826.754-11.721.308-4.152,1.24-8.576.615-12.711a.927.927,0,0,0-1.68-.219c-1.724,3.8-1.882,8.377-2.4,12.484-.428,3.425-.867,6.913-1.08,10.387-1.025-.446-2.057-.875-3.1-1.269-3.226-1.219-6.849-2.532-10.339-2.447a.705.705,0,0,0-.353,1.3c3.378,2.255,7.552,3.516,11.21,5.278q1.277.614,2.544,1.247a1.763,1.763,0,0,0,2.137,1.108c.18.1.364.185.544.282,1.37.742,2.627,1.839,4.252,1.486A1.958,1.958,0,0,0,1761.568,2182.471Z" transform="translate(-1739.396 -2144.12)" fill="#e0dfe6"/>
      <path id="Path_983" data-name="Path 983" d="M1791.126,2137.206c-3.464,1.605-7.006,3.03-10.523,4.51-3.432,1.445-7.2,2.69-10.388,4.629a.684.684,0,0,0,.525,1.244c3.688-.531,7.436-2.078,10.923-3.361,3.583-1.319,7.1-2.811,10.645-4.22A1.527,1.527,0,1,0,1791.126,2137.206Z" transform="translate(-1751.421 -2137.021)" fill="#e0dfe6"/>
    </g>
    <g id="Group_1789" data-name="Group 1789" transform="translate(0 0)">
      <g id="Group_1779" data-name="Group 1779">
        <path id="Path_984" data-name="Path 984" d="M1754.886,2172.721a.647.647,0,0,1-.326-.089l-22.982-13.492a.642.642,0,0,1-.317-.553l0-1.253c0-2.509.021-5.037.053-7.557.035-2.739.081-5.45.127-8.115.074-4.351.151-8.852.173-13.275a.643.643,0,0,1,.4-.59c1.027-.427,2.059-.894,3.058-1.345,1.8-.815,3.664-1.657,5.6-2.315,1.65-.562,3.172-1.083,4.583-1.565,4.688-1.6,8.075-2.762,11.017-3.675a.645.645,0,0,1,.487.043l22.178,11.539a.642.642,0,0,1,.346.55c.13,4.2.347,8.5.557,12.659.122,2.412.243,4.823.349,7.224a.642.642,0,0,1-.367.609q-.409.195-.817.4c-2.444,1.24-4.919,2.368-7.389,3.431v.875c0,2.78,0,5.654.043,8.517a.643.643,0,0,1-.388.6c-4.579,1.979-11.651,5.191-16.1,7.314A.641.641,0,0,1,1754.886,2172.721Zm-22.341-14.5,22.372,13.133c4.345-2.067,10.954-5.07,15.443-7.017-.037-2.729-.037-5.461-.037-8.107v-.327c-2.223.938-4.438,1.83-6.621,2.708-2.814,1.133-5.724,2.3-8.541,3.533a.643.643,0,0,1-.55-.017l-22.026-11.3c-.025,2.174-.041,4.35-.041,6.512Zm.057-8.831,22.324,11.455c2.746-1.192,5.565-2.327,8.3-3.426,2.34-.942,4.719-1.9,7.1-2.912,0-6.445-.048-13.064-.648-19.522a.642.642,0,0,1,1.279-.118c.589,6.33.648,12.789.654,19.089,2.281-.99,4.56-2.037,6.808-3.177q.231-.117.463-.231c-.1-2.259-.216-4.524-.33-6.792-.2-4.04-.414-8.213-.546-12.308l-21.61-11.242c-2.868.895-6.187,2.031-10.731,3.585-1.411.482-2.933,1-4.584,1.565-1.876.639-3.71,1.468-5.483,2.27-.881.4-1.788.809-2.7,1.2-.024,4.294-.1,8.649-.171,12.866C1732.679,2144.221,1732.635,2146.8,1732.6,2149.388Z" transform="translate(-1731.259 -2118.869)" fill="#707070"/>
      </g>
      <g id="Group_1780" data-name="Group 1780" transform="translate(0.348 9.593)">
        <path id="Path_985" data-name="Path 985" d="M1755.28,2147.835a.645.645,0,0,1-.3-.072l-22.8-11.837a.643.643,0,0,1,.593-1.141l22.53,11.7c3.311-1.456,6.732-2.75,10.043-4,4.344-1.643,8.836-3.343,13.144-5.43l.1-.048a.643.643,0,0,1,.557,1.158l-.094.046c-4.362,2.113-8.881,3.823-13.251,5.476-3.39,1.283-6.9,2.609-10.261,4.1A.642.642,0,0,1,1755.28,2147.835Z" transform="translate(-1731.834 -2134.713)" fill="#707070"/>
      </g>
      <g id="Group_1781" data-name="Group 1781" transform="translate(22.607 21.377)">
        <path id="Path_986" data-name="Path 986" d="M1769.3,2186.466a.643.643,0,0,1-.643-.633c-.041-2.769-.061-5.6-.061-8.416,0-7.529.148-15.141.442-22.624a.649.649,0,0,1,.667-.617.642.642,0,0,1,.617.667c-.292,7.466-.441,15.061-.441,22.574,0,2.809.021,5.634.061,8.4A.644.644,0,0,1,1769.3,2186.466Z" transform="translate(-1768.597 -2154.176)" fill="#707070"/>
      </g>
      <g id="Group_1782" data-name="Group 1782" transform="translate(0.229 19.167)">
        <path id="Path_987" data-name="Path 987" d="M1754.616,2164.123a.646.646,0,0,1-.3-.076c-2.354-1.262-5.156-2.863-8.123-4.559-4.943-2.824-10.053-5.745-14.187-7.741a.642.642,0,1,1,.559-1.157c4.175,2.015,9.3,4.947,14.266,7.783,2.855,1.632,5.558,3.176,7.845,4.409,3.223-1.119,5.692-1.973,7.62-2.639,6.877-2.378,6.877-2.378,9.774-3.571,1.33-.548,3.341-1.376,6.942-2.813a.642.642,0,1,1,.476,1.193c-3.594,1.435-5.6,2.261-6.928,2.808-2.932,1.207-2.932,1.207-9.844,3.6-1.981.685-4.532,1.567-7.885,2.732A.646.646,0,0,1,1754.616,2164.123Z" transform="translate(-1731.638 -2150.525)" fill="#707070"/>
      </g>
      <g id="Group_1783" data-name="Group 1783" transform="translate(30.568 18.41)">
        <path id="Path_988" data-name="Path 988" d="M1783.268,2180.8a.643.643,0,0,1-.64-.6c-.745-10.3-.865-20.638-.883-30.281a.642.642,0,1,1,1.285,0c.019,9.619.137,19.935.88,30.191a.642.642,0,0,1-.594.687Z" transform="translate(-1781.745 -2149.274)" fill="#707070"/>
      </g>
      <g id="Group_1784" data-name="Group 1784" transform="translate(6.693 13.014)">
        <path id="Path_989" data-name="Path 989" d="M1742.956,2171.637a.643.643,0,0,1-.643-.643c.008-9.564.042-19.818.247-30a.629.629,0,0,1,.656-.63.644.644,0,0,1,.63.655c-.205,10.172-.24,20.418-.248,29.976A.642.642,0,0,1,1742.956,2171.637Z" transform="translate(-1742.314 -2140.362)" fill="#707070"/>
      </g>
      <g id="Group_1785" data-name="Group 1785" transform="translate(14.884 17.528)">
        <path id="Path_990" data-name="Path 990" d="M1756.485,2179.388a.646.646,0,0,1-.643-.656c.143-7.044.462-13.7.694-18.555.143-2.982.246-5.136.246-6.106,0-1.281-.059-2.577-.116-3.831-.027-.586-.053-1.171-.074-1.757a.643.643,0,0,1,.619-.665h.023a.642.642,0,0,1,.642.619c.021.582.047,1.164.074,1.744.057,1.269.117,2.58.117,3.89,0,1-.1,3.167-.247,6.167-.233,4.85-.55,11.493-.693,18.52A.643.643,0,0,1,1756.485,2179.388Z" transform="translate(-1755.842 -2147.818)" fill="#707070"/>
      </g>
      <g id="Group_1786" data-name="Group 1786" transform="translate(44.029 40.17)">
        <path id="Path_991" data-name="Path 991" d="M1811.21,2202.873a.642.642,0,0,1-.346-.1l-6.589-4.214a.642.642,0,0,1-.3-.562c.044-1.388.072-2.78.1-4.17.027-1.313.053-2.625.093-3.932a.644.644,0,0,1,.314-.533c2.443-1.451,4.861-2.821,7.186-4.069a.641.641,0,0,1,.649.024c1.077.686,2.149,1.427,3.187,2.143.762.527,1.525,1.054,2.3,1.566a.64.64,0,0,1,.287.5c.134,2.244.509,5.821.932,8.9a.644.644,0,0,1-.356.666l-.259.125c-2.291,1.109-4.661,2.256-6.871,3.569A.643.643,0,0,1,1811.21,2202.873Zm-5.936-5.2,5.95,3.805c2.1-1.225,4.315-2.3,6.463-3.341-.383-2.856-.717-6.052-.86-8.218-.688-.46-1.371-.931-2.051-1.4-.925-.639-1.878-1.3-2.83-1.913-2.11,1.139-4.294,2.376-6.5,3.683-.033,1.185-.058,2.375-.082,3.565C1805.338,2195.125,1805.313,2196.4,1805.274,2197.671Z" transform="translate(-1803.978 -2185.214)" fill="#707070"/>
      </g>
      <g id="Group_1787" data-name="Group 1787" transform="translate(50.288 44.434)">
        <path id="Path_992" data-name="Path 992" d="M1815.205,2205.6a.642.642,0,0,1-.641-.6l-.039-.645c-.1-1.7-.211-3.462-.211-5.2,0-.831.024-1.59.073-2.319a.642.642,0,0,1,.3-.5c1.941-1.193,4.019-2.458,6.54-3.979a.642.642,0,1,1,.663,1.1c-2.395,1.445-4.39,2.657-6.246,3.8-.033.6-.05,1.226-.05,1.9,0,1.7.106,3.437.208,5.12l.039.646a.643.643,0,0,1-.6.68Z" transform="translate(-1814.315 -2192.256)" fill="#707070"/>
      </g>
      <g id="Group_1788" data-name="Group 1788" transform="translate(44.217 44.42)">
        <path id="Path_993" data-name="Path 993" d="M1811.047,2197.919a.634.634,0,0,1-.363-.113c-1.2-.825-2.4-1.7-3.562-2.551-.853-.624-1.7-1.248-2.564-1.855a.642.642,0,1,1,.742-1.049c.865.611,1.723,1.239,2.581,1.867,1.151.843,2.343,1.715,3.529,2.528a.643.643,0,0,1-.364,1.173Z" transform="translate(-1804.288 -2192.233)" fill="#707070"/>
      </g>
    </g>
  </g>
</svg>
