<svg xmlns="http://www.w3.org/2000/svg" width="39.599" height="39.354" viewBox="0 0 39.599 39.354">
  <g id="Group_3534" data-name="Group 3534" transform="translate(0 0)">
    <g id="Group_3518" data-name="Group 3518" transform="translate(3.075 3.101)">
      <path id="Path_25534" data-name="Path 25534" d="M6002.692,1222.433a2.22,2.22,0,0,0-.956.778.98.98,0,0,0-1.46.341,9.217,9.217,0,0,0-.645,1.846,11.183,11.183,0,0,0,.094-1.365,1.3,1.3,0,0,0,.549-1.045c0-.066,0-.132,0-.2a1.079,1.079,0,0,0-.87-1.086,1.394,1.394,0,0,0-2.229.168c-2.059.142-4.211-.022-6.238.063-2.939.122-5.786.473-8.7.8a.474.474,0,0,0,0,.946c3.022.3,5.967.609,9.012.695,1.449.041,2.9.034,4.351.04.416,0,.865.033,1.32.056a9.834,9.834,0,0,1-.511,2.516c-1.243.106-2.062,1.168-3.4,1.086-1.467-.09-2.245-1.444-3.624-1.708a4.292,4.292,0,0,0-4.783,2.932c-.11.3.292.466.493.287.035-.031.07-.058.105-.088a.262.262,0,0,0,.212.238c.4.077.835.118,1.257.194.129.031.258.06.388.084a2.633,2.633,0,0,1,.885.4,4.473,4.473,0,0,1,1.33,3.017,11.194,11.194,0,0,0-3.017,1.1.6.6,0,0,0,0,1.026c3.111,1.539,7.765-1.051,9.957-3.216a11.924,11.924,0,0,0,3.287-6.152,1.377,1.377,0,0,0,.4.956,4.581,4.581,0,0,0-.681.927c-.113.207.08.53.333.433,2.053-.783,4.891-1.484,4.927-4.235C6004.5,1223.281,6003.887,1222.028,6002.692,1222.433Zm-9.172,8.7q-.106-.142-.2-.292c.183,0,.369-.005.557-.021C5993.76,1230.925,5993.641,1231.029,5993.52,1231.13Z" transform="translate(-5970.49 -1221.218)" fill="#e0dfe6"/>
      <path id="Path_25535" data-name="Path 25535" d="M5960.067,1229.156a1.726,1.726,0,0,0,.338-.759,1.165,1.165,0,0,0-1.93-1.124c-.267.229-.637.1-1.027.007a4.748,4.748,0,0,0-1.853-.258.383.383,0,0,0-.278.364c0,.033,0,.066,0,.1a.274.274,0,0,0-.09,0c-1.437.192-.926,2.146-.286,2.9,1.051,1.236,2.932,1.576,4.394,2.079,1.063.366,1.667-1.02,1.115-1.724a.906.906,0,0,0,.271-.432A.955.955,0,0,0,5960.067,1229.156Zm-3.865-.092a3.711,3.711,0,0,0,1.13.563.6.6,0,0,0-.011.129,3.483,3.483,0,0,1-.875-.454A1.292,1.292,0,0,1,5956.2,1229.064Z" transform="translate(-5954.302 -1224.599)" fill="#e0dfe6"/>
      <path id="Path_25536" data-name="Path 25536" d="M5999.518,1260.954q-.948.069-1.9.129a1.05,1.05,0,0,0-.709-.658c-1.013-.271-2.037-.38-3.03-.748-.52-.192-.863-.355-1.038-.9a5.81,5.81,0,0,0-.346-1.328.663.663,0,0,0-1.033-.133,2.65,2.65,0,0,0,.51,3.7,5.205,5.205,0,0,0,.575.394c-2.365.173-4.663.546-7,.793a.314.314,0,0,0,0,.628c2.356.223,4.606.506,6.988.505,1.492,0,2.985-.058,4.476-.136a.867.867,0,0,0-.615.624,22.577,22.577,0,0,0-.012,4.412c.07,1.337-.1,2.52.746,3.6a.875.875,0,0,0,1.363-.175c.711-1.117.338-2.453.238-3.72a18.352,18.352,0,0,0-.6-4.114.948.948,0,0,0-.7-.646q1.042-.057,2.083-.124C6000.866,1262.974,6000.869,1260.856,5999.518,1260.954Z" transform="translate(-5972.53 -1242.367)" fill="#e0dfe6"/>
      <path id="Path_25537" data-name="Path 25537" d="M5998.753,1275.984c-.24-.036-.511.2-.348.452.654.993,1.825,2.474,1.174,3.725-.562,1.081-2.31.911-3.2,1.734a.636.636,0,0,0,.279,1.057c2.11.284,4.434.05,5.091-2.354A3.679,3.679,0,0,0,5998.753,1275.984Z" transform="translate(-5978.985 -1253.475)" fill="#e0dfe6"/>
      <path id="Path_25538" data-name="Path 25538" d="M5989.448,1294.134a1.155,1.155,0,0,0-1.166,1.994c.04.025.084.05.13.075-2.562.017-5.123.088-7.683.247-1.734.108-3.472.214-5.2.435a14.5,14.5,0,0,0-4.468.955.4.4,0,0,0,.093.714,17.178,17.178,0,0,0,4.681.193c1.732-.032,3.463-.132,5.2-.173,3.468-.084,6.938-.123,10.406-.065a1.177,1.177,0,0,0,1.111-.845C5993.156,1295.79,5990.711,1294.884,5989.448,1294.134Z" transform="translate(-5964.064 -1264.067)" fill="#e0dfe6"/>
      <path id="Path_25539" data-name="Path 25539" d="M6029.492,1224.587a.873.873,0,0,0-.624-.624l-.188-.046a.633.633,0,0,0-.685.279c-.33.434-.2.7-.132,1.189a2.983,2.983,0,0,1-.565,2.207c-.83,1.166-2.225,1.611-3.34,2.433a.3.3,0,0,0,.149.55A5.35,5.35,0,0,0,6029.492,1224.587Z" transform="translate(-5995.251 -1222.797)" fill="#e0dfe6"/>
      <path id="Path_25540" data-name="Path 25540" d="M6001.832,1270.645a1.133,1.133,0,0,0-.769-.785c.1-1.444-1.6-2.172-1.9-3.7a65.207,65.207,0,0,1,.02-6.88,1.086,1.086,0,0,0,.768-.768,4.916,4.916,0,0,0-.379-3.472c-.719-1.1-1.932-1.22-3.134-1.356-.5-.057-1.9.067-2.216-.315-.435-.518.6-1.138,1.071-1.512,1.3-1.039,2.835-1.706,4.131-2.726a.548.548,0,0,0-.384-.928,9.638,9.638,0,0,0-4.475,1.885c-1.019.693-2.632,1.7-2.708,3.077a2.524,2.524,0,0,0,1.972,2.315,12.65,12.65,0,0,0,2.069.332c.573.073,1.56.024,1.923.6a1.99,1.99,0,0,1,.067,1.132c-1.431,1.174-.885,4.095-.9,5.7a12.193,12.193,0,0,0,.189,4.163c.445,1.225,1.645,1.775,1.962,3.089a.785.785,0,0,0,.141.291.767.767,0,0,0-.517.093,12.578,12.578,0,0,0-2.517.161c-1.574.084-3.149.127-4.725.173s-3.15.063-4.726.079a13.418,13.418,0,0,0-4.5.4.37.37,0,0,0-.087.667c1.574.805,3.487.782,5.221.88q3.3.186,6.616.1a52.039,52.039,0,0,0,6.129-.307A1.814,1.814,0,0,0,6001.832,1270.645Z" transform="translate(-5970.631 -1237.114)" fill="#e0dfe6"/>
      <path id="Path_25541" data-name="Path 25541" d="M5990.516,1272.156a17.044,17.044,0,0,0-3.923-.382c-1.556-.085-3.11-.171-4.667-.206-2.549-.057-5.546-.178-7.922.9a.311.311,0,0,0,.074.563c2.613.568,5.492.325,8.159.476s5.652.81,8.279.389C5991.439,1273.744,5991.3,1272.39,5990.516,1272.156Z" transform="translate(-5965.819 -1250.855)" fill="#e0dfe6"/>
    </g>
    <g id="Group_3522" data-name="Group 3522" transform="translate(25.904 12.701)">
      <g id="Group_3521" data-name="Group 3521">
        <g id="Group_3520" data-name="Group 3520">
          <g id="Group_3519" data-name="Group 3519">
            <path id="Path_25542" data-name="Path 25542" d="M6010.051,1244.89c.121-.1.24-.205.355-.313-.188.016-.374.021-.557.021Q6009.945,1244.748,6010.051,1244.89Z" transform="translate(-6009.85 -1244.577)" fill="none"/>
          </g>
        </g>
      </g>
    </g>
    <g id="Group_3533" data-name="Group 3533" transform="translate(0 0)">
      <g id="Group_3532" data-name="Group 3532">
        <g id="Group_3523" data-name="Group 3523" transform="translate(7.865)">
          <path id="Path_25543" data-name="Path 25543" d="M5967.311,1238.273a.436.436,0,0,1-.437-.425c0-.088,0-.176,0-.264a8,8,0,0,1,.289-2.183.436.436,0,0,1,.405-.317l.232-.008c2.233-.071,6.879-.218,6.879-2.252,0-1.246-1.549-2.2-2.575-2.836l-.24-.149c-4.083-2.552-5.906-7.019-5.906-14.481q0-.552.011-1.1a.436.436,0,0,1,.433-.429l24.66-.155a.436.436,0,0,1,.438.422c.025.81.048,1.6.048,2.415,0,9.818-5.426,12.772-8.034,14.192a4.927,4.927,0,0,0-1.207.772,2.845,2.845,0,0,0-.133.808c0,1.364,1.481,2.832,4.733,2.832.424,0,.861-.016,1.283-.032l.237-.009a.446.446,0,0,1,.444.351,12.4,12.4,0,0,1,.217,1.724.436.436,0,0,1-.43.46c-1.5.021-2.99.03-4.484.039-5,.031-10.176.064-15.34.548C5968.331,1238.244,5967.833,1238.269,5967.311,1238.273Zm.609-2.327a7.238,7.238,0,0,0-.175,1.446c.339-.011.672-.033,1.008-.064,5.2-.488,10.394-.52,15.416-.552,1.337-.008,2.675-.016,4.015-.033q-.038-.391-.1-.784c-.386.014-.782.028-1.175.028-3.852,0-5.605-1.92-5.605-3.7a3.168,3.168,0,0,1,.279-1.292,4.368,4.368,0,0,1,1.516-1.055c2.648-1.442,7.579-4.126,7.579-13.426,0-.657-.015-1.306-.035-1.963l-23.807.15c0,.221,0,.442,0,.663,0,7.128,1.695,11.366,5.5,13.742l.235.146c1.19.735,2.989,1.845,2.989,3.578C5975.549,1235.671,5970.64,1235.86,5967.92,1235.946Z" transform="translate(-5965.956 -1213.673)" fill="#707070"/>
        </g>
        <g id="Group_3524" data-name="Group 3524" transform="translate(7.459 23.081)">
          <path id="Path_25544" data-name="Path 25544" d="M5965.405,1284.665a.435.435,0,0,1-.434-.47,4.953,4.953,0,0,1,3.144-4.079c-.1-1.366-.137-2.75-.172-4.092-.044-1.662-.089-3.38-.256-5.046a.436.436,0,0,1,.868-.087c.169,1.7.215,3.433.26,5.11.038,1.44.077,2.929.194,4.379a.436.436,0,0,1-.3.452,4.143,4.143,0,0,0-2.792,2.951l23.112-.43c-.1-1.212-1.3-2.272-2.5-2.8a.434.434,0,0,1-.259-.395c-.011-1.134-.031-2.272-.052-3.413-.028-1.594-.058-3.242-.058-4.857q0-.813.011-1.621a.436.436,0,0,1,.873.012q-.012.8-.011,1.609c0,1.608.03,3.251.058,4.841.019,1.051.038,2.1.049,3.146,1.329.662,2.764,1.957,2.764,3.63,0,.1,0,.2-.01.3a.438.438,0,0,1-.428.408Z" transform="translate(-5964.97 -1269.836)" fill="#707070"/>
        </g>
        <g id="Group_3525" data-name="Group 3525" transform="translate(8.271 2.944)">
          <path id="Path_25545" data-name="Path 25545" d="M5974.443,1222.518c-1.674,0-3.355-.1-4.98-.2-.7-.043-1.4-.086-2.1-.121a.436.436,0,0,1-.414-.458.441.441,0,0,1,.457-.414c.7.035,1.409.078,2.114.122,1.613.1,3.281.2,4.928.2,1.39,0,2.915-.146,4.682-.316a83.73,83.73,0,0,1,8.492-.492c1.392,0,2.783.061,4.088.123a.436.436,0,0,1,.415.456.44.44,0,0,1-.456.415c-1.3-.062-2.674-.122-4.047-.122a82.967,82.967,0,0,0-8.408.489C5977.42,1222.37,5975.875,1222.518,5974.443,1222.518Z" transform="translate(-5966.944 -1220.837)" fill="#707070"/>
        </g>
        <g id="Group_3526" data-name="Group 3526" transform="translate(16.067 24.929)">
          <path id="Path_25546" data-name="Path 25546" d="M5989.956,1282.066h-.07a3.872,3.872,0,0,1-3.972-3.827,4.036,4.036,0,0,1,4.015-3.906,3.294,3.294,0,0,1,.336.01,4.1,4.1,0,0,1,3.818,3.406,3.17,3.17,0,0,1,.032.436,3.881,3.881,0,0,1-1.186,2.685A4.191,4.191,0,0,1,5989.956,1282.066Zm.021-6.862h-.037a3.152,3.152,0,0,0-3.153,3.029,3.015,3.015,0,0,0,3.112,2.959,3.257,3.257,0,0,0,2.417-.944,2.991,2.991,0,0,0,.926-2.062,2.216,2.216,0,0,0-.023-.316,3.223,3.223,0,0,0-3.019-2.659C5990.125,1275.207,5990.051,1275.2,5989.976,1275.2Z" transform="translate(-5985.914 -1274.332)" fill="#707070"/>
        </g>
        <g id="Group_3527" data-name="Group 3527" transform="translate(18.337 27.345)">
          <path id="Path_25547" data-name="Path 25547" d="M5993.519,1283.921a.435.435,0,0,1-.427-.351,6.88,6.88,0,0,1-.12-1.4c0-.233.007-.467.013-.7-.286.19-.575.381-.879.571a.436.436,0,0,1-.462-.739c.358-.224.694-.448,1.029-.672.174-.115.348-.231.525-.347a.436.436,0,0,1,.675.365v.072c0,.246-.007.492-.014.738s-.014.475-.014.713a6.13,6.13,0,0,0,.1,1.23.435.435,0,0,1-.342.513A.444.444,0,0,1,5993.519,1283.921Z" transform="translate(-5991.438 -1280.21)" fill="#707070"/>
        </g>
        <g id="Group_3528" data-name="Group 3528" transform="translate(10.719 32.882)">
          <path id="Path_25548" data-name="Path 25548" d="M5977.419,1295.2c-1.473,0-2.82-.057-4.121-.176a.436.436,0,0,1,.079-.869c1.274.116,2.6.172,4.042.172,3.034,0,6.506-.282,8.8-.469,1.292-.1,2.226-.18,2.695-.18.44,0,.873.029,1.292.056s.838.056,1.267.056a.436.436,0,0,1,0,.872c-.458,0-.9-.029-1.325-.058s-.821-.055-1.233-.055c-.434,0-1.4.078-2.624.178C5983.981,1294.921,5980.487,1295.2,5977.419,1295.2Z" transform="translate(-5972.901 -1293.683)" fill="#707070"/>
        </g>
        <g id="Group_3529" data-name="Group 3529" transform="translate(0 0.935)">
          <path id="Path_25549" data-name="Path 25549" d="M5961.193,1231.492a4.828,4.828,0,0,1-1.705-.646,26.411,26.411,0,0,0-4.958-2.351c-3.792-1.5-7.711-3.051-7.711-6.854,0-2.243,1.862-5.681,4.157-5.681.139,0,.281,0,.422-.006s.3-.005.448-.005c2.095,0,3.4.921,3.4,2.4a3.023,3.023,0,0,1-2.92,3.16,2.254,2.254,0,0,1-2.5-1.991,2.025,2.025,0,0,1,.018-.262.436.436,0,1,1,.865.111,1.233,1.233,0,0,0-.01.15c0,.815.995,1.119,1.623,1.119a2.14,2.14,0,0,0,2.048-2.287c0-1.422-1.933-1.532-2.524-1.532-.144,0-.288,0-.432.005s-.293.006-.438.006c-1.75,0-3.285,3-3.285,4.809,0,3.211,3.478,4.586,7.16,6.043a27.019,27.019,0,0,1,5.128,2.441,4.7,4.7,0,0,0,1.215.5.443.443,0,0,1,.428.444A.43.43,0,0,1,5961.193,1231.492Z" transform="translate(-5946.819 -1215.949)" fill="#707070"/>
        </g>
        <g id="Group_3530" data-name="Group 3530" transform="translate(26.631 0.501)">
          <path id="Path_25550" data-name="Path 25550" d="M6012.055,1230.489a.436.436,0,0,1-.233-.8,13.789,13.789,0,0,1,2.8-1.087c3.62-1.157,9.091-2.906,9.091-8.608,0-2.1-.953-4.224-3.082-4.224a2.729,2.729,0,0,0-2.2,2.293c0,.78.344,1.127,1.115,1.127a1.215,1.215,0,0,0,1.282-.937.436.436,0,1,1,.863.129,2.056,2.056,0,0,1-2.145,1.68,1.815,1.815,0,0,1-1.987-2,3.593,3.593,0,0,1,3.075-3.165c2.328,0,3.955,2.1,3.955,5.1,0,6.34-5.837,8.2-9.7,9.439a13.532,13.532,0,0,0-2.6.994A.437.437,0,0,1,6012.055,1230.489Z" transform="translate(-6011.618 -1214.892)" fill="#707070"/>
        </g>
        <g id="Group_3531" data-name="Group 3531" transform="translate(15.148 16.366)">
          <path id="Path_25551" data-name="Path 25551" d="M5988.666,1255.357a10.161,10.161,0,0,1-4.752-1.037.436.436,0,1,1,.4-.775,9.323,9.323,0,0,0,4.353.94,24.432,24.432,0,0,0,3.851-.377.436.436,0,0,1,.14.861A25.207,25.207,0,0,1,5988.666,1255.357Z" transform="translate(-5983.677 -1253.496)" fill="#707070"/>
        </g>
      </g>
    </g>
  </g>
</svg>
