<svg id="Group_3260" data-name="Group 3260" xmlns="http://www.w3.org/2000/svg" width="88.013" height="88.014" viewBox="0 0 88.013 88.014">
  <g id="Group_3199" data-name="Group 3199" transform="translate(0)">
    <circle id="Ellipse_254" data-name="Ellipse 254" cx="44.007" cy="44.007" r="44.007" fill="#fff"/>
    <g id="Group_3192" data-name="Group 3192" transform="translate(7.522 8.893)">
      <g id="Group_2832" data-name="Group 2832" transform="translate(15.394 2.308)">
        <g id="Group_2825" data-name="Group 2825" transform="translate(0)">
          <g id="Group_2822" data-name="Group 2822">
            <g id="Group_2821" data-name="Group 2821">
              <g id="Group_2817" data-name="Group 2817" transform="translate(0 4.888)">
                <path id="Path_12587" data-name="Path 12587" d="M3748.325,4481.614a22.093,22.093,0,0,0-8.455-7.408c-3.418-1.552-8.222-2.582-11.851-1.264a.972.972,0,0,0-.185,1.765c3.576,1.647,7.719.926,11.272,2.82,3.348,1.786,5.861,5.213,7.513,8.548a26.747,26.747,0,0,1,.413,23c-6.438,14.118-27.877,19.673-40.344,10.242a.052.052,0,0,0-.08.065c7.753,13.7,28.56,10.634,39,2.034C3757.953,4511.257,3757.23,4493.768,3748.325,4481.614Z" transform="translate(-3706.6 -4472.338)" fill="#e0dfe6"/>
              </g>
              <g id="Group_2818" data-name="Group 2818" transform="translate(25.052 5.761)">
                <path id="Path_12588" data-name="Path 12588" d="M3763.21,4492.371a31.479,31.479,0,0,0-5.535-9.7c-3.9-4.492-10.9-10.559-17.418-8.89a.5.5,0,0,0-.117.9c2.357,1.362,4.917,2.24,7.2,3.8a19.566,19.566,0,0,1,6.2,6.807,66.769,66.769,0,0,1,6.565,16.08,1.621,1.621,0,0,0,2.688.71C3765.329,4499.265,3764.418,4495.6,3763.21,4492.371Z" transform="translate(-3739.903 -4473.498)" fill="#e0dfe6"/>
              </g>
              <g id="Group_2819" data-name="Group 2819" transform="translate(11.577)">
                <path id="Path_12589" data-name="Path 12589" d="M3758.444,4473.684a24.147,24.147,0,0,0-21.167-7.583c-1.018.16-.769,1.607.044,1.853,7.441,2.25,15.511,4.647,19.813,11.723,2.363,3.886,3.3,8.593,4.163,13.007a43.314,43.314,0,0,1,.458,12.834,26.307,26.307,0,0,1-11.864,19.86c-8.293,5.67-17.763,5.64-27.286,7.236-.9.15-.751,1.513.041,1.7,15.031,3.608,30.192,5.772,42.676-16.509,3.966-7.078,3.244-14.521,1.669-22.238C3765.44,4487.97,3763.756,4479.647,3758.444,4473.684Z" transform="translate(-3721.99 -4465.84)" fill="#e0dfe6"/>
              </g>
              <g id="Group_2820" data-name="Group 2820" transform="translate(6.465 53.927)">
                <path id="Path_12590" data-name="Path 12590" d="M3754.919,4537.725c-2.7,1.927-4.846,4.455-7.4,6.551a31.349,31.349,0,0,1-20.695,6.987c-3.795-.178-7.358-1.354-11-2.3a.5.5,0,0,0-.479.824c5.808,5.381,21.813,5.8,29.113,3.691,7.009-2.024,9.945-6.986,12.332-14.317A1.284,1.284,0,0,0,3754.919,4537.725Z" transform="translate(-3715.194 -4537.528)" fill="#e0dfe6"/>
              </g>
            </g>
          </g>
          <g id="Group_2824" data-name="Group 2824" transform="translate(6.653 16.841)">
            <g id="Group_2823" data-name="Group 2823">
              <path id="Path_12591" data-name="Path 12591" d="M3724.488,4496c1.149.235,3.083-.071,4.011.391q1.7-.227-.068.684a8.177,8.177,0,0,1-2.507,1.5c-2.636,1.338-3.235,6.264.221,7.116,3.478.857,9.739,2.857,6.666,7.784-2.75,4.407-8.778,2.562-12.375.7-4.416-2.285-7.149,4.949-2.779,7.21,7.617,3.941,18.84,3.438,22.648-5.612,3.78-8.984-3.345-15.312-11.381-17.292l.221,7.117c4.443-2.257,10.358-5.542,8.5-11.6-1.786-5.811-7.734-4.728-12.392-5.684-4.865-1-5.592,6.7-.763,7.687Z" transform="translate(-3715.445 -4488.228)" fill="#e0dfe6"/>
            </g>
          </g>
        </g>
      </g>
      <g id="Group_3182" data-name="Group 3182" transform="translate(0)">
        <g id="Group_2830" data-name="Group 2830">
          <g id="Group_2827" data-name="Group 2827" transform="translate(5.385 5.439)">
            <g id="Group_2826" data-name="Group 2826">
              <path id="Path_12592" data-name="Path 12592" d="M3724.222,4529.8c-19.1,0-30.927-15.941-30.927-30.709A29.062,29.062,0,0,1,3722.266,4470a29.873,29.873,0,0,1,18.868,6.4c7.77,6.32,11.388,13.7,11.388,23.234C3752.521,4515.987,3739.562,4529.8,3724.222,4529.8Zm-1.957-58.2a27.467,27.467,0,0,0-27.377,27.495c0,14,11.215,29.117,29.334,29.117,14.476,0,26.705-13.083,26.705-28.568,0-9.014-3.431-16-10.8-22A28.277,28.277,0,0,0,3722.266,4471.6Z" transform="translate(-3693.295 -4470.003)" fill="#0616ea"/>
            </g>
          </g>
          <g id="Group_2829" data-name="Group 2829">
            <g id="Group_2828" data-name="Group 2828">
              <path id="Path_12593" data-name="Path 12593" d="M3722.694,4533.447a36.057,36.057,0,0,1-26.308-11.22,36.741,36.741,0,0,1-10.25-25.081,34.344,34.344,0,0,1,34.236-34.374,35.309,35.309,0,0,1,22.3,7.567c9.184,7.47,13.461,16.2,13.461,27.461C3756.133,4517.122,3740.82,4533.447,3722.694,4533.447Zm-2.322-69.083a32.749,32.749,0,0,0-32.642,32.782c0,16.693,13.367,34.708,34.965,34.708,17.262,0,31.846-15.6,31.846-34.055,0-10.748-4.091-19.082-12.873-26.226A33.72,33.72,0,0,0,3720.372,4464.364Z" transform="translate(-3686.136 -4462.772)" fill="#0616ea"/>
            </g>
          </g>
        </g>
        <path id="Path_12594" data-name="Path 12594" d="M3725.347,4514.933c-1.205-.12-2.814-2.083-3.343-2.728a1.946,1.946,0,1,0-3.011,2.468c1.563,1.906,3.494,3.888,5.969,4.134,5.985.593,12.316-1.731,12.963-8.264a9.831,9.831,0,0,0-5.67-9.843,10.284,10.284,0,0,0,2.84-5.613c.351-3.531-2.334-6.485-6.245-6.874a8.935,8.935,0,0,0-7.749,3.062,1.947,1.947,0,0,0,3.01,2.469,5.072,5.072,0,0,1,4.354-1.657c1.786.177,2.894,1.228,2.756,2.615s-1.421,3.185-3.817,5.381a1.946,1.946,0,0,0,.912,3.339c3.021.64,6.1,3.02,5.734,6.736C3733.514,4515.585,3726.182,4515.016,3725.347,4514.933Z" transform="translate(-3694.167 -4469.063)" fill="#0616ea"/>
      </g>
    </g>
  </g>
</svg>
