<svg xmlns="http://www.w3.org/2000/svg" width="402.787" height="393.428" viewBox="0 0 402.787 393.428">
  <g id="Group_3329" data-name="Group 3329" transform="translate(0.497 0.536)">
    <path id="Path_25384" data-name="Path 25384" d="M5808.085,2137.459c-28.683,15.57-45.361,42.816-54.3,62.929a1.738,1.738,0,0,1-2.24.862,1.7,1.7,0,0,1-.859-2.24c9.152-20.595,26.26-48.509,55.78-64.534a1.681,1.681,0,0,1,.8-.2,1.7,1.7,0,0,1,.815,3.186Z" transform="translate(-5686.47 -2071.728)" fill="#707070" stroke="rgba(0,0,0,0)" stroke-width="1"/>
    <g id="Group_3137" data-name="Group 3137" transform="translate(0 0)">
      <g id="Group_3134" data-name="Group 3134" transform="translate(0 3.035)">
        <g id="Group_3133" data-name="Group 3133">
          <g id="Group_3132" data-name="Group 3132">
            <g id="Group_3130" data-name="Group 3130" transform="translate(0 29.001)">
              <g id="Group_3120" data-name="Group 3120">
                <path id="Path_18051" data-name="Path 18051" d="M5501.427,2269.5c2.289-11.754,19.8-10.687,22.728,0,5.134,18.716,12.021,33.864,26.872,47.239,13.405,12.074,24.348.043,38.837-1.67a4.941,4.941,0,0,1,4.785,3.642c4.513,26.323-34.381,33.688-51.874,23.966C5520.1,2330.075,5496.261,2296.027,5501.427,2269.5Z" transform="translate(-5224.909 -2104.895)" fill="#e0dfe6" stroke="rgba(0,0,0,0)" stroke-width="1"/>
                <path id="Path_18052" data-name="Path 18052" d="M5552.319,2239.455c1.225-2.632,2.95-4.987,4.041-7.7,1.056-2.628,1.711-5.5,2.5-8.216,1.882-6.478,10.109-5.62,12.322,0,3.052,7.758,2.249,18.541-2.2,25.659a9.84,9.84,0,0,1-13.2,3.461C5550.937,2249.822,5550.111,2244.2,5552.319,2239.455Z" transform="translate(-5252.901 -2104.52)" fill="#e0dfe6" stroke="rgba(0,0,0,0)" stroke-width="1"/>
                <path id="Path_18053" data-name="Path 18053" d="M5516.918,2271.335c2.218-3.189,5.96-5.158,9.892-4.025,11.2,3.226,14.121,18.061,21.051,26.4,3.608,4.343,7.591,8.732,12.459,11.676,4.961,3,10.061,2.46,15.28,4.163a4.5,4.5,0,0,1,3.081,5.425c-4.515,17.308-28.927,8.328-38.456,1.528C5529.108,2308.566,5506.589,2286.194,5516.918,2271.335Z" transform="translate(-5222.171 -2104.948)" fill="#e0dfe6" stroke="rgba(0,0,0,0)" stroke-width="1"/>
                <path id="Path_18054" data-name="Path 18054" d="M5623.577,2247.561c2.416-16.945,10-28.957,18.439-43.224,2.325-3.927,8.07-1.259,7.165,3.021-4.28,20.238-7.531,47.728-1.277,67.749,6.079,19.463,20.6,26.037,35.8,37.078a8.01,8.01,0,0,1,2.872,3.773,65.741,65.741,0,0,0,18.972,4.372c25.072,1.839,43.134-13.4,65.411-21.433,2.354-.85,4.05,1.647,3.692,3.692-5.27,30.089-44.474,41.51-71.028,39.265-17.1-1.446-44.654-10.571-57.6-26.737a78.352,78.352,0,0,1-18.244-26.945C5622.631,2275.23,5621.619,2261.283,5623.577,2247.561Z" transform="translate(-5525.446 -2104.372)" fill="#e0dfe6" stroke="rgba(0,0,0,0)" stroke-width="1"/>
                <path id="Path_18055" data-name="Path 18055" d="M5705.491,2300.921a61.145,61.145,0,0,0,19.773,9.023c8.276,2.152,16.4,2.133,24.036,6.334,3.964,2.181,5.241,8.739,1.524,11.833-18.712,15.577-48.894.507-64.578-13.142a75.014,75.014,0,0,1-20.473-29.769c-5.548-14.62-3.014-26.44-3.011-41.388,0-5.307,7.953-5.256,8.208,0,.626,12.913,8.753,28.706,18.2,40.914C5689.172,2284.724,5692.2,2293.947,5705.491,2300.921Z" transform="translate(-5542.964 -2104.706)" fill="#e0dfe6" stroke="rgba(0,0,0,0)" stroke-width="1"/>
                <path id="Path_18056" data-name="Path 18056" d="M5631.229,2366.743c17.552-17.094,41.5,11.1,61.323,2.354,6.9-3.046,12.652-6.049,19.9-2.045,7.109,3.925,13.393,13.264,16.112,20.714.949,2.6-2.046,5.677-4.671,4.672-6.174-2.363-13.359-11.276-19.238-11.279-6.851,0-12.747,7.249-20.654,7.563-7.806.309-15.186-2.342-22.381-5.023-9.521-3.549-17.569-3.816-27.367-5.489C5629.065,2377.323,5627.795,2370.088,5631.229,2366.743Z" transform="translate(-5486.095 -2105.787)" fill="#e0dfe6" stroke="rgba(0,0,0,0)" stroke-width="1"/>
                <path id="Path_18057" data-name="Path 18057" d="M5675.563,2384.195a5.192,5.192,0,0,1,5.672-2.308c7.011,1.875,15.347,9.506,20.228,14.592.338.353.668.722,1,1.094,2.9-20.511,22.375-10.692,21.642-8.424-5.98,18.451-3.533,49.131,15.663,54.514,6.543,1.835,3.8,11.692-2.8,10.159a50.884,50.884,0,0,1-6.648-2.048,52.564,52.564,0,0,0,11.145,6.821c4.145,1.824,1.152,9.086-3.114,7.388-11.874-4.721-23.326-6.942-33.166-15.977a49.4,49.4,0,0,1-13.582-21.3c-4.258-4.429-3.095-8.017-4.482-13.191-.8-2.971-3.576-5.794-5.424-8.22C5677.173,2401.361,5670.492,2391.693,5675.563,2384.195Z" transform="translate(-5544.893 -2105.97)" fill="#e0dfe6" stroke="rgba(0,0,0,0)" stroke-width="1"/>
                <path id="Path_18058" data-name="Path 18058" d="M5796.481,2277.908c21.067-4.184,29.059,24.23,36.062,38.386,4.979,10.065,13.149,20.99,25,22.453,3.159.39,14.324-2.4,15.58,3.172,1.967,8.721-6.758,13.84-14.383,15.35-10.977,2.173-22.312-2.977-30.308-10.294-8.788-8.042-14.946-18.546-19.337-29.5a57.456,57.456,0,0,0-10.933-18.242c-4.346-4.869-7.178-7.794-6.854-14.532C5791.449,2281.782,5793.381,2278.523,5796.481,2277.908Z" transform="translate(-5791.284 -2105.041)" fill="#e0dfe6" stroke="rgba(0,0,0,0)" stroke-width="1"/>
                <path id="Path_18059" data-name="Path 18059" d="M5810.751,2251.03c5.8-4.678,13.675-3.475,18.625,1.8,6.808,7.257,10.155,20.16,4.707,28.924-2.168,3.489-6.767,3.213-8.991,0-1.381-2-2.537-4.042-3.709-6.117-6.154,6.458-19.257,1.923-18.852-7.839A23.758,23.758,0,0,1,5810.751,2251.03Z" transform="translate(-5765.817 -2104.779)" fill="#e0dfe6" stroke="rgba(0,0,0,0)" stroke-width="1"/>
                <path id="Path_18060" data-name="Path 18060" d="M5625.478,2122.806a11.133,11.133,0,0,1,1.313-2.81c-3.251-1.542-2.69-7.473,1.706-7.473a3.638,3.638,0,0,1,3.742,3.369,12.513,12.513,0,0,1,8.536.69c3.908,1.719,6.18,4.521,8.336,7.548-.785-8.083,1.464-15.863,8.136-20.109a4.006,4.006,0,0,1,5.448,1.428c2.642,5.575,2.983,11.768,5.439,17.383,2.7,6.174,8.063,10.244,11.438,15.99a8.72,8.72,0,0,1,1.248,4.184c17.138,1.593,30.737-6.51,46.954-11a6.312,6.312,0,0,1,7.908,6.024c.008,25.455-43.683,31.522-62.148,29.007C5655.014,2164.514,5618.351,2146.624,5625.478,2122.806Z" transform="translate(-5488.333 -2103.49)" fill="#e0dfe6" stroke="rgba(0,0,0,0)" stroke-width="1"/>
                <path id="Path_18062" data-name="Path 18062" d="M5761.759,2330.583c8.312,5.445,15.919,11.706,23.561,17.963,4.59-.562,8.818,2.473,10.394,7.321a6.238,6.238,0,0,1-4.32,7.611,11.813,11.813,0,0,1-4.084.182,5.906,5.906,0,0,1-1.831-.412,9.91,9.91,0,0,1-2.066-.91c-10.584-4.827-21.271-9.243-31.375-15.124C5741.29,2340.958,5751.4,2323.794,5761.759,2330.583Z" transform="translate(-5670.383 -2105.501)" fill="#e0dfe6" stroke="rgba(0,0,0,0)" stroke-width="1"/>
                <path id="Path_18063" data-name="Path 18063" d="M5583.841,2361.673a39.008,39.008,0,0,0,16.492-8.764c4.446-4.073,8.011-11.306,13.381-13.926,2.275-1.109,5.429-.74,6.705,1.758,3.893,7.614-1.44,17.9-6,24.158a52.14,52.14,0,0,1-21.8,17.6c-6.24,2.652-13.257,1.447-16.163-5.448A11.382,11.382,0,0,1,5583.841,2361.673Z" transform="translate(-5325.86 -2105.584)" fill="#e0dfe6" stroke="rgba(0,0,0,0)" stroke-width="1"/>
              </g>
              <g id="Group_3122" data-name="Group 3122" transform="translate(60.641 31.215)">
                <g id="Group_3121" data-name="Group 3121">
                  <path id="Path_18064" data-name="Path 18064" d="M5762.128,2161.052c9.229,11.774,19.883,22.555,48.317,24.989h.162a1.883,1.883,0,0,0,1.89-1.976c-1.356-27.4-11.162-36.3-23.581-47.553l-1.153-1.034a1.886,1.886,0,0,0-3.1,1.857,37.233,37.233,0,0,1,1.357,8.771c0,9.2-8.22,12.487-15.914,12.487a37.36,37.36,0,0,1-6.183-.569,1.888,1.888,0,0,0-1.8,3.029Z" transform="translate(-5761.723 -2134.986)" fill="#e0dfe6"/>
                </g>
              </g>
              <g id="Group_3129" data-name="Group 3129" transform="translate(56.452 33.986)">
                <g id="Group_3127" data-name="Group 3127" transform="translate(16.496)">
                  <g id="Group_3123" data-name="Group 3123" transform="translate(97.712 110.598)">
                    <path id="Path_18065" data-name="Path 18065" d="M5676.537,2256.531a16.326,16.326,0,0,1,9.708-6.97c3.3-.729,7.669.717,9.088,3.837.3.134.581.275.84.417a10.721,10.721,0,0,1,5.528,8.755c.236,7.721-7.417,13.668-14.781,12.6C5678.646,2273.97,5671.5,2264.323,5676.537,2256.531Zm10.794,6.74c.761.665,1,.9,2,.852a2.9,2.9,0,0,0,2.8-3.253c-.008-.154-.042-.278-.062-.419-2.081.424-3.847.551-5.5,2.032A7.846,7.846,0,0,0,5687.331,2263.271Z" transform="translate(-5674.862 -2249.375)" fill="#0616ea" stroke="rgba(0,0,0,0)" stroke-width="1"/>
                  </g>
                  <g id="Group_3124" data-name="Group 3124" transform="translate(64.402 73.111)">
                    <path id="Path_18066" data-name="Path 18066" d="M5649.308,2224.078a42.518,42.518,0,0,1,16.436-10.308c20.594-7.253,43.988,4.122,55.266,21.682a.84.84,0,0,1,1.36-.361c13.237,12.717,16.759,39.542,5.873,54.556-12.329,17-36.022,24.663-56.106,19.012-20.613-5.8-32.967-23.361-33.719-44.384-.387-10.8.245-22.6,5.254-32.385a31.886,31.886,0,0,1,3.528-5.413Zm72.722,15.463a3.324,3.324,0,0,1-.729,1.058c.5.682.972,1.388,1.425,2.107Q5722.417,2241.118,5722.029,2239.541Zm-59.529,40.032c10.065,14.363,28.446,15.569,43.173,8.141,8.813-4.445,15.167-9.667,17.289-18.819a3.987,3.987,0,0,1-3.767-2.843c-3.06-8.965-3.208-22.082-9.65-30.011-12.719-8.788-28.35-14.422-42.421-4.476-7.471,5.28-9.729,13.493-9.857,22.261C5657.14,2262.482,5657.349,2272.222,5662.5,2279.573Z" transform="translate(-5638.323 -2211.55)" fill="#e0dfe6" stroke="rgba(0,0,0,0)" stroke-width="1"/>
                  </g>
                  <g id="Group_3125" data-name="Group 3125" transform="translate(27.284 73.085)">
                    <path id="Path_18067" data-name="Path 18067" d="M5620.646,2270.811c-3.766-19.611.175-40.7,11.875-57.009,3.451-4.807,10.979-1.231,9.748,3.549a3.738,3.738,0,0,1,2.3,2.372c1.362,3.844-.668,6.5-2.346,9.981a61.752,61.752,0,0,0-4.69,13.374,58.128,58.128,0,0,0,.06,25.732c3.833,16.563,14.295,30.853,27.882,40.854a85.03,85.03,0,0,0,52.337,16.619,63.383,63.383,0,0,0,23.53-5.14,61.689,61.689,0,0,0,11.1-6.068c3.211-2.221,6.155-5.055,9.876-6.36a.678.678,0,0,1,.76.309c2.495-3.816,4.851-7.752,7.505-11.48.292-.408,1.1-.326,1.049.284a53.188,53.188,0,0,1-26.2,41.576c-14.649,8.518-33.263,10.248-49.82,8.015-19.5-2.629-34.225-13.019-47.006-27.559q-1.332-1.513-2.653-3.065a86.63,86.63,0,0,1-9.618-12.213C5629.01,2294.336,5623.006,2283.1,5620.646,2270.811Z" transform="translate(-5619.267 -2211.524)" fill="#e0dfe6" stroke="rgba(0,0,0,0)" stroke-width="1"/>
                  </g>
                  <g id="Group_3126" data-name="Group 3126">
                    <path id="Path_18068" data-name="Path 18068" d="M5786.933,2152.349c1.429-1.707,3.514-2.679,4.821-4.49,1.756-2.434,2.219-5.738,3.162-8.529a2.2,2.2,0,0,1,4.205,0c2.775,7.289,1.581,21.138-8.777,21.257C5785.869,2160.638,5784.367,2155.412,5786.933,2152.349Z" transform="translate(-5785.682 -2137.781)" fill="#e0dfe6" stroke="rgba(0,0,0,0)" stroke-width="1"/>
                  </g>
                </g>
                <g id="Group_3128" data-name="Group 3128" transform="translate(0 19.093)">
                  <path id="Path_18069" data-name="Path 18069" d="M5813.43,2191.863c-5.025-.756-10.038-1.838-15.041-2.65-7.095-1.151-14.651-2.043-21.445-4.445-8.251-2.917-28.24-13.63-21.342-24.99a5.9,5.9,0,0,1,6.52-2.53,7.86,7.86,0,0,1,1.613.746,5.1,5.1,0,0,1,1.584,1.784c5.469,10.179,15.979,13.919,26.444,17.3,8.136,2.63,18.256,5.308,23.772,12.386C5818.326,2191.5,5815.044,2192.9,5813.43,2191.863Z" transform="translate(-5754.18 -2157.046)" fill="#e0dfe6"/>
                </g>
              </g>
            </g>
            <path id="Path_18070" data-name="Path 18070" d="M5822.136,2339.924c3.818-2.235,8.257-.028,9.665,3.933a3.7,3.7,0,0,1,.134.411c.164.339.321.68.5,1.013a18.8,18.8,0,0,0,1.516,2.457,9.715,9.715,0,0,0,.737.978,12.175,12.175,0,0,0,2.492,1.584,4.635,4.635,0,0,1,1.9,5.8c-.832,1.894-3.315,3.594-5.475,2.687-4.752-1.994-9.382-4.583-12.8-8.525C5818.057,2347.084,5818.31,2342.164,5822.136,2339.924Z" transform="translate(-5784.763 -2076.59)" fill="#e0dfe6" stroke="rgba(0,0,0,0)" stroke-width="1"/>
            <g id="Group_3131" data-name="Group 3131" transform="translate(267.927)">
              <path id="Path_18071" data-name="Path 18071" d="M5496.444,2075.786c-3.735-3.024-8.86-1.379-11.02,2.643a4.437,4.437,0,0,0-.211.42c-.231.338-.455.677-.7,1.007a20.524,20.524,0,0,1-2.03,2.39,10.457,10.457,0,0,1-.952.93,13.181,13.181,0,0,1-2.935,1.294,5.034,5.034,0,0,0-2.985,5.914c.585,2.169,2.972,4.4,5.44,3.78,5.427-1.366,10.821-3.389,15.132-7.065C5499.655,2084.14,5500.186,2078.815,5496.444,2075.786Z" transform="translate(-5371.819 -2074.228)" fill="#e0dfe6" stroke="rgba(0,0,0,0)" stroke-width="1"/>
              <path id="Path_18072" data-name="Path 18072" d="M5587.554,2093.588c-4.218,3.42-8.327,7.026-12.38,10.721-2.153-3.848-7.036-6.373-11.325-2.884-16.477,13.4-33.313,27.107-48.576,41.879-3.281,3.174,1.83,7.912,5.314,5.562,9.685-6.535,19.224-13.159,28.862-19.651-5.017,4.979-10.035,9.926-15.119,14.7-8.5,7.991-15.745,15.777-27.568,18.222-6.566,1.357-13.4,2.271-20.073,3.7a6.958,6.958,0,0,0,1.514-4.316,5.474,5.474,0,0,0-.452-2.839,7.406,7.406,0,0,0-2.216-3.011c-2.389-2.423-6.343-3.239-9.63-2.844a6.125,6.125,0,0,0-5.258,5.089,6.23,6.23,0,0,0,2.791,5.983,7.257,7.257,0,0,1,.584.481c.334.452.652.919.948,1.387a6.315,6.315,0,0,0,3.029,2.352c-1.481.48-2.949,1-4.385,1.6a2.569,2.569,0,0,0,.557,4.887c11.761,2.124,25.427,1.258,37.291.139,11.658-1.1,20.309-6.393,29.275-13.535,20.5-16.33,42.933-33.856,59.8-54.035C5607.337,2099.037,5596.018,2086.724,5587.554,2093.588Z" transform="translate(-5470.607 -2074.383)" fill="#e0dfe6" stroke="rgba(0,0,0,0)" stroke-width="1"/>
            </g>
          </g>
        </g>
      </g>
      <g id="Group_3136" data-name="Group 3136" transform="translate(4.368)">
        <g id="Group_3135" data-name="Group 3135" transform="translate(0 10.315)">
          <path id="Path_18074" data-name="Path 18074" d="M5620.534,2368.065a1.7,1.7,0,0,1,.862-2.24l.9-.406a1.75,1.75,0,0,1,.735-.167,1.66,1.66,0,0,1,.575.1,1.7,1.7,0,0,1,.129,3.136l-.976.443a1.672,1.672,0,0,1-.671.138A1.7,1.7,0,0,1,5620.534,2368.065Z" transform="translate(-5377.592 -2084.103)" fill="#707070" stroke="rgba(0,0,0,0)" stroke-width="1"/>
          <path id="Path_18075" data-name="Path 18075" d="M5577.144,2323.652a1.693,1.693,0,0,1,1.362,2.7c-2.025,2.743-4.193,5.45-6.446,8.047a1.7,1.7,0,0,1-1.282.583,1.674,1.674,0,0,1-1.112-.416,1.7,1.7,0,0,1-.168-2.394c2.188-2.518,4.3-5.154,6.278-7.835A1.7,1.7,0,0,1,5577.144,2323.652Z" transform="translate(-5280.863 -2083.731)" fill="#707070" stroke="rgba(0,0,0,0)" stroke-width="1"/>
          <path id="Path_18076" data-name="Path 18076" d="M5592.84,2354.08c2.756-1.9,5.463-3.924,8.044-6.014a1.68,1.68,0,0,1,1.064-.379,1.553,1.553,0,0,1,.181.01,1.7,1.7,0,0,1,.89,3.007c-2.662,2.154-5.44,4.232-8.254,6.173a1.744,1.744,0,0,1-2.359-.436A1.7,1.7,0,0,1,5592.84,2354.08Z" transform="translate(-5328.493 -2083.946)" fill="#707070" stroke="rgba(0,0,0,0)" stroke-width="1"/>
          <path id="Path_18077" data-name="Path 18077" d="M5773.392,2343.99a1.7,1.7,0,0,1-1.695,1.813,1.671,1.671,0,0,1-1.111-.419c-2.559-2.229-5.084-4.6-7.506-7.052a1.7,1.7,0,0,1,1.209-2.889h.009a1.677,1.677,0,0,1,1.192.5c2.366,2.392,4.829,4.707,7.324,6.885A1.681,1.681,0,0,1,5773.392,2343.99Z" transform="translate(-5667.205 -2083.837)" fill="#707070" stroke="rgba(0,0,0,0)" stroke-width="1"/>
          <path id="Path_18078" data-name="Path 18078" d="M5786.519,2311.715a1.736,1.736,0,0,1,.4.046,1.683,1.683,0,0,1,1.054.761c1.213,1.969,2.5,3.937,3.826,5.847a1.7,1.7,0,0,1-.424,2.362,1.743,1.743,0,0,1-2.361-.427c-1.356-1.953-2.678-3.973-3.93-6a1.7,1.7,0,0,1,.556-2.336A1.683,1.683,0,0,1,5786.519,2311.715Z" transform="translate(-5707.945 -2083.625)" fill="#707070" stroke="rgba(0,0,0,0)" stroke-width="1"/>
          <path id="Path_18079" data-name="Path 18079" d="M5736.745,2356.148a1.7,1.7,0,0,1,.889.25c2.839,1.742,5.784,3.4,8.752,4.925a1.7,1.7,0,0,1,.734,2.285,1.733,1.733,0,0,1-2.279.733c-3.035-1.558-6.057-3.258-8.986-5.054a1.7,1.7,0,0,1,.89-3.14Z" transform="translate(-5613.819 -2084.021)" fill="#707070" stroke="rgba(0,0,0,0)" stroke-width="1"/>
          <path id="Path_18080" data-name="Path 18080" d="M5800.426,2215.845a1.7,1.7,0,0,1-1.161-2.094c.943-3.3,2.034-6.594,3.242-9.8a1.7,1.7,0,0,1,2.19-.987,1.692,1.692,0,0,1,.983,2.184c-1.174,3.118-2.235,6.324-3.152,9.529A1.728,1.728,0,0,1,5800.426,2215.845Z" transform="translate(-5735.883 -2082.655)" fill="#707070" stroke="rgba(0,0,0,0)" stroke-width="1"/>
          <path id="Path_18081" data-name="Path 18081" d="M5742.417,2137.434c-2.654,1.126-5.333,2.372-7.956,3.7a1.724,1.724,0,0,1-2.282-.742,1.7,1.7,0,0,1,.742-2.281c2.669-1.358,5.419-2.637,8.169-3.8a1.7,1.7,0,1,1,1.326,3.123Z" transform="translate(-5606.939 -2082.042)" fill="#707070" stroke="rgba(0,0,0,0)" stroke-width="1"/>
          <path id="Path_18082" data-name="Path 18082" d="M5603.756,2143.464a1.7,1.7,0,0,1,2.484-1.912c2.97,1.71,5.907,3.557,8.729,5.492a1.7,1.7,0,0,1,.44,2.357,1.735,1.735,0,0,1-2.359.441c-2.768-1.9-5.628-3.7-8.5-5.35A1.68,1.68,0,0,1,5603.756,2143.464Z" transform="translate(-5352.039 -2082.106)" fill="#707070" stroke="rgba(0,0,0,0)" stroke-width="1"/>
          <path id="Path_18083" data-name="Path 18083" d="M5567.968,2200.114a1.729,1.729,0,0,1-2.255-.821c-1.405-3.015-2.961-6.011-4.622-8.9a1.7,1.7,0,0,1,2.944-1.689c1.7,2.969,3.3,6.05,4.752,9.158a1.7,1.7,0,0,1-.819,2.254Z" transform="translate(-5262.829 -2082.521)" fill="#707070" stroke="rgba(0,0,0,0)" stroke-width="1"/>
          <path id="Path_18084" data-name="Path 18084" d="M5506.682,2296.039c-8.375-15.55-13.32-32.476-13.047-37.3a17.349,17.349,0,0,1,1.72-6.688c1.384-2.633,3.506-4.028,6.035-3.916,6.14.35,8.466,4.717,10.487,9.55.6,1.435,1.126,2.677,1.493,3.318l.909,1.594,2.573-.989.388-.633a7.273,7.273,0,0,0,1.012-3.323l.013-.166-.015-.167c-.026-.328-.092-.918-.182-1.711L5518,2255c-.548-4.838-1.688-14.9-1.328-21.248.671-11.828,3.266-16.467,5.325-18.277a4.71,4.71,0,0,1,3.605-1.252c2.539.144,5.032,2.4,7.049,6.352l3.092,6.062.9-6.745c1.032-7.748,2.056-12.5,3.131-14.533.5-.939.5-.939,1.8-.863l.121,0a2.273,2.273,0,0,1,.394.041c4.412.889,7.187,6.079,8.245,15.427l.8,7.062,3.2-6.346c2.23-4.423,4.712-6.616,7.327-6.494a8.994,8.994,0,0,1,6.685,3.607,12.082,12.082,0,0,1,2.293,5.827l.3,2.2,2.181-.393a3.635,3.635,0,0,1,.646-.052c.08,0,.165,0,.25.006,2.857.166,6.558,1.808,7.82,8.689.765,4.173.479,9.192.27,12.858l-.025.458c-2.137,37.647-5.1,56.617-10.568,67.664-4.718,9.527-11.53,13.413-23.513,13.413-1.285,0-2.643-.042-4.15-.126C5526.991,2327.378,5514.333,2310.244,5506.682,2296.039Zm37.354,28.908q2.125.122,4.015.125c10.9,0,16.278-3.177,20.415-11.528,5.177-10.458,8.139-29.681,10.221-66.351l.026-.461c.2-3.49.473-8.275-.22-12.05-.229-1.252-.929-5.059-3.848-5.792l-1.192-.3-.852.886c-1.412,1.466-2.734,5.1-3.933,10.806l-.03.176c-.067.553-.118,1.086-.147,1.592l-.012.34c-.02.7-.07,2.3-.145,3.6-.809,14.281-1.894,21.861-3.227,22.531a1.718,1.718,0,0,1-1.712-.1c-.977-.64-1.016-.666-.493-9.86a124.62,124.62,0,0,1,2.547-19.84l.03-.155c.214-1.39.5-2.847.749-4.132a59.46,59.46,0,0,0,1.14-7.569,10.435,10.435,0,0,0-1.718-7.014,5.818,5.818,0,0,0-3.8-2.295l-.6-.085-.551.241c-1.021.446-3.731,1.63-7.132,15.986a220.875,220.875,0,0,0-4.646,30.156,1.706,1.706,0,0,1-.613,1.171,1.617,1.617,0,0,1-1.207.383,1.711,1.711,0,0,1-1.562-1.846c.062-.737.63-7.713,1.625-25.241.673-11.9,0-20.864-1.947-25.938l-2.71-7.057-1.356,7.438c-1.463,8.012-3.174,24.349-5.091,48.553-.08,1.027-.156,2-.27,2.815l-.065.442c-.356,2.13-.775,2.105-1.795,2.041s-1.406-.1-1.528-2.155c.01-.1.021-.233.035-.389l.006-.171c0-.861.056-1.849.12-2.992.121-2.126.282-4.208.481-6.712.178-2.253.363-4.585.495-6.918.918-16.194-3.572-27-6.9-29.2l-1.51-1-1.224,1.335c-1.186,1.293-3.262,5.029-3.858,15.524-.343,6.051.775,15.926,1.313,20.672a25.893,25.893,0,0,1,.283,3.027,10.362,10.362,0,0,1-2.838,6.838,1.771,1.771,0,0,1-1.159.545l-.374.031-.34.156a4.068,4.068,0,0,1-1.932.453c-3.3-.187-4.731-3.006-6.262-6.67-1.554-3.71-3.02-7.215-7.636-7.473l-.455-.025-.425.164c-2.1.806-3.068,4.79-3.21,7.27-.217,3.833,4.418,20.219,12.647,35.5C5515.594,2305.435,5527.94,2324.033,5544.036,2324.947Z" transform="translate(-5209.572 -2082.669)" fill="#707070" stroke="rgba(0,0,0,0)" stroke-width="1"/>
          <path id="Path_18085" data-name="Path 18085" d="M5725.784,2384.9a99.654,99.654,0,0,1-9.2-8.213c-6.207-6.033-12.064-11.729-19.076-11.729-3.449,0-7.173,2.281-11.118,4.7-4.532,2.775-9.667,5.92-15.3,5.92-5.2,0-9.827-3.084-14.3-6.067-4.555-3.04-8.84-5.9-13.665-5.9-6.536,0-10.424,5.329-15.608,13.458-.544.854-1.1,1.711-1.653,2.562a48.813,48.813,0,0,1-6.448,8.08,19.652,19.652,0,0,1-1.664,1.377,1.7,1.7,0,1,1-2-2.743c3.4-2.473,6.07-6.662,8.9-11.1,4.713-7.389,9.585-15.029,18.47-15.029,5.856,0,11,3.433,15.539,6.461,4.242,2.832,8.246,5.5,12.424,5.5,4.679,0,9.179-2.756,13.532-5.421,4.172-2.555,8.486-5.2,12.889-5.2,8.389,0,15.024,6.45,21.438,12.687a88.258,88.258,0,0,0,9.868,8.684,51.938,51.938,0,0,0,7.935,4.083,20.418,20.418,0,0,0,1.989.515,1.7,1.7,0,0,1-.33,3.36,1.587,1.587,0,0,1-.321-.03c-.516-.1-1.023-.226-1.524-.362A37.864,37.864,0,0,1,5725.784,2384.9Z" transform="translate(-5487.705 -2084.058)" fill="#707070" stroke="rgba(0,0,0,0)" stroke-width="1"/>
          <path id="Path_18086" data-name="Path 18086" d="M5679.456,2428.776a1.737,1.737,0,0,1-2.313-.633c-4.38-7.663-6.694-17.074-6.694-27.215a70.681,70.681,0,0,1,.548-8.7,1.7,1.7,0,0,1,1.685-1.484,2.032,2.032,0,0,1,.21.012,1.7,1.7,0,0,1,1.472,1.895,67.151,67.151,0,0,0-.522,8.28c0,9.552,2.159,18.382,6.246,25.532A1.7,1.7,0,0,1,5679.456,2428.776Z" transform="translate(-5482.8 -2084.33)" fill="#707070" stroke="rgba(0,0,0,0)" stroke-width="1"/>
          <path id="Path_18087" data-name="Path 18087" d="M5625.221,2403.6c-.247.041-.489.09-.737.126a1.847,1.847,0,0,1-.244.016,1.7,1.7,0,0,1-.235-3.377c.315-.045.62-.106.932-.159q1.065-.182,2.1-.427c.708-.167,1.408-.352,2.095-.56,6.023-1.823,11.317-5.133,16.607-8.867q.932-.659,1.866-1.332t1.868-1.352l.467-.339a1.7,1.7,0,0,1,1.006-.335,1.664,1.664,0,0,1,.264.021,1.7,1.7,0,0,1,1.413,1.944,1.85,1.85,0,0,1-.083.322,1.687,1.687,0,0,1-.6.784l-1.08.784q-.965.7-1.935,1.4c-5.98,4.281-12.24,8.351-19.541,10.422q-1.025.292-2.078.526Q5626.281,2403.429,5625.221,2403.6Z" transform="translate(-5407.659 -2084.296)" fill="#707070" stroke="rgba(0,0,0,0)" stroke-width="1"/>
          <path id="Path_18088" data-name="Path 18088" d="M5706.486,2384.008l.091,0a1.708,1.708,0,0,1,1.135.435c.373.336.756.651,1.133.979a85.16,85.16,0,0,0,16.957,11.538c.648.333,1.3.654,1.958.969s1.313.615,1.974.912,1.309.6,1.974.872a1.718,1.718,0,0,1,.914,2.22,1.488,1.488,0,0,1-.1.182,1.719,1.719,0,0,1-2.122.729c-.458-.191-.907-.4-1.361-.6-.665-.291-1.333-.572-1.99-.88s-1.313-.646-1.969-.975a88.277,88.277,0,0,1-18.319-12.283c-.439-.38-.885-.749-1.319-1.14a1.718,1.718,0,0,1-.125-2.4A1.674,1.674,0,0,1,5706.486,2384.008Z" transform="translate(-5569.362 -2084.27)" fill="#707070" stroke="rgba(0,0,0,0)" stroke-width="1"/>
          <path id="Path_18089" data-name="Path 18089" d="M5835.781,2216.477c13.912,0,25.872,8.279,29.763,20.6a1.7,1.7,0,0,1-3.234,1.026c-3.442-10.906-14.1-18.233-26.529-18.233-17.441,0-36.267,15.664-36.267,40.969,0,17.019,10.812,24.663,20.351,31.407,4.962,3.51,9.65,6.824,11.874,11.069,2.08,3.969,3.4,9.068,4.681,14,3.072,11.853,5.968,23.03,18.184,23.03a15.61,15.61,0,0,0,11.524-5.422,1.678,1.678,0,0,1,1.171-.556h.084a1.7,1.7,0,0,1,1.254,2.837,18.949,18.949,0,0,1-14.035,6.535c-14.84,0-18.359-13.574-21.462-25.551-1.287-4.967-2.5-9.657-4.406-13.3-1.846-3.522-6.007-6.465-10.827-9.875-9.708-6.862-21.787-15.4-21.787-34.179C5796.122,2233.439,5816.708,2216.477,5835.781,2216.477Z" transform="translate(-5796.122 -2082.776)" fill="#707070" stroke="rgba(0,0,0,0)" stroke-width="1"/>
          <path id="Path_18090" data-name="Path 18090" d="M5834.306,2276.086h.859l.618-.6a1.706,1.706,0,0,1,2.381.021,1.693,1.693,0,0,1,0,2.4,5.085,5.085,0,0,1-3.761,1.574c-6.9,0-10.394-4.366-10.394-12.979,0-1.231.064-2.478.128-3.684.058-1.131.12-2.287.12-3.428,0-7.294-4.413-11.648-11.806-11.648-10.182,0-13.809,9.531-13.809,18.45,0,13.952,7.563,16.352,14.875,18.674,6.347,2.014,10.838,3.924,10.838,10.188a24.975,24.975,0,0,1-.572,4.579,21.937,21.937,0,0,0-.5,3.852c0,3.333,3.049,4.851,5.881,4.851a10.7,10.7,0,0,0,4.767-1.254,1.682,1.682,0,0,1,.749-.177,1.7,1.7,0,0,1,.765,3.214,14.047,14.047,0,0,1-6.281,1.609c-4.5,0-9.273-2.889-9.273-8.244a24.519,24.519,0,0,1,.563-4.471,22.377,22.377,0,0,0,.514-3.959c0-4.073-2.9-5.186-8.472-6.955-7.277-2.309-17.242-5.472-17.242-21.907,0-13.473,6.591-21.842,17.2-21.842,9.375,0,15.2,5.763,15.2,15.04,0,1.193-.064,2.419-.125,3.606s-.125,2.346-.125,3.506C5827.4,2273.125,5829.531,2276.081,5834.306,2276.086Z" transform="translate(-5764.839 -2083.025)" fill="#707070" stroke="rgba(0,0,0,0)" stroke-width="1"/>
          <path id="Path_18091" data-name="Path 18091" d="M5676.695,2151.5c-29.307,0-43.24-18.353-56.714-36.1l-1.191-1.566a1.7,1.7,0,0,1,.084-2.158c18.537-20.8,41.844-30.1,56.719-30.1,19.06,0,37.912,11.047,53.083,31.1a1.691,1.691,0,0,1,.185,1.74C5717.118,2139.719,5700.542,2151.5,5676.695,2151.5Zm47.833-38.64c-14.058-17.729-31.894-27.9-48.935-27.9-12.337,0-33.365,6.969-52.02,26.613l-1.242,1.307,1.091,1.437c13.2,17.375,25.667,33.787,53.273,33.787,22.064,0,36.891-10.177,48.076-33l.588-1.2Z" transform="translate(-5479.968 -2081.573)" fill="#707070" stroke="rgba(0,0,0,0)" stroke-width="1"/>
          <path id="Path_18092" data-name="Path 18092" d="M5676.042,2140.082a26.679,26.679,0,0,1-19.687-7.773,24.239,24.239,0,0,1-7.558-17.842c.195-5.606,2.916-11.012,7.661-15.223a29.407,29.407,0,0,1,18.961-7.308q1.025,0,2.036.086a27.6,27.6,0,0,1,5.45,1.015c9.384,2.76,15.782,11.737,15.919,22.339C5698.994,2128.828,5689.2,2139.449,5676.042,2140.082Zm5.907-43.787a24.467,24.467,0,0,0-4.777-.893,25.511,25.511,0,0,0-18.463,6.381,18.127,18.127,0,0,0-6.52,12.8,20.837,20.837,0,0,0,6.55,15.309,23.116,23.116,0,0,0,16.111,6.827q.514,0,1.033-.026c11.475-.554,19.7-9.5,19.548-21.274C5695.311,2106.175,5690.02,2098.667,5681.949,2096.295Z" transform="translate(-5479.844 -2081.666)" fill="#707070" stroke="rgba(0,0,0,0)" stroke-width="1"/>
          <path id="Path_18093" data-name="Path 18093" d="M5674.747,2125.344c-.157.008-.3.012-.442.012a10.089,10.089,0,0,1-7-2.939,9.249,9.249,0,0,1-2.867-6.82,8.306,8.306,0,0,1,2.946-5.905,10.838,10.838,0,0,1,7.065-2.733c.267,0,.533.011.8.033a10.26,10.26,0,0,1,2.06.382,8.832,8.832,0,0,1,6.143,8.553A9.1,9.1,0,0,1,5674.747,2125.344Zm1.6-14.716a7.1,7.1,0,0,0-1.367-.255c-.19-.014-.344-.021-.5-.021a7.622,7.622,0,0,0-4.845,1.877,4.967,4.967,0,0,0-1.807,3.485,5.862,5.862,0,0,0,1.861,4.288,6.663,6.663,0,0,0,4.639,1.958c.078,0,.156,0,.234,0a5.693,5.693,0,0,0,5.5-5.988A5.44,5.44,0,0,0,5676.35,2110.628Z" transform="translate(-5479.983 -2081.799)" fill="#707070" stroke="rgba(0,0,0,0)" stroke-width="1"/>
          <path id="Path_18094" data-name="Path 18094" d="M5598.021,2121.388a.308.308,0,0,1-.184.161.292.292,0,0,1-.232-.019c-2.336-1.212-10.129-5.239-12.393-6.218a1.7,1.7,0,1,1,1.344-3.116c1.582.684,7.6,3.765,10.83,5.42l.938.481a.28.28,0,0,1,.165.217,10.555,10.555,0,0,1-.2,2.3A3,3,0,0,1,5598.021,2121.388Z" transform="translate(-5315.491 -2081.845)" fill="#707070" stroke="rgba(0,0,0,0)" stroke-width="1"/>
          <path id="Path_18095" data-name="Path 18095" d="M5537.236,2182.258a1.714,1.714,0,0,1-2.135-1,97.811,97.811,0,0,0-9.218-18.2,3.348,3.348,0,0,1-.426-.979c-.751-2.987-.495-4.4-.3-4.786a3.449,3.449,0,0,1,1.554.913,101.925,101.925,0,0,1,11.51,21.728,1.9,1.9,0,0,1-.073,1.479A1.612,1.612,0,0,1,5537.236,2182.258Z" transform="translate(-5196.633 -2082.248)" fill="#707070" stroke="rgba(0,0,0,0)" stroke-width="1"/>
          <path id="Path_18096" data-name="Path 18096" d="M5543.086,2403.828l.529.129.525-.143c6.091-1.654,39.764-16.568,52.741-47.513a1.688,1.688,0,0,1,.923-.916,1.712,1.712,0,0,1,.639-.126,1.7,1.7,0,0,1,1.566,2.354c-14.287,34.069-52.156,49.682-56.481,49.75a3.561,3.561,0,0,1-1.6-.367,1.7,1.7,0,0,1,1.163-3.168Z" transform="translate(-5274.324 -2084.013)" fill="#707070" stroke="rgba(0,0,0,0)" stroke-width="1"/>
          <path id="Path_18097" data-name="Path 18097" d="M5749.979,2365.909a1.7,1.7,0,0,1,2.361.434c13.237,19.2,34.246,30.328,54.563,41.093l4.583,2.434a1.7,1.7,0,0,1,.7,2.294,1.728,1.728,0,0,1-2.3.7l-4.567-2.425c-20.687-10.962-42.064-22.292-55.771-42.169a1.7,1.7,0,0,1,.433-2.359Z" transform="translate(-5692.965 -2084.106)" fill="#707070" stroke="rgba(0,0,0,0)" stroke-width="1"/>
          <path id="Path_18098" data-name="Path 18098" d="M5659.332,2241.445h0s6-6.823,10.2-8.629l.06-.024a37.062,37.062,0,0,1,12.254-3.667c.665-.088,1.361-.141,2.048-.2.389-.036.763-.088,1.159-.115h0c.685-.048,1.37-.069,2.055-.072.043,0,.088,0,.131,0,.188,0,.375.011.561.014a33.284,33.284,0,0,1,20.334,7.558c.2.163.4.32.6.487s.369.328.554.493.4.344.588.524c.029.026.055.055.083.082.268.251.526.511.785.77.149.148.3.292.448.443.3.308.583.625.868.942.1.108.2.212.293.321q.468.535.912,1.087l.031.04a33.659,33.659,0,0,1,7.431,19.17c.011.227.01.457.019.685.01.345.027.69.027,1.035,0,19.851-14.01,31.295-28.393,33.019a31.8,31.8,0,0,1-3.8.237c-14.34,0-35.557-11.6-35.557-36.5A27.828,27.828,0,0,1,5659.332,2241.445Zm-2.479,19.742c1.124,20.909,19.309,30.671,31.724,30.671a28.3,28.3,0,0,0,25.17-15.233c.249-.488.488-.984.71-1.5.01-.023.021-.045.032-.067a31.649,31.649,0,0,0,2.5-12.685c0-16.192-13.632-29.872-29.769-29.872h-.024c-.588,0-1.212.023-1.854.066h-.029a35.737,35.737,0,0,0-13.94,3.555,28.4,28.4,0,0,0-9.353,7.991,26.767,26.767,0,0,0-2.294,3.473,23.346,23.346,0,0,0-1.982,4.813,23.978,23.978,0,0,0-.829,4.414c-.072.759-.122,1.526-.122,2.309h0Q5656.8,2260.175,5656.852,2261.187Z" transform="translate(-5505.983 -2082.885)" fill="#707070" stroke="rgba(0,0,0,0)" stroke-width="1"/>
          <path id="Path_18099" data-name="Path 18099" d="M5698.149,2263.229a11.642,11.642,0,0,0-.142-1.8c-.052-.326-.122-.647-.2-.965a11.205,11.205,0,0,0-7.163-8.018c-.233-.078-.47-.146-.713-.2l-.033-.007a9.765,9.765,0,0,0-2.258-.257h-.011l-3.394-3.375a15.541,15.541,0,0,1,3.4-.4,13.3,13.3,0,0,1,4.009.6c.062.02.128.034.19.054a14.242,14.242,0,0,1,5.337,3.26,15.48,15.48,0,0,1,4.748,11.112,13.864,13.864,0,0,1-3.791,9.722l-.083.086c-.245.255-.5.494-.758.727a14.934,14.934,0,0,1-8.47,3.806c-.322.028-.642.049-.954.05h-.007a15.342,15.342,0,0,1-10.385-4.5c-.075-.071-.138-.15-.209-.222-.3-.3-.595-.6-.868-.918-.2-.227-.376-.469-.561-.708-.134-.172-.275-.34-.4-.516-.2-.28-.383-.576-.565-.869-.092-.149-.193-.293-.281-.444-.174-.3-.329-.617-.484-.932-.076-.156-.162-.309-.234-.468-.139-.306-.255-.625-.375-.942-.066-.178-.143-.354-.2-.534-.1-.308-.182-.627-.265-.946-.052-.2-.113-.389-.156-.589-.074-.334-.122-.679-.172-1.023-.028-.185-.067-.368-.088-.554a14.979,14.979,0,0,1-.09-1.611v-.008a11.951,11.951,0,0,1,1.589-6.009l2.833,2.816a8.27,8.27,0,0,0-.646,3.193c0,6.764,6.215,12.01,11.562,12.01,2.636,0,10.286-2.613,10.286-10.615Z" transform="translate(-5506.474 -2083.059)" fill="#707070" stroke="rgba(0,0,0,0)" stroke-width="1"/>
          <path id="Path_18100" data-name="Path 18100" d="M5766.026,2179.042a1.094,1.094,0,0,0,.263-.162v0A1.073,1.073,0,0,1,5766.026,2179.042Z" transform="translate(-5663.503 -2082.441)" fill="#707070" stroke="rgba(0,0,0,0)" stroke-width="1"/>
          <path id="Path_18101" data-name="Path 18101" d="M5683.724,2185.47l0,0a1.858,1.858,0,0,1-.533-1.179,1.875,1.875,0,0,1,1.514-2.006,1.926,1.926,0,0,1,.361-.035c.018,0,.036,0,.053,0,.04,0,.079.008.118.012a1.975,1.975,0,0,1,.3.05c.042.011.084.024.127.038a1.976,1.976,0,0,1,.285.124c.034.018.07.034.1.055a1.844,1.844,0,0,1,.347.268h0l36.72,36.5,1.526,1.517h0l1.527,1.518h0l2.724,2.709h0l1.532,1.521h0l1.531,1.521,4.268,4.242,1.51,1.5,1.53,1.521h0l2.7,2.68,1.514,1.5h0l1.515,1.506,5.577,5.543,1.536,1.527h0l1.552,1.543h0l2.832,2.815h0l1.637,1.628h0l1.719,1.708,4.752,4.724,0,0a1.78,1.78,0,0,1,.212.26c.008.011.018.02.025.031a1.7,1.7,0,0,1,.121.229c.016.035.039.066.053.1,0,.009,0,.018.008.026a1.9,1.9,0,0,1-.423,2.019l0,0c-.033.033-.071.055-.106.085a1.931,1.931,0,0,1-2.389.052,1.653,1.653,0,0,1-.171-.138l-5.673-5.641-1.5-1.486h0l-1.513-1.5h0l-2.694-2.678h0l-1.5-1.5h0l-1.495-1.486-5.424-5.391-1.5-1.5h0l-1.5-1.494h0l-2.675-2.66h0l-1.5-1.495-1.5-1.5-4.229-4.2-1.525-1.517h0l-1.524-1.515h0l-2.716-2.7h0l-1.525-1.515h0l-1.524-1.517-28.057-27.894Z" transform="translate(-5580.247 -2082.471)" fill="#707070" stroke="rgba(0,0,0,0)" stroke-width="1"/>
        </g>
        <path id="Path_18104" data-name="Path 18104" d="M5601.87,2071.518c11.353,2.594,15.581,17.448,13.505,26.536-1.715,7.508-20.1,26.812-97.954,76.145a1.979,1.979,0,0,1-1.295.293c-16.349-1.965-27.687.807-37.688,3.253-2.544.622-4.907,1.2-7.251,1.68a1.982,1.982,0,0,1-2.013-.8,1.98,1.98,0,0,1-.072-2.167C5519.169,2094.219,5585.2,2067.712,5601.87,2071.518ZM5477.487,2173.9c9.616-2.351,21.568-5.275,38.114-3.456l.295.032.252-.159c80.038-50.774,94.106-67.625,95.369-73.15,1.484-6.5-1.385-19.708-10.528-21.8-3.538-.81-10.5.436-18.635,3.325a151.077,151.077,0,0,0-31.767,16.284c-19.507,12.793-48.269,36.67-74.508,77.76l-1.136,1.777Z" transform="translate(-5218.537 -2071.166)" fill="#707070" stroke="rgba(0,0,0,0)" stroke-width="1"/>
        <path id="Path_18105" data-name="Path 18105" d="M5593,2155.43a1.936,1.936,0,0,1,.381-.036,1.985,1.985,0,0,1,1.941,1.6c.848,4.33,2.607,7.619,4.645,11.427l.959,1.8a1.979,1.979,0,0,1-.831,2.668,1.984,1.984,0,0,1-1.36.178h0a1.974,1.974,0,0,1-1.312-1.008l-.938-1.763c-2.1-3.923-4.082-7.626-5.048-12.547A1.984,1.984,0,0,1,5593,2155.43Z" transform="translate(-5325.302 -2071.917)" fill="#707070" stroke="rgba(0,0,0,0)" stroke-width="1"/>
        <path id="Path_18106" data-name="Path 18106" d="M5499.161,2085.439a1.962,1.962,0,0,1,1.1-.336,1.984,1.984,0,0,1,1.647.874l1.6,2.371c6.132,9.109,12.464,18.519,19.273,27.339a1.978,1.978,0,0,1-2.007,3.138h0a1.951,1.951,0,0,1-1.123-.72c-6.872-8.9-13.224-18.338-19.37-27.467l-1.652-2.454a1.979,1.979,0,0,1,.537-2.745Z" transform="translate(-5155.053 -2071.29)" fill="#707070" stroke="rgba(0,0,0,0)" stroke-width="1"/>
        <path id="Path_18107" data-name="Path 18107" d="M5491.9,2084.126a1.96,1.96,0,0,1,.9-.221,1.989,1.989,0,0,1,1.764,1.07c4.2,8.119,9.019,16.527,15.773,23.013a1.978,1.978,0,1,1-2.738,2.854c-7.171-6.885-12.191-15.628-16.551-24.052A1.981,1.981,0,0,1,5491.9,2084.126Z" transform="translate(-5135.421 -2071.279)" fill="#707070" stroke="rgba(0,0,0,0)" stroke-width="1"/>
        <path id="Path_18108" data-name="Path 18108" d="M5486.679,2088.027a2.04,2.04,0,0,1,.312-.025,1.984,1.984,0,0,1,1.95,1.671c.273,1.733,1.2,2.829,2.679,4.475.343.38.69.768,1.035,1.173a1.979,1.979,0,0,1-3.023,2.555c-.287-.343-.584-.673-.876-1l-.075-.083c-1.564-1.737-3.18-3.53-3.648-6.505A1.982,1.982,0,0,1,5486.679,2088.027Z" transform="translate(-5111.823 -2071.316)" fill="#707070" stroke="rgba(0,0,0,0)" stroke-width="1"/>
        <path id="Path_18109" data-name="Path 18109" d="M5563.715,2139.25a1.948,1.948,0,0,1,1.485.233,9.314,9.314,0,0,0,2.8,1.041c.815.186,1.638.318,2.434.447.949.152,1.733.283,2.49.456a8,8,0,0,1,5.486,3.565,6.743,6.743,0,0,1,.647,4.886,34.208,34.208,0,0,1-1.116,3.893l-.382,1.065,1.129.067a36.82,36.82,0,0,1,5.863.9c4.671,1.068,5.071,3.826,4.586,5.953a19.5,19.5,0,0,1-2,4.587l-.123.228c-.282.524-.549,1.018-.75,1.469a1.982,1.982,0,0,1-2.241,1.119,2.163,2.163,0,0,1-.376-.127,1.977,1.977,0,0,1-.991-2.615c.254-.567.614-1.24.992-1.938a18.182,18.182,0,0,0,1.6-3.5l.183-.726-.7-.272a7.85,7.85,0,0,0-1.072-.316c-5.6-1.281-8.111-.785-8.879-.542l-.033-.044c-.061.044-.118.083-.177.12v0l-.053.031a1.817,1.817,0,0,1-1.468.242,1.984,1.984,0,0,1-1.487-2.372,1.775,1.775,0,0,1,.776-1.176l.151-.136c.47-.546,1.676-2.3,2.7-6.791.431-1.886-.632-3.135-3.158-3.711-.705-.162-1.458-.282-2.187-.4-.957-.156-1.865-.305-2.735-.5a13.023,13.023,0,0,1-3.968-1.515,1.979,1.979,0,0,1,.565-3.615Z" transform="translate(-5284.495 -2071.772)" fill="#707070" stroke="rgba(0,0,0,0)" stroke-width="1"/>
        <path id="Path_18110" data-name="Path 18110" d="M5507.848,2152.836c8.816-6.288,17.943-12.451,26.769-18.409,12.9-8.711,26.222-17.7,38.8-27.242a1.979,1.979,0,0,1,2.389,3.156c-12.656,9.594-26.015,18.615-38.935,27.338-8.833,5.963-17.931,12.1-26.727,18.376a1.984,1.984,0,0,1-1.591.319h0a1.977,1.977,0,0,1-.706-3.537Z" transform="translate(-5217.11 -2071.483)" fill="#707070" stroke="rgba(0,0,0,0)" stroke-width="1"/>
        <path id="Path_18111" data-name="Path 18111" d="M5648.522,2406.565s1.546-8.107,2.4-11.923h0c.023-.1.049-.205.073-.308.043-.193.086-.376.125-.539.006-.028.016-.052.022-.079.341-1.451.688-2.9,1.033-4.337l.439-1.823a1.7,1.7,0,1,1,3.3.789l-.439,1.83c-.47,1.948-.942,3.909-1.4,5.879,0,0-1.819,8.315-2.214,11.14a73.838,73.838,0,0,0-.96,11.285c0,20.785,12.485,35.87,29.687,35.87,16.683,0,25.87-9.382,25.87-26.415a105.4,105.4,0,0,0-1.53-15.417c-.187-1.263-.367-2.54-.544-3.817-.01-.06-.021-.108-.029-.17-.575-3.987-1.315-9.169-.981-13.636l.039-.049c.054-1.439.167-2.815.351-4.16a1.709,1.709,0,0,1,.671-1.138,1.627,1.627,0,0,1,.984-.333,1.767,1.767,0,0,1,.237.017,1.7,1.7,0,0,1,1.471,1.915,40.4,40.4,0,0,0-.347,4.771l-.016,0a97.034,97.034,0,0,0,.916,11.892c.19,1.386.4,2.785.607,4.207a109.629,109.629,0,0,1,1.565,15.917c0,18.944-10.665,29.808-29.263,29.808-19.167,0-33.079-16.513-33.079-39.263A77.3,77.3,0,0,1,5648.522,2406.565Z" transform="translate(-5489.599 -2073.975)" fill="#707070" stroke="rgba(0,0,0,0)" stroke-width="1"/>
        <path id="Path_18112" data-name="Path 18112" d="M5636.023,2245.383a49.617,49.617,0,0,1,3.237-8.229,47.9,47.9,0,0,1,5.679-8.791s6.106-6.673,9.428-8.837c8.7-6.178,19.694-9.715,32.07-9.715a54.476,54.476,0,0,1,13.81,1.758c22.08,5.784,38.1,28.358,38.1,53.677,0,15.657-6.716,32.1-21.007,41.553-7.485,4.952-17.051,7.987-28.819,7.987-32.695,0-54.661-21.712-54.661-54.028h0A54.32,54.32,0,0,1,5636.023,2245.383Zm34.636,63.124q2.052.621,4.21,1.093,2.557.558,5.256.9a67.4,67.4,0,0,0,8.4.512l.084,0q1.019,0,2.029-.042c.677-.027,1.35-.07,2.02-.123l.041,0a49.906,49.906,0,0,0,14.1-3.194c.118-.046.238-.088.356-.135.387-.154.768-.317,1.149-.481.32-.138.643-.27.958-.414.146-.066.29-.138.435-.205q1.341-.628,2.634-1.339l.181-.1q.95-.527,1.87-1.1l.133-.083c.615-.382,1.216-.788,1.814-1.2q.289-.2.575-.4c.562-.4,1.118-.817,1.663-1.249.152-.121.3-.248.45-.372.412-.336.817-.683,1.218-1.036.229-.2.458-.406.682-.613q.659-.608,1.294-1.248c.221-.223.437-.45.652-.677q.554-.586,1.089-1.2c.195-.222.385-.446.574-.671q.579-.693,1.131-1.414c.13-.17.261-.34.388-.511q.609-.827,1.18-1.695.2-.3.389-.6c.419-.658.829-1.326,1.216-2.019.051-.091.1-.183.151-.275q.469-.856.9-1.737c.063-.128.127-.254.188-.383.325-.683.638-1.375.928-2.08.016-.038.033-.075.048-.113.189-.463.368-.932.542-1.4.1-.271.2-.544.289-.818q.294-.841.554-1.7c.154-.509.3-1.022.44-1.54.08-.3.154-.6.228-.9.19-.778.37-1.562.524-2.361,0-.022.006-.043.011-.065q.222-1.164.392-2.355c.025-.174.042-.351.065-.526.087-.659.168-1.323.232-2,.036-.384.057-.775.084-1.161.036-.489.078-.974.1-1.47q.064-1.365.065-2.759h0a55.885,55.885,0,0,0-.523-7.609q-.171-1.247-.4-2.479-.163-.905-.358-1.8-.388-1.79-.886-3.538t-1.1-3.444a55,55,0,0,0-2.335-5.564q-.573-1.179-1.2-2.323c-6.256-11.436-16.385-20.095-28.481-23.264a50.765,50.765,0,0,0-12.853-1.634,55.458,55.458,0,0,0-14.135,1.792,50.539,50.539,0,0,0-5.058,1.606q-1.448.547-2.84,1.177a46.441,46.441,0,0,0-7.822,4.486,37.384,37.384,0,0,0-8.912,8.428,17.361,17.361,0,0,1-1.056,1.379,47.106,47.106,0,0,0-8.974,28.3C5637.639,2284.906,5650.135,2302.294,5670.659,2308.507Z" transform="translate(-5504.578 -2072.402)" fill="#707070" stroke="rgba(0,0,0,0)" stroke-width="1"/>
        <path id="Path_18113" data-name="Path 18113" d="M5624.619,2214.593q.736-.89,1.5-1.77a56.858,56.858,0,0,1,15.678-14.165,86.462,86.462,0,0,1,27.511-13.083l.088-.022q1.247-.329,2.492-.612c.3-.07.607-.132.91-.2q.847-.183,1.69-.348c.344-.065.688-.128,1.03-.189q.8-.141,1.6-.265c.34-.052.68-.106,1.019-.154.59-.082,1.178-.154,1.767-.221.271-.031.542-.068.813-.1q1.248-.128,2.491-.209c.276-.019.551-.028.827-.042.578-.031,1.156-.058,1.731-.074.334-.01.668-.013,1-.018.288,0,.575-.015.862-.015.264,0,.526.009.79.013s.531.006.8.012c.79.02,1.578.049,2.362.1l.056,0c33.454,2.08,63.072,27.062,72.021,60.749,5.892,22.179,1.62,40-5.179,53.137a78.035,78.035,0,0,1-7.815,12.152c-12.037,15.4-28.583,25.252-39.641,28.189q-1.075.285-2.165.535l-.181.038c-.662.15-1.328.293-2,.422-.362.07-.729.129-1.092.194s-.738.137-1.111.2c-.48.076-.963.141-1.446.207-.262.037-.522.079-.783.112-.529.067-1.062.122-1.595.176-.219.023-.438.052-.658.073-.531.05-1.065.086-1.6.125-.226.017-.45.039-.675.052-.486.031-.976.049-1.463.068-.279.012-.555.031-.833.039-.432.014-.867.015-1.3.021-.334,0-.667.015-1,.015a86.9,86.9,0,0,1-43.017-11.947c-20.556-11.794-35.009-30.08-40.7-51.491a62.786,62.786,0,0,1-1.945-11.7C5606.243,2247.258,5612.211,2229.616,5624.619,2214.593Zm-13.061,53.045c.059.46.13.918.2,1.377.028.185.05.372.081.557q.467,2.9,1.226,5.761c5.427,20.428,19.251,37.895,38.925,49.184a89.611,89.611,0,0,0,14.411,6.662l.008,0q1.83.654,3.673,1.221l.02.006q1.837.565,3.684,1.041l.021.006q1.844.474,3.693.861l.022,0q1.849.385,3.7.682l.016,0q1.852.3,3.7.5h0a68.524,68.524,0,0,0,25.124-1.693,63.339,63.339,0,0,0,18.25-8.844,85.856,85.856,0,0,0,19.385-18.023c.582-.743,1.165-1.52,1.744-2.322a67.721,67.721,0,0,0,13.128-43.631,77.421,77.421,0,0,0-2.553-16.037,79.263,79.263,0,0,0-13.147-27.1q-2.06-2.758-4.343-5.317-1.737-1.949-3.591-3.775l-.08-.081q-1.2-1.176-2.438-2.3c-1.485-1.341-3.025-2.614-4.6-3.834q-1.088-.842-2.2-1.644a73.369,73.369,0,0,0-38.2-13.9c-.292-.019-.585-.023-.877-.037a65.448,65.448,0,0,0-17.568,1.6q-1.337.3-2.68.659c-1.749.465-3.5,1.022-5.24,1.625-.519.18-1.039.344-1.557.536-.241.089-.48.193-.721.286-.885.337-1.769.678-2.648,1.049-1.01.426-2.012.882-3.011,1.352-.107.051-.217.1-.326.147-.933.443-1.856.916-2.777,1.4-.171.089-.346.169-.517.26-.387.205-.765.43-1.149.642a86.027,86.027,0,0,0-8.349,5.218c-.046.033-.1.055-.147.084,0,0-10.083,7.442-14.872,13.488C5615.393,2230.874,5609.259,2249.57,5611.559,2267.638Z" transform="translate(-5506.368 -2072.164)" fill="#707070" stroke="rgba(0,0,0,0)" stroke-width="1"/>
      </g>
    </g>
    <path id="Path_25382" data-name="Path 25382" d="M5767.129,2158.452c15.5,14.276,21.613,20.036,22.165,20.672a1.889,1.889,0,0,0,2.867-2.46c-.966-1.128-12.749-12.037-22.479-20.994a1.888,1.888,0,0,0-2.553,2.782Z" transform="translate(-5685.944 -2071.915)" fill="#707070"/>
    <path id="Path_25383" data-name="Path 25383" d="M5762.2,2158.489a1.9,1.9,0,0,1,1.944-.89,37.46,37.46,0,0,0,6.184.568c7.693,0,15.913-3.283,15.913-12.487a37.742,37.742,0,0,0-1.357-8.771,1.887,1.887,0,0,1,3.1-1.865l1.146,1.043c12.426,11.257,22.231,20.146,23.59,47.554a1.887,1.887,0,0,1-1.893,1.976,1,1,0,0,1-.16-.009c-28.435-2.434-39.089-13.207-48.317-24.989A1.886,1.886,0,0,1,5762.2,2158.489Zm1.478,1.086c8.991,11.477,19.365,21.971,47.129,24.345h.017a.166.166,0,0,0,.129-.051.2.2,0,0,0,.066-.152c-.738-14.913-1.315-26.695-23.03-46.375l-1.145-1.043a.234.234,0,0,0-.127-.043.188.188,0,0,0-.187.238,39.189,39.189,0,0,1,1.408,9.186c0,10.468-9.483,14.183-17.609,14.183a39.085,39.085,0,0,1-6.473-.594.187.187,0,0,0-.194.093A.189.189,0,0,0,5763.675,2159.575Z" transform="translate(-5701.506 -2071.731)" fill="#707070" stroke="#707070" stroke-miterlimit="10" stroke-width="1.712"/>
  </g>
</svg>
