<svg id="Group_3200" data-name="Group 3200" xmlns="http://www.w3.org/2000/svg" width="88.013" height="88.014" viewBox="0 0 88.013 88.014">
  <circle id="Ellipse_253" data-name="Ellipse 253" cx="44.007" cy="44.007" r="44.007" transform="translate(0)" fill="#fff"/>
  <g id="Group_3193" data-name="Group 3193" transform="translate(6.77 8.893)">
    <g id="Group_3180" data-name="Group 3180" transform="translate(10.916 5.361)">
      <path id="Path_18139" data-name="Path 18139" d="M3552.8,4488.6a22.079,22.079,0,0,0-6-9.506c-2.836-2.459-7.149-4.812-11-4.58a.972.972,0,0,0-.679,1.639c2.96,2.6,7.138,3.082,10.006,5.908,2.7,2.663,3.746,6.753,4.774,10.331,4.953,17.245-3.412,26.4-11.254,29.52-14.415,5.744-27.207,3.589-36.479-9a.052.052,0,0,0-.095.041c3.541,15.336,24.361,18.311,36.818,13.035C3553.608,4519.758,3557.884,4502.785,3552.8,4488.6Z" transform="translate(-3502.069 -4471.038)" fill="#e0dfe6"/>
      <path id="Path_18140" data-name="Path 18140" d="M3564.633,4492.371a31.5,31.5,0,0,0-5.535-9.7c-3.9-4.492-10.9-10.559-17.418-8.89a.5.5,0,0,0-.117.9c2.357,1.362,4.918,2.24,7.2,3.8a19.567,19.567,0,0,1,6.2,6.807,66.757,66.757,0,0,1,6.564,16.08,1.621,1.621,0,0,0,2.689.71C3566.752,4499.265,3565.841,4495.6,3564.633,4492.371Z" transform="translate(-3511.794 -4470.79)" fill="#e0dfe6"/>
      <path id="Path_18141" data-name="Path 18141" d="M3562.821,4483.193a24.145,24.145,0,0,0-18.139-13.286c-1.022-.137-1.194,1.322-.485,1.789,6.5,4.272,13.551,8.864,15.665,16.871,1.161,4.4.726,9.178.294,13.653a43.315,43.315,0,0,1-3.208,12.436,26.307,26.307,0,0,1-17.018,15.669c-9.563,3.08-18.634.36-28.218-.817-.9-.111-1.149,1.237-.444,1.644,13.386,7.731,34.444,8.226,45.607-3.7,5.545-5.923,8.5-10.948,11.352-20.356C3570.479,4499.674,3566.219,4490.421,3562.821,4483.193Z" transform="translate(-3504.247 -4469.898)" fill="#e0dfe6"/>
      <path id="Path_18142" data-name="Path 18142" d="M3556.342,4537.725c-2.7,1.927-4.846,4.455-7.4,6.551a31.348,31.348,0,0,1-20.7,6.987c-3.794-.178-7.358-1.354-11-2.3a.5.5,0,0,0-.479.824c5.808,5.381,15.889,5.975,23.188,3.865,7.009-2.024,15.87-7.16,18.256-14.491A1.283,1.283,0,0,0,3556.342,4537.725Z" transform="translate(-3505.673 -4486.653)" fill="#e0dfe6"/>
      <path id="Path_18143" data-name="Path 18143" d="M3522.982,4499.873c.9-1.049,4.816-3.484,6.412-2.657,2.257,1.17.627,5.491.169,7.167-1.365,5-4,9.616-9.209,11.2-3.38,1.026-3.964,6.76,0,7.449a108.5,108.5,0,0,0,20.076,1.656c4.967-.064,4.981-7.79,0-7.725a97.31,97.31,0,0,1-18.022-1.38v7.449c10.229-3.108,16.293-14.6,15.752-25-.573-11.024-14.9-10.313-20.64-3.625-3.222,3.754,2.218,9.243,5.462,5.462Z" transform="translate(-3503.396 -4475.516)" fill="#e0dfe6"/>
    </g>
    <g id="Group_3181" data-name="Group 3181">
      <path id="Path_18144" data-name="Path 18144" d="M3525.645,4529.8c-19.1,0-30.927-15.941-30.927-30.709A29.061,29.061,0,0,1,3523.689,4470a29.874,29.874,0,0,1,18.868,6.4c7.768,6.32,11.387,13.7,11.387,23.234C3553.944,4515.987,3540.984,4529.8,3525.645,4529.8Zm-1.957-58.2a27.467,27.467,0,0,0-27.378,27.495c0,14,11.215,29.117,29.334,29.117,14.476,0,26.7-13.083,26.7-28.568,0-9.014-3.431-16-10.8-22A28.277,28.277,0,0,0,3523.689,4471.6Z" transform="translate(-3489.332 -4464.563)"/>
      <path id="Path_18145" data-name="Path 18145" d="M3524.117,4533.447a36.057,36.057,0,0,1-26.309-11.22,36.743,36.743,0,0,1-10.25-25.081,34.345,34.345,0,0,1,34.236-34.374,35.31,35.31,0,0,1,22.3,7.567c9.183,7.47,13.46,16.2,13.46,27.461C3557.556,4517.122,3542.242,4533.447,3524.117,4533.447Zm-2.322-69.083a32.75,32.75,0,0,0-32.643,32.782c0,16.693,13.368,34.708,34.965,34.708,17.262,0,31.846-15.6,31.846-34.055,0-10.748-4.091-19.082-12.873-26.226A33.72,33.72,0,0,0,3521.794,4464.364Z" transform="translate(-3487.558 -4462.772)"/>
      <path id="Path_18146" data-name="Path 18146" d="M3535.463,4497.244c0-4.236-2.844-8.512-9.2-8.512-5.354,0-9.056,2.931-9.434,7.465a1.946,1.946,0,1,0,3.879.323c.293-3.515,3.982-3.9,5.555-3.9,3.37,0,5.3,1.684,5.3,4.619,0,3.73-3.116,7.44-6.417,11.369a53.943,53.943,0,0,0-5.853,7.893,1.946,1.946,0,0,0,1.831,2.9c2.423-.17,5.016-.327,7.561-.327a43.611,43.611,0,0,1,8.071.676,2.026,2.026,0,0,0,.36.034,1.947,1.947,0,0,0,.356-3.861,47.467,47.467,0,0,0-8.788-.742c-1.313,0-2.631.04-3.926.1,1.055-1.417,2.223-2.806,3.368-4.169C3531.738,4506.828,3535.463,4502.392,3535.463,4497.244Z" transform="translate(-3492.552 -4469.956)"/>
    </g>
  </g>
</svg>
