<svg xmlns="http://www.w3.org/2000/svg" width="89.547" height="20.892" viewBox="0 0 89.547 20.892">
  <g id="Group_2858" data-name="Group 2858" opacity="0.385">
    <path id="Path_6939" data-name="Path 6939" d="M-1022.82,1269.36c-4.313.6-7.527-.284-11.85-.5-4.035-.205-6.829,1.173-10.555,2.32-4.942,1.522-7.434-1.74-11.936-2.92-3.729-.977-6.523.008-10.03,1.073-1.754.533-4.417,1.91-6.22,1.494-1.565-.361-3.6-2.551-5.077-3.26a15.71,15.71,0,0,0-7.28-1.627c-4.953.133-10.828,2.726-11.623,8.034a1.626,1.626,0,0,0,1.969,1.969c4.641-1.024,8.313-3.073,12.689.393,2.386,1.89,3.937,4.194,6.85,5.409,3.178,1.325,6.342.946,9.554-.005,5.421-1.607,5.342-1.859,10.414.709,7.742,3.921,12.382.114,20.087-.023,7.633-.135,14.835,3.774,19.71-4.343C-1013.174,1273.177-1018.019,1268.69-1022.82,1269.36Z" transform="translate(1102.643 -1263.319)" fill="#f7f7f7"/>
    <g id="Group_2405" data-name="Group 2405" transform="translate(0 0)">
      <path id="Path_6940" data-name="Path 6940" d="M-1059.193,1271.04c-3.541,0-5.986-2.248-8.143-4.232-1.682-1.548-3.135-2.884-4.686-2.884s-3.235,1.264-5.022,2.6c-2.392,1.79-5.1,3.819-8.663,3.819-3.589,0-6.216-2-8.534-3.764-1.995-1.516-3.716-2.828-5.76-2.828-3.07,0-6.065,2.632-7.669,5.238a2.419,2.419,0,0,1-3.334.794,2.422,2.422,0,0,1-.794-3.334c2.245-3.647,6.522-7.545,11.8-7.545,3.679,0,6.344,2.027,8.695,3.818,1.956,1.488,3.646,2.774,5.6,2.774s3.8-1.385,5.76-2.852c2.234-1.673,4.766-3.567,7.925-3.567,3.441,0,5.845,2.212,7.967,4.162,1.723,1.586,3.211,2.954,4.861,2.954,1.731,0,2.48-.768,4.012-2.509,1.9-2.16,4.507-5.118,10.425-5.118,2.5,0,4.771,1.644,7.171,3.382,2.505,1.816,5.1,3.694,7.781,3.694a5.325,5.325,0,0,0,3.3-1.218,2.423,2.423,0,0,1,3.4.453,2.423,2.423,0,0,1-.453,3.4,10.118,10.118,0,0,1-6.241,2.215c-4.259,0-7.788-2.559-10.626-4.616-1.59-1.153-3.394-2.46-4.326-2.46-3.728,0-5.077,1.533-6.787,3.474C-1053.172,1268.739-1055.2,1271.04-1059.193,1271.04Z" transform="translate(1112.157 -1258.567)" fill="#e3e3e3"/>
    </g>
  </g>
</svg>
